<?xml version="1.0" standalone="no"?>
<!DOCTYPE svg PUBLIC "-//W3C//DTD SVG 1.1//EN" "http://www.w3.org/Graphics/SVG/1.1/DTD/svg11.dtd" >
<svg xmlns="http://www.w3.org/2000/svg" xmlns:xlink="http://www.w3.org/1999/xlink" version="1.1">
<metadata>
Created by FontForge 20170731 at Tue Jul 11 16:09:41 2017
 By ,,,
(c) - 2017. Designed by LJ Design Studios. All Rights Reserved
</metadata>
<defs>
<font id="FactoryLJDS" horiz-adv-x="1124" >
  <font-face 
    font-family="Factory LJDS"
    font-weight="400"
    font-stretch="normal"
    units-per-em="2048"
    panose-1="2 0 5 0 0 0 0 0 0 0"
    ascent="1638"
    descent="-410"
    x-height="739"
    cap-height="1479"
    bbox="-1520 -740 3272 1939"
    underline-thickness="150"
    underline-position="-442"
    unicode-range="U+001D-F002"
  />
<missing-glyph horiz-adv-x="1074" 
d="M100 0v1484h874v-1484h-874zM200 100h674v1284h-674v-1284z" />
    <glyph glyph-name=".notdef" horiz-adv-x="1074" 
d="M100 0v1484h874v-1484h-874zM200 100h674v1284h-674v-1284z" />
    <glyph glyph-name="uni0000" horiz-adv-x="0" 
 />
    <glyph glyph-name="uni0000" horiz-adv-x="0" 
 />
    <glyph glyph-name="nonmarkingreturn" horiz-adv-x="508" 
 />
    <glyph glyph-name="space" unicode=" " horiz-adv-x="508" 
 />
    <glyph glyph-name="space" unicode="&#xa0;" horiz-adv-x="508" 
 />
    <glyph glyph-name="exclam" unicode="!" horiz-adv-x="192" 
d="M50 277v1202h92v-1202h-92zM50 0v92h92v-92h-92z" />
    <glyph glyph-name="quotedbl" unicode="&#x22;" horiz-adv-x="350" 
d="M208 1102v377h93v-377h-93zM50 1102v377h93v-377h-93z" />
    <glyph glyph-name="numbersign" unicode="#" horiz-adv-x="1020" 
d="M708 647l-24 -175h199l-13 -93h-199l-53 -379h-93l53 379h-175l-53 -379h-93l53 379h-209l13 93h209l24 175h-209l14 93h209l53 379h93l-53 -379h175l53 379h93l-53 -379h199l-14 -93h-199zM591 472l24 175h-175l-24 -175h175z" />
    <glyph glyph-name="dollar" unicode="$" horiz-adv-x="1031" 
d="M562 1387q-115 0 -196.5 -81.5t-81.5 -195.5q0 -65 41.5 -118t106.5 -100.5t141 -94.5q66 -41 129 -85.5t115 -95t83 -111.5t31 -135q0 -116 -63.5 -208t-167.5 -135v-211h-92v187q-23 -3 -46 -3q-24 0 -46 3v-187h-93v211q-103 43 -167 135t-64 208h-92v93h277v-93h-93
q0 -115 81.5 -196t196.5 -81t196 81t81 196q0 65 -41 117.5t-106.5 100.5t-141.5 95q-65 41 -128.5 85t-115 95t-83 111.5t-31.5 135.5q0 116 64 207.5t167 134.5v212h93v-188q22 3 46 3q23 0 46 -3v188h92v-212q104 -43 167.5 -134.5t63.5 -207.5h-92q0 114 -81 195.5
t-196 81.5z" />
    <glyph glyph-name="percent" unicode="%" horiz-adv-x="1679" 
d="M1189 1478h113l-812 -1478h-113zM1255 647q134 0 229 -95t95 -229t-95 -228.5t-229 -94.5t-228.5 94.5t-94.5 228.5t94.5 229t228.5 95zM1255 92q96 0 163.5 67.5t67.5 163.5t-67.5 163.5t-163.5 67.5q-95 0 -163 -67.5t-68 -163.5t68 -163.5t163 -67.5zM747 1155
q0 -134 -95 -229t-229 -95t-228.5 95t-94.5 229t94.5 228.5t228.5 94.5t229 -94.5t95 -228.5zM192 1155q0 -96 68 -163.5t163 -67.5q96 0 164 67.5t68 163.5t-68 163.5t-164 67.5q-95 0 -163 -67.5t-68 -163.5z" />
    <glyph glyph-name="ampersand" unicode="&#x26;" horiz-adv-x="918" 
d="M192 1109q0 -115 81 -196t196 -81t196.5 81t81.5 196t-81.5 196.5t-196.5 81.5t-196 -81.5t-81 -196.5zM820 550q19 -63 19 -134q0 -115 -50 -209.5t-134 -150.5t-186 -56t-186 56t-133.5 150.5t-49.5 209.5q0 119 53.5 216t141.5 151q-88 48 -141.5 134t-53.5 192
q0 102 49.5 186t133.5 134t186 50t186 -50t134 -134t50 -186q0 -106 -54.5 -207.5t-254.5 -173.5h-61q-115 0 -196 -91.5t-81 -220.5t81 -220.5t196 -91.5t196.5 91.5t81.5 220.5q0 84 -47 196l218 83v-103z" />
    <glyph glyph-name="quotesingle" unicode="'" horiz-adv-x="192" 
d="M50 1102v377h92v-377h-92z" />
    <glyph glyph-name="parenleft" unicode="(" horiz-adv-x="377" 
d="M235 1479h92l-28 -51q-28 -50 -64 -145.5t-64.5 -233t-28.5 -310.5t28.5 -310t64.5 -232.5t64 -146.5l28 -50h-92l-28 50q-29 51 -65 146.5t-64 232.5t-28 310t28 310.5t64 233t65 145.5z" />
    <glyph glyph-name="parenright" unicode=")" horiz-adv-x="377" 
d="M142 1479l28 -51q29 -50 65 -145.5t64 -233t28 -310.5t-28 -310t-64 -232.5t-65 -146.5l-28 -50h-92l28 50q28 51 64 146.5t64.5 232.5t28.5 310t-28.5 310.5t-64.5 233t-64 145.5l-28 51h92z" />
    <glyph glyph-name="asterisk" unicode="*" horiz-adv-x="377" 
d="M306 1419l-51 -50h72v-56h-72l51 -50l-39 -40l-51 51v-72h-55v72l-51 -51l-39 40l50 50h-71v56h71l-50 50l39 40l51 -51v72h55v-72l51 51z" />
    <glyph glyph-name="plus" unicode="+" horiz-adv-x="754" 
d="M331 407h-231v93h231v231h92v-231h231v-93h-231v-231h-92v231z" />
    <glyph glyph-name="comma" unicode="," horiz-adv-x="193" 
d="M143 -1l-25 -99h-68l24 99h-24v92h93v-92z" />
    <glyph glyph-name="hyphen" unicode="-" horiz-adv-x="754" 
d="M100 407v93h554v-93h-554z" />
    <glyph glyph-name="hyphen" unicode="&#xad;" horiz-adv-x="754" 
d="M100 407v93h554v-93h-554z" />
    <glyph glyph-name="period" unicode="." horiz-adv-x="193" 
d="M50 0v92h93v-92h-93z" />
    <glyph glyph-name="slash" unicode="/" horiz-adv-x="739" 
d="M0 0l626 1479h113l-626 -1479h-113z" />
    <glyph glyph-name="zero" unicode="0" horiz-adv-x="939" 
d="M469 1479q103 0 186.5 -100t133.5 -267.5t50 -372.5q0 -204 -50 -371.5t-133.5 -267.5t-186.5 -100q-102 0 -185.5 100t-133.5 267.5t-50 371.5q0 205 50 372.5t133.5 267.5t185.5 100zM469 92q77 0 140 87.5t100.5 234.5t37.5 325q0 179 -37.5 326t-100.5 234.5
t-140 87.5q-76 0 -139 -87.5t-100.5 -234.5t-37.5 -326q0 -178 37.5 -325t100.5 -234.5t139 -87.5z" />
    <glyph glyph-name="one" unicode="1" horiz-adv-x="570" 
d="M193 0v92h92v1295l-185 -93v93l185 92h92v-1387h93v-92h-277z" />
    <glyph glyph-name="two" unicode="2" horiz-adv-x="940" 
d="M193 92h554v93h93v-185h-740v92q0 96 50.5 188t127.5 181t163 175q79 81 148.5 160t113.5 157.5t44 155.5q0 115 -81 196.5t-196 81.5t-196 -81.5t-81 -196.5h-93q0 102 50 186t134 134t186 50t186 -50t134 -134t50 -186q0 -96 -51 -189t-129 -183t-163 -177
q-79 -81 -148 -159.5t-112.5 -155.5t-43.5 -153z" />
    <glyph glyph-name="three" unicode="3" horiz-adv-x="1032" 
d="M741 783q48 -25 91.5 -70.5t71.5 -118t28 -178.5q0 -52 -19 -122.5t-62 -137.5t-114 -111.5t-175 -44.5q-102 0 -186 50t-134 134t-50 186h-92v92h277v-92h-92q0 -115 81 -196.5t196 -81.5q70 0 121.5 31t86.5 79.5t52 105t17 108.5q0 97 -28 158t-69 95.5t-82 49.5
t-70 18l-28 2h-185v93h185q83 0 135.5 28t82 69.5t42 82.5t15.5 69l2 28q0 115 -81 196.5t-196 81.5t-196 -81.5t-81 -196.5h-93q0 102 50 186t134 134t186 50t186 -50t134 -134t50 -186q0 -94 -28 -158.5t-71.5 -105t-91.5 -62.5z" />
    <glyph glyph-name="four" unicode="4" horiz-adv-x="1032" 
d="M932 555h-92v-463h92v-92h-277v92h92v463h-647v92l647 832h93v-832h92v-92zM217 647h530v682z" />
    <glyph glyph-name="five" unicode="5" horiz-adv-x="1031" 
d="M192 1479h740v-185h-93v93h-554v-463h185l33 -2q34 -2 86.5 -14.5t111.5 -41t111 -79t86 -130t34 -195.5q0 -69 -19 -149t-62 -151t-114 -116.5t-175 -45.5q-111 0 -181 37.5t-109 92.5t-56 109.5t-20 92.5l-4 38h-92v92h277v-92h-92l2 -29q3 -28 15.5 -69t42 -82
t82 -69.5t135.5 -28.5q92 0 154 54t92.5 139t30.5 177q0 111 -37.5 181t-92.5 109t-109.5 56t-92.5 21l-37 3h-278v647z" />
    <glyph glyph-name="six" unicode="6" horiz-adv-x="938" 
d="M470 739q102 0 186 -49.5t133.5 -133.5t49.5 -186t-49.5 -186t-133.5 -134t-186 -50t-186 50t-134 134t-50 186q0 182 32 335t82.5 276.5t106.5 216.5t106 155.5t82 93.5l33 32h113v-92h-92q-56 -63 -125.5 -168t-130.5 -250.5t-93 -331.5q50 48 115.5 75t140.5 27z
M470 92q115 0 196 81.5t81 196.5t-81 196t-196 81t-196.5 -81t-81.5 -196t81.5 -196.5t196.5 -81.5z" />
    <glyph glyph-name="seven" unicode="7" horiz-adv-x="938" 
d="M839 1479v-92l-52 -110q-52 -110 -120.5 -294.5t-124.5 -414.5t-70 -476h90v-92h-277v92h94q14 246 70.5 476t125 414.5t120.5 294.5l52 110h-555v-93h-92v185h739z" />
    <glyph glyph-name="eight" unicode="8" horiz-adv-x="939" 
d="M643 783q89 -54 142.5 -151t53.5 -216q0 -115 -50 -209.5t-134 -150.5t-186 -56t-186 56t-133.5 150.5t-49.5 209.5q0 119 53.5 216t141.5 151q-88 48 -141.5 134t-53.5 192q0 102 49.5 186t133.5 134t186 50t186 -50t134 -134t50 -186q0 -106 -53.5 -192t-142.5 -134z
M192 1109q0 -115 81 -196t196 -81t196.5 81t81.5 196t-81.5 196.5t-196.5 81.5t-196 -81.5t-81 -196.5zM469 104q115 0 196.5 91.5t81.5 220.5t-81.5 220.5t-196.5 91.5t-196 -91.5t-81 -220.5t81 -220.5t196 -91.5z" />
    <glyph glyph-name="nine" unicode="9" horiz-adv-x="939" 
d="M469 740q-102 0 -186 49.5t-133.5 133.5t-49.5 186t49.5 186t133.5 134t186 50t186 -50t134 -134t50 -186q0 -182 -32 -335t-82.5 -276.5t-106.5 -216.5t-106 -155.5t-82 -93.5l-33 -32h-113v92h92q56 63 125 168t130 250.5t94 331.5q-50 -48 -115.5 -75t-140.5 -27z
M469 1387q-115 0 -196 -81.5t-81 -196.5t81 -196t196 -81t196.5 81t81.5 196t-81.5 196.5t-196.5 81.5z" />
    <glyph glyph-name="colon" unicode=":" horiz-adv-x="193" 
d="M50 0v92h93v-92h-93zM51 647v92h93v-92h-93z" />
    <glyph glyph-name="semicolon" unicode=";" horiz-adv-x="194" 
d="M143 -1l-25 -99h-68l24 99h-24v92h93v-92zM50 648v92h93v-92h-93z" />
    <glyph glyph-name="semicolon" unicode="&#x37e;" horiz-adv-x="194" 
d="M143 -1l-25 -99h-68l24 99h-24v92h93v-92zM50 648v92h93v-92h-93z" />
    <glyph glyph-name="less" unicode="&#x3c;" horiz-adv-x="570" 
d="M100 400v93l370 185v-93l-277 -138l277 -139v-93z" />
    <glyph glyph-name="equal" unicode="=" horiz-adv-x="755" 
d="M100 315v92h555v-92h-555zM100 500v92h555v-92h-555z" />
    <glyph glyph-name="greater" unicode="&#x3e;" horiz-adv-x="570" 
d="M469 400l-370 -185v93l277 139l-277 138v93l370 -185v-93z" />
    <glyph glyph-name="question" unicode="?" horiz-adv-x="754" 
d="M377 1479q93 0 154.5 -54t92 -139t30.5 -177q0 -111 -28 -181t-69 -109t-82 -56t-70 -20l-28 -4v-462h-92v555h92l19 2q19 3 46.5 15.5t54.5 42t46 82t19 135.5q0 92 -27 154t-69.5 92.5t-88.5 30.5q-55 0 -90 -19t-54.5 -46t-28 -54.5t-10.5 -46.5l-2 -19h-92l2 29
q3 28 15.5 69t42 82t82 69.5t135.5 28.5zM285 0v92h92v-92h-92z" />
    <glyph glyph-name="at" unicode="@" horiz-adv-x="1605" 
d="M755 867q-115 0 -196 -81t-81 -196t81 -196t196 -81t196 81t81 196t-81 196t-196 81zM755 220q-102 0 -186 50t-134 134t-50 186t50 186t134 134t186 50q83 0 154.5 -33.5t122.5 -91.5v125h185v-93h-92v-554h92v-93h-185v126q-51 -59 -122.5 -92.5t-154.5 -33.5z
M803 1469q204 0 372.5 -116.5t269 -313.5t100.5 -437t-100.5 -437t-269 -313.5t-372.5 -116.5q-205 0 -373 116.5t-269 313.5t-101 437t101 437t269 313.5t373 116.5zM803 -184q178 0 324.5 103t233 283.5t86.5 399.5t-86.5 399.5t-233 283.5t-324.5 103q-179 0 -325.5 -103
t-232.5 -283.5t-86 -399.5t86 -399.5t232.5 -283.5t325.5 -103z" />
    <glyph glyph-name="A" unicode="A" horiz-adv-x="1248" 
d="M377 93v-93h-277v93h85l323 1294h-69v92h277l347 -1386h85v-93h-278v93h100l-115 462h-462l-116 -462h100zM601 1387l-185 -740h416l-185 740h-46z" />
    <glyph glyph-name="B" unicode="B" horiz-adv-x="1216" 
d="M1116 416q0 -125 -37.5 -203.5t-92 -122.5t-109.5 -63t-93 -23l-37 -4h-647v93h92v1294h-92v92h554l38 -3q38 -4 92.5 -21t109.5 -56t92.5 -109t37.5 -181q0 -80 -21 -138.5t-54.5 -98.5t-73.5 -66q55 -19 110 -63t93 -122.5t38 -204.5zM285 1387v-555h369l29 3
q28 2 69 15t82 42t69.5 81.5t28.5 135.5q0 84 -28.5 136t-69.5 81.5t-82 42.5t-69 15l-29 3h-369zM285 728v-624h462l28 3q28 3 69 17.5t82 47.5t69.5 92t28.5 152q0 94 -28.5 153t-69.5 92t-82 47t-69 17l-28 3h-462z" />
    <glyph glyph-name="C" unicode="C" 
d="M839 0q-204 0 -372 100t-267.5 267.5t-99.5 372.5q0 204 99.5 371.5t267.5 267.5t372 100h185v-185h-92v93h-93q-178 0 -325 -87.5t-234.5 -234.5t-87.5 -325q0 -179 87.5 -326t234.5 -234t325 -87h93v92h92v-185h-185z" />
    <glyph glyph-name="D" unicode="D" horiz-adv-x="1216" 
d="M562 0h-462v93h92v1294h-92v92h462l40 -4q41 -4 103.5 -23.5t133.5 -65t133.5 -126.5t103 -208.5t40.5 -311.5q0 -185 -40.5 -312t-103 -208.5t-133.5 -127t-133.5 -65t-103.5 -23.5zM284 1387v-1294h278l33 3q34 3 86.5 20.5t111.5 57t111 110.5t86 182.5t34 273.5
q0 161 -34 272.5t-86 182.5t-111 110.5t-111.5 57t-86.5 20.5l-33 4h-278z" />
    <glyph glyph-name="E" unicode="E" horiz-adv-x="1216" 
d="M1116 0h-1016v93h92v1294h-92v92h1016v-185h-92v93h-739v-647h739v-93h-739v-554h739v92h92v-185z" />
    <glyph glyph-name="F" unicode="F" horiz-adv-x="1216" 
d="M100 0v93h92v1294h-92v92h1016v-185h-92v93h-739v-647h739v-93h-739v-554h92v-93h-277z" />
    <glyph glyph-name="G" unicode="G" 
d="M839 0q-204 0 -372 100t-267.5 267.5t-99.5 372.5q0 204 99.5 371.5t267.5 267.5t372 100h185v-185h-92v93h-93q-178 0 -325 -87.5t-234.5 -234.5t-87.5 -325q0 -179 87.5 -326t234.5 -234t325 -87h93v554h-185v93h277v-740h-185z" />
    <glyph glyph-name="H" unicode="H" horiz-adv-x="1309" 
d="M1209 93v-93h-277v93h93v554h-740v-554h93v-93h-278v93h93v1294h-93v92h278v-92h-93v-647h740v647h-93v92h277v-92h-92v-1294h92z" />
    <glyph glyph-name="I" unicode="I" horiz-adv-x="477" 
d="M377 93v-93h-277v93h92v1294h-92v92h277v-92h-92v-1294h92z" />
    <glyph glyph-name="J" unicode="J" horiz-adv-x="1309" 
d="M1117 462l-3 -33q-2 -34 -14.5 -86.5t-40.5 -111.5t-79 -111t-130.5 -86t-194.5 -34q-116 0 -195.5 34t-130 86t-79 111t-41 111.5t-14.5 86.5l-2 33h-93v93h277v-93h-92l3 -37q4 -38 21 -92.5t56 -109.5t109 -92.5t181 -37.5t180.5 37.5t109 92.5t56.5 109.5t20 92.5
l3 37v925h-92v92h277v-92h-92v-925z" />
    <glyph glyph-name="K" unicode="K" horiz-adv-x="1145" 
d="M436 841l524 -748h85v-93h-277v93h89l-477 677l-95 -123v-554h93v-93h-278v93h93v1294h-93v92h278v-92h-93v-601l472 601h-102v92h277v-92h-72z" />
    <glyph glyph-name="L" unicode="L" 
d="M100 92h92v1294h-92v93h277v-93h-92v-1294h647v93h92v-185h-924v92z" />
    <glyph glyph-name="M" unicode="M" horiz-adv-x="1216" 
d="M377 92v-92h-277v92h92v1294h-92v93h185l323 -647l324 647h184v-93h-92v-1294h92v-92h-277v92h93v1202l-278 -555h-92l-277 555v-1202h92z" />
    <glyph glyph-name="N" unicode="N" horiz-adv-x="1217" 
d="M1117 1386h-92v-1294h92v-92h-185l-647 1273v-1181h93v-92h-278v92h93v1294h-93v93h185l647 -1274v1274h185v-93z" />
    <glyph glyph-name="O" unicode="O" horiz-adv-x="1217" 
d="M609 1479q140 0 255.5 -100t184 -267.5t68.5 -372.5q0 -204 -68.5 -371.5t-184 -267.5t-255.5 -100q-141 0 -256 100t-184 267.5t-69 371.5q0 205 69 372.5t184 267.5t256 100zM609 92q115 0 209 87.5t150.5 234.5t56.5 325q0 179 -56.5 326t-150.5 234t-209 87
t-209.5 -87t-150.5 -234t-56 -326q0 -178 56 -325t150.5 -234.5t209.5 -87.5z" />
    <glyph glyph-name="P" unicode="P" horiz-adv-x="1217" 
d="M377 92v-92h-277v92h93v1294h-93v93h647l38 -4q37 -3 92 -20t109.5 -56t92.5 -109t38 -181t-38 -181t-92.5 -109t-109.5 -56t-92 -20l-38 -4h-462v-647h92zM285 1386v-554h462l28 2q29 3 70 15.5t82 42t69 82t28 135.5t-28 135.5t-69 82t-82 42t-70 15.5l-28 2h-462z" />
    <glyph glyph-name="Q" unicode="Q" 
d="M513 0v4q-117 22 -210 123.5t-148 261.5t-55 351q0 204 62.5 372t167.5 267.5t232 99.5q128 0 233 -99.5t167 -267.5t62 -372q0 -193 -55.5 -353.5t-150 -262t-212.5 -120.5v-4q0 -27 9.5 -44.5t23 -27.5t27 -14t23.5 -5l243 -1l92 -93h-326q-55 0 -90 19t-54.5 46.5
t-28 55t-10.5 45.5zM192 740q0 -179 50 -326t134 -234t186 -87t186 87t134 234t50 326q0 178 -50 325t-134 234.5t-186 87.5t-186 -87.5t-134 -234.5t-50 -325z" />
    <glyph glyph-name="R" unicode="R" horiz-adv-x="1175" 
d="M775 580l210 -488h90v-92h-277v92h84l-199 465l-29 -2h-369v-463h92v-92h-277v92h92v1294h-92v93h462l34 -3q33 -2 85.5 -14.5t111.5 -40.5t111.5 -79t86 -130.5t33.5 -194.5q0 -107 -23.5 -183t-60.5 -126.5t-80 -81t-85 -46.5zM654 647l29 3q28 4 69 21t82 56t69.5 109
t28.5 181t-38 180.5t-92.5 109t-109.5 56.5t-92 20l-38 3h-277v-739h369z" />
    <glyph glyph-name="S" unicode="S" horiz-adv-x="1032" 
d="M562 1386q-114 0 -195.5 -81t-81.5 -196q0 -64 41 -117t106.5 -100.5t141.5 -95.5q65 -41 128.5 -85t115 -95t83 -111.5t31.5 -134.5q0 -102 -50 -186t-133.5 -134t-186.5 -50q-102 0 -186 50t-133.5 134t-49.5 186h-93v92h278v-92h-93q0 -115 81.5 -196.5t195.5 -81.5
q115 0 196.5 81.5t81.5 196.5q0 64 -41 117t-106.5 100.5t-141.5 95.5q-65 40 -128.5 84.5t-115.5 95.5t-83 111.5t-31 134.5q0 102 49.5 186t133.5 134t186 50q103 0 186.5 -50t133.5 -134t50 -186h-92q0 115 -81.5 196t-196.5 81z" />
    <glyph glyph-name="T" unicode="T" horiz-adv-x="1032" 
d="M100 1294v185h832v-185h-92v92h-277v-1294h92v-92h-277v92h92v1294h-277v-92h-93z" />
    <glyph glyph-name="U" unicode="U" 
d="M746 1386v93h278v-93h-93v-1016l-3 -38q-3 -38 -20 -92.5t-56.5 -109.5t-109 -92.5t-180.5 -37.5t-181 37.5t-109 92.5t-56 109.5t-21 92.5l-3 38v1016h-92v93h277v-93h-93v-1016l3 -29q2 -28 15 -69t42.5 -82t81.5 -69.5t136 -28.5q83 0 135.5 28.5t81.5 69.5t42 82
t15 69l3 29v1016h-93z" />
    <glyph glyph-name="V" unicode="V" horiz-adv-x="1248" 
d="M870 1386v93h278v-93h-85l-347 -1386h-185l-346 1386h-85v93h277v-93h-100l324 -1294h46l323 1294h-100z" />
    <glyph glyph-name="W" unicode="W" horiz-adv-x="2018" 
d="M1641 1386v93h277v-93h-85l-346 -1386h-185l-293 1171l-293 -1171h-185l-346 1386h-85v93h277v-93h-100l324 -1294h46l316 1264l-8 30h-85v93h278v-93h-85l-8 -30l316 -1264h46l324 1294h-100z" />
    <glyph glyph-name="X" unicode="X" horiz-adv-x="1186" 
d="M809 1386v93h277v-93h-82l-355 -647l355 -647h82v-92h-277v92h82l-298 544l-299 -544h83v-92h-277v92h82l354 647l-354 647h-82v93h277v-93h-83l299 -544l298 544h-82z" />
    <glyph glyph-name="Y" unicode="Y" horiz-adv-x="1186" 
d="M809 1386v93h277v-93h-82l-365 -647v-647h93v-92h-278v92h93v647l-366 647h-81v93h277v-93h-83l299 -544l298 544h-82z" />
    <glyph glyph-name="Z" unicode="Z" horiz-adv-x="1125" 
d="M100 1479h925v-93l-812 -1294h719v93h93v-185h-925v92l812 1294h-719v-92h-93v185z" />
    <glyph glyph-name="bracketleft" unicode="[" horiz-adv-x="481" 
d="M193 92h146v93h92v-185h-331v1479h331v-185h-92v93h-146v-1295z" />
    <glyph glyph-name="backslash" unicode="\" horiz-adv-x="739" 
d="M739 0h-113l-626 1479h113z" />
    <glyph glyph-name="bracketright" unicode="]" horiz-adv-x="481" 
d="M288 92v1295h-146v-93h-92v185h331v-1479h-331v185h92v-93h146z" />
    <glyph glyph-name="asciicircum" unicode="^" horiz-adv-x="562" 
d="M235 727h92l185 -370h-92l-139 277l-138 -277h-93z" />
    <glyph glyph-name="underscore" unicode="_" horiz-adv-x="755" 
d="M100 -43v93h554v-93h-554z" />
    <glyph glyph-name="grave" unicode="`" horiz-adv-x="385" 
d="M286 891h-92l-93 185h93z" />
    <glyph glyph-name="a" unicode="a" horiz-adv-x="1031" 
d="M469 0q-102 0 -186 50t-133.5 134t-49.5 186t49.5 186t133.5 134t186 50q83 0 154.5 -33.5t123.5 -92.5v126h184v-93h-92v-554h92v-93h-184v126q-52 -59 -123.5 -92.5t-154.5 -33.5zM469 647q-115 0 -196 -81t-81 -196t81 -196t196 -81t196.5 81t81.5 196t-81.5 196
t-196.5 81z" />
    <glyph glyph-name="b" unicode="b" horiz-adv-x="1032" 
d="M285 126v-126h-185v93h92v1294h-92v92h185v-865q38 44 88 74h1q7 5 15 9q1 0 2 1h1q7 4 14 7q1 1 3 1l1 1q7 3 13 6q3 1 5 2q6 2 13 4l24 8q6 1 12 3h1q3 1 6 1q6 2 12 3h2q3 0 5 1l12 2h3q2 0 5 1q6 0 13 1h6q10 1 20 1q102 0 186 -50t134 -134t50 -186t-50 -186
t-134 -134t-186 -50q-10 0 -20 1h-6q-7 1 -13 1q-3 1 -5 1h-3l-12 2q-2 0 -5 1h-2q-6 1 -12 3q-3 0 -6 1h-1q-6 2 -12 3l-24 8q-7 2 -13 4q-2 1 -5 2q-6 3 -13 6h-1q-2 1 -3 2q-7 3 -14 7h-1q-1 1 -2 1q-8 4 -15 9h-1q-50 30 -88 74zM562 647q-115 0 -196 -81t-81 -196
t81 -196t196 -81t196 81t81 196t-81 196t-196 81z" />
    <glyph glyph-name="c" unicode="c" horiz-adv-x="755" 
d="M470 0q-102 0 -186 50t-134 134t-50 186t50 186t134 134t186 50h185v-185h-93v92h-92q-115 0 -196 -81t-81 -196t81 -196t196 -81h185v-93h-185z" />
    <glyph glyph-name="d" unicode="d" horiz-adv-x="1032" 
d="M470 0q-102 0 -186 50t-134 134t-50 186t50 186t134 134t186 50q83 0 154.5 -33.5t122.5 -92.5v865h185v-92h-93v-1294h93v-93h-185v126q-51 -59 -122.5 -92.5t-154.5 -33.5zM470 647q-115 0 -196.5 -81t-81.5 -196t81.5 -196t196.5 -81t196 81t81 196t-81 196t-196 81z
" />
    <glyph glyph-name="e" unicode="e" horiz-adv-x="847" 
d="M470 0q-103 0 -186.5 50t-133.5 134t-50 186t41.5 186t116.5 134t177 50q82 0 141 -30t97 -74.5t56 -91.5t18 -82v-92h-555q0 -115 81.5 -196t196.5 -81q114 0 196 81l65 -65q-51 -51 -118 -80t-143 -29zM435 647q-90 0 -149.5 -51t-81.5 -134h450q0 47 -28 89t-77.5 69
t-113.5 27z" />
    <glyph glyph-name="f" unicode="f" horiz-adv-x="971" 
d="M562 1479l33 -3q33 -2 82.5 -16t101.5 -45.5t92 -88.5l-70 -70q-18 33 -48.5 63t-77 49t-113.5 19q-83 0 -135.5 -28.5t-82 -69.5t-42 -82t-15.5 -69l-2 -29v-369h277v-93h-277v-554h92v-93h-277v93h92v1016l4 38q3 38 20 92.5t56 109.5t109 92.5t181 37.5z" />
    <glyph glyph-name="g" unicode="g" horiz-adv-x="1032" 
d="M470 0q-102 0 -186 50t-134 134t-50 186t50 186t134 134t186 50q83 0 154.5 -33.5t122.5 -92.5v126h185v-93h-92v-647l-2 -19q-2 -19 -10.5 -46t-28 -54.5t-54.5 -46.5t-90 -19h-194q-10 -1 -23.5 -5.5t-27.5 -14t-23 -27t-9 -45.5t9 -45.5t23 -27t27.5 -14t23.5 -5.5
h203q10 1 23.5 5.5t27 14t23 27t9.5 45.5h93l-2 -19q-2 -19 -10.5 -46.5t-28 -54.5t-54.5 -46t-90 -19h-185l-19 2q-19 1 -46 9.5t-54.5 28.5t-46.5 54.5t-19 90.5l2 19q1 19 9.5 46t28.5 54.5t55 46.5t90 19h185l9 1q10 0 23.5 4.5t27 14.5t23 27t9.5 45v125
q-51 -58 -122.5 -91.5t-154.5 -33.5zM470 647q-115 0 -196 -81t-81 -196t81 -196t196 -81t196 81t81 196t-81 196t-196 81z" />
    <glyph glyph-name="h" unicode="h" 
d="M747 93h92v277l-2 28q-3 28 -15.5 69.5t-42 82.5t-82 69t-135.5 28t-135.5 -28t-82 -69t-42 -82.5t-15.5 -69.5l-2 -28v-277h92v-93h-277v93h92v1294h-92v92h185v-854q40 49 107.5 82t169.5 33q111 0 181 -38t109 -92.5t56 -109.5t21 -92l3 -38v-277h92v-93h-277v93z" />
    <glyph glyph-name="i" unicode="i" horiz-adv-x="477" 
d="M377 93v-93h-277v93h92v554h-92v93h185v-647h92zM285 1017v-93h-93v93h93z" />
    <glyph glyph-name="j" unicode="j" horiz-adv-x="462" 
d="M177 740h185v-93h-93v-739l-1 -19q-2 -19 -10.5 -46.5t-28 -54.5t-54.5 -46t-90 -19q-56 0 -91 19t-54.5 46t-28 54.5t-10.5 46.5l-1 19h92l1 -10q1 -9 5 -22.5t14 -27.5t27.5 -23.5t45.5 -9.5q27 0 44.5 9.5t27.5 23.5t14 27.5t5 22.5l1 10v832zM269 1017v-92h-92v92h92
z" />
    <glyph glyph-name="k" unicode="k" horiz-adv-x="769" 
d="M285 342v-342h-185v92h93v1294h-93v93h185v-1082l187 250h-81v92h278v-92h-84l-208 -277l208 -278h84v-92h-278v92h81z" />
    <glyph glyph-name="l" unicode="l" horiz-adv-x="477" 
d="M284 1479v-1387h93v-92h-185v1386h-92v93h184z" />
    <glyph glyph-name="m" unicode="m" horiz-adv-x="1402" 
d="M377 92v-92h-277v92h92v555h-92v92h185v-62q30 28 75.5 45t109.5 17q62 0 106.5 -16.5t75 -43t49.5 -58.5q18 32 48.5 58.5t75 43t107.5 16.5q83 0 135.5 -28t82 -69t42 -82t15.5 -70l2 -28v-370h93v-92h-278v92h93v370l-2 19q-2 19 -10.5 46.5t-28 54.5t-54.5 46t-90 19
q-56 0 -91 -19t-54.5 -46t-28 -54.5t-9.5 -46.5l-2 -19v-185h-92v185l-2 19q-2 19 -10.5 46.5t-28 54.5t-54.5 46t-90 19q-56 0 -91 -19t-54.5 -46t-28 -54.5t-10.5 -46.5l-1 -19v-370h92z" />
    <glyph glyph-name="n" unicode="n" 
d="M377 92v-92h-277v92h92v555h-92v92h185v-114q40 49 107 81.5t170 32.5q111 0 181 -37.5t109 -92t56 -109.5t20 -93l4 -37v-278h92v-92h-277v92h92v278l-2 28q-3 28 -15.5 69t-42 82t-82 69.5t-135.5 28.5t-135.5 -28.5t-82 -69.5t-42 -82t-15.5 -69l-2 -28v-278h92z" />
    <glyph glyph-name="o" unicode="o" horiz-adv-x="939" 
d="M470 0q-102 0 -186 50t-134 134t-50 186t50 186t134 133.5t186 49.5t186 -49.5t133.5 -133.5t49.5 -186t-49.5 -186t-133.5 -134t-186 -50zM470 647q-115 0 -196.5 -81t-81.5 -196t81.5 -196.5t196.5 -81.5t196 81.5t81 196.5t-81 196t-196 81z" />
    <glyph glyph-name="p" unicode="p" horiz-adv-x="1033" 
d="M563 740q102 0 186 -50t134 -134t50 -186t-50 -186t-134 -134t-186 -50q-83 0 -154.5 33.5t-122.5 92.5v-588h-185v93h92v1016h-92v93h185v-126q51 59 122.5 92.5t154.5 33.5zM563 93q115 0 196 81t81 196t-81 196t-196 81t-196 -81t-81 -196t81 -196t196 -81z" />
    <glyph glyph-name="q" unicode="q" horiz-adv-x="1032" 
d="M932 647h-92v-739h92v-93h-92v-277h-93v277h-92v93h92v217q-51 -58 -122.5 -91.5t-154.5 -33.5q-102 0 -186 50t-134 134t-50 186t50 186t134 133.5t186 49.5q83 0 154.5 -33.5t122.5 -91.5v125h185v-92zM470 92q115 0 196 81.5t81 196.5t-81 196t-196 81t-196 -81
t-81 -196t81 -196.5t196 -81.5z" />
    <glyph glyph-name="r" unicode="r" horiz-adv-x="847" 
d="M469 647q-55 0 -90 -19t-54.5 -46t-28 -54.5t-10.5 -46.5l-1 -19v-370h92v-92h-277v92h92v555h-92v92h185v-62q30 28 75.5 45t108.5 17q84 0 136 -28t81.5 -69t42.5 -82t15 -70l3 -28h-93l-1 19q-2 19 -10.5 46.5t-28 54.5t-54.5 46t-91 19z" />
    <glyph glyph-name="s" unicode="s" horiz-adv-x="662" 
d="M331 739q68 0 119 -25.5t80 -66.5h32v-92h-92q0 27 -14.5 44.5t-35 27.5t-41 14t-34.5 5l-14 1l-14 -1q-14 -1 -34.5 -5t-41 -14t-35 -27.5t-14.5 -44.5q0 -42 22.5 -67.5t58 -42t76.5 -30.5q52 -18 100.5 -42.5t80.5 -68t32 -119.5q0 -46 -29 -88.5t-81 -69.5t-121 -27
q-68 0 -119 26t-80 66h-32v93h92q0 -28 14.5 -45.5t35 -27t41 -14t34.5 -5.5l14 -1l14 1q14 1 34.5 5.5t41 14t35 27t14.5 45.5q0 41 -22 66.5t-57.5 42t-77.5 31.5q-52 17 -100.5 41.5t-80.5 68t-32 120.5q0 46 29 88t81 69t121 27z" />
    <glyph glyph-name="t" unicode="t" horiz-adv-x="570" 
d="M100 1479h93v-740h277v-92h-277v-370q0 -55 19 -90t46 -54.5t54.5 -28t46.5 -10.5l19 -2h92v-92h-92q-83 0 -135.5 28.5t-82 69.5t-42.5 82t-15 69l-3 28v1202z" />
    <glyph glyph-name="u" unicode="u" horiz-adv-x="1125" 
d="M932 739v-647h93v-92h-185v115q-40 -50 -107.5 -82.5t-169.5 -32.5q-111 0 -181 37.5t-109 92.5t-56 109.5t-21 92.5l-3 38v277h-93v92h185v-369l3 -29q2 -28 15 -69t42.5 -82t81.5 -69.5t136 -28.5q83 0 135.5 28.5t81.5 69.5t42 82t15 69l3 29v277h-93v92h185z" />
    <glyph glyph-name="v" unicode="v" horiz-adv-x="950" 
d="M850 739v-92h-86l-243 -647h-92l-243 647h-86v92h278v-92h-89l186 -497l186 497h-88v92h277z" />
    <glyph glyph-name="w" unicode="w" horiz-adv-x="1453" 
d="M378 739v-92h-89l186 -497l186 497h-71v92h277v-92h-75l186 -497l187 497h-89v92h277v-92h-86l-242 -647h-93l-205 548l-206 -548h-92l-243 647h-86v92h278z" />
    <glyph glyph-name="x" unicode="x" horiz-adv-x="878" 
d="M501 647v92h277v-92h-77l-200 -278l200 -277h77v-92h-277v92h87l-144 199l-143 -199h77v-92h-278v92h88l200 277l-200 278h-88v92h278v-92h-77l143 -199l144 199h-87z" />
    <glyph glyph-name="y" unicode="y" horiz-adv-x="950" 
d="M572 648v92h278v-92h-83l-339 -1017h-184v93h122l82 253l-261 671h-87v92h277v-92h-87l206 -524l170 524h-94z" />
    <glyph glyph-name="z" unicode="z" horiz-adv-x="847" 
d="M747 185v-185h-647v92l524 555h-431v-93h-93v185h647v-92l-523 -555h431v93h92z" />
    <glyph glyph-name="braceleft" unicode="{" horiz-adv-x="605" 
d="M555 205l-2 -19q-1 -19 -9.5 -46.5t-28.5 -55t-54.5 -46t-90.5 -18.5q-55 0 -90 18.5t-54.5 46t-28 55t-10.5 46.5l-2 19v369q0 56 -18.5 91t-46 54.5t-55 28t-46.5 10.5l-19 1l19 2q19 2 46.5 10.5t55 28t46 54.5t18.5 90v370l2 19q2 18 10.5 45.5t28 55t54.5 46.5
t90 19q56 0 90.5 -19t54.5 -46.5t28.5 -55t9.5 -45.5l2 -19h-92l-1 9q-1 10 -5.5 23.5t-14 27t-27 23t-45.5 9.5l-9 -1q-10 0 -23.5 -4.5t-27 -14.5t-23 -27.5t-9.5 -44.5v-462l-1 -10q-1 -9 -5 -23t-14 -27.5t-27.5 -23t-45.5 -9.5q28 0 45.5 -9.5t27.5 -23t14 -27t5 -23.5
l1 -9v-462q0 -28 9.5 -45.5t23 -27.5t27 -14t23.5 -5l9 -1q28 0 45.5 9.5t27 23t14 27.5t5.5 23l1 10h92z" />
    <glyph glyph-name="bar" unicode="|" horiz-adv-x="493" 
d="M293 1717v-2203h-93v2203h93z" />
    <glyph glyph-name="braceright" unicode="}" horiz-adv-x="605" 
d="M50 205h92l1 -10q1 -9 5 -23t14 -27.5t27.5 -23t45.5 -9.5l9 1q10 1 23.5 5t27 14t23 27.5t9.5 45.5v462l1 9q1 10 5 23.5t14 27t27.5 23t45.5 9.5q-28 0 -45.5 9.5t-27.5 23t-14 27.5t-5 23l-1 10v462q0 27 -9.5 44.5t-23 27.5t-27 14.5t-23.5 4.5l-9 1
q-28 0 -45.5 -9.5t-27.5 -23t-14 -27t-5 -23.5l-1 -9h-92l2 19q1 18 9.5 45.5t28 55t54.5 46.5t91 19q55 0 90 -19t54.5 -46.5t28 -55t10.5 -45.5l2 -19v-370q0 -55 18.5 -90t46 -54.5t55 -28t46.5 -10.5l18 -2l-18 -1q-19 -2 -46.5 -10.5t-55 -28t-46 -54.5t-18.5 -91v-369
l-2 -19q-2 -19 -10.5 -46.5t-28 -55t-54.5 -46t-90 -18.5q-56 0 -91 18.5t-54.5 46t-28 55t-9.5 46.5z" />
    <glyph glyph-name="asciitilde" unicode="~" horiz-adv-x="624" 
d="M448 383l76 -39q-24 -45 -54 -67t-61 -26q-17 -2 -31 -2h-10q-37 3 -59 12l-16 7l-8 3q-9 4 -23 6l-8 1q-10 0 -20 -2q-15 -2 -30 -13t-28 -33l-76 39q24 45 53.5 67t61.5 26q16 3 31 3l10 -1l16 -2q27 -3 48.5 -11t38.5 -9q32 0 52 8q24 10 37 33z" />
    <glyph glyph-name="uni007F" horiz-adv-x="819" 
 />
    <glyph glyph-name="uni0080" horiz-adv-x="819" 
 />
    <glyph glyph-name="uni0081" horiz-adv-x="819" 
 />
    <glyph glyph-name="uni0082" horiz-adv-x="819" 
 />
    <glyph glyph-name="uni0083" horiz-adv-x="819" 
 />
    <glyph glyph-name="uni0084" horiz-adv-x="819" 
 />
    <glyph glyph-name="uni0085" unicode="&#x85;" horiz-adv-x="819" 
 />
    <glyph glyph-name="uni0086" horiz-adv-x="819" 
 />
    <glyph glyph-name="uni0087" horiz-adv-x="819" 
 />
    <glyph glyph-name="uni0088" horiz-adv-x="819" 
 />
    <glyph glyph-name="uni0089" horiz-adv-x="819" 
 />
    <glyph glyph-name="uni008A" horiz-adv-x="819" 
 />
    <glyph glyph-name="uni008B" horiz-adv-x="819" 
 />
    <glyph glyph-name="uni008C" horiz-adv-x="819" 
 />
    <glyph glyph-name="uni008D" horiz-adv-x="819" 
 />
    <glyph glyph-name="uni008E" horiz-adv-x="819" 
 />
    <glyph glyph-name="uni008F" horiz-adv-x="819" 
 />
    <glyph glyph-name="uni0090" horiz-adv-x="819" 
 />
    <glyph glyph-name="uni0091" horiz-adv-x="819" 
 />
    <glyph glyph-name="uni0092" horiz-adv-x="819" 
 />
    <glyph glyph-name="uni0093" horiz-adv-x="819" 
 />
    <glyph glyph-name="uni0094" horiz-adv-x="819" 
 />
    <glyph glyph-name="uni0095" horiz-adv-x="819" 
 />
    <glyph glyph-name="uni0096" horiz-adv-x="819" 
 />
    <glyph glyph-name="uni0097" horiz-adv-x="819" 
 />
    <glyph glyph-name="uni0098" horiz-adv-x="819" 
 />
    <glyph glyph-name="uni0099" horiz-adv-x="819" 
 />
    <glyph glyph-name="uni009A" horiz-adv-x="819" 
 />
    <glyph glyph-name="uni009B" horiz-adv-x="819" 
 />
    <glyph glyph-name="uni009C" horiz-adv-x="819" 
 />
    <glyph glyph-name="uni009D" horiz-adv-x="819" 
 />
    <glyph glyph-name="uni009E" horiz-adv-x="819" 
 />
    <glyph glyph-name="uni009F" horiz-adv-x="819" 
 />
    <glyph glyph-name="exclamdown" unicode="&#xa1;" horiz-adv-x="192" 
d="M142.003 463.017v-1201.93h-91.9941v1201.93h91.9941zM142.003 740v-91.9941h-91.9941v91.9941h91.9941z" />
    <glyph glyph-name="cent" unicode="&#xa2;" horiz-adv-x="754" 
d="M521 0v-161h-92v163q-79 8 -146 48q-84 50 -133.5 134t-49.5 186t49.5 186t133.5 134q67 40 146 48v168h92v-166h133v-185h-92v92h-93q-115 0 -196 -81t-81 -196t81 -196t196 -81h185v-93h-133z" />
    <glyph glyph-name="sterling" unicode="&#xa3;" horiz-adv-x="1014" 
 />
    <glyph glyph-name="currency" unicode="&#xa4;" horiz-adv-x="1014" 
 />
    <glyph glyph-name="yen" unicode="&#xa5;" horiz-adv-x="1038" 
d="M702.63 1386v93h235.443v-93h-69.6982l-310.24 -647v-647h79.0469v-92h-236.293v92h79.0479v647l-311.091 647h-68.8477v93h235.442v-93h-70.5479l254.143 -544l253.293 544h-69.6982zM242 277v93h554v-93h-554zM242 463v93h554v-93h-554z" />
    <glyph glyph-name="brokenbar" unicode="&#xa6;" horiz-adv-x="493" 
d="M293 276v-687h-93v687h93zM293 1434v-687h-93v687h93z" />
    <glyph glyph-name="section" unicode="&#xa7;" horiz-adv-x="1014" 
 />
    <glyph glyph-name="dieresis" unicode="&#xa8;" horiz-adv-x="573" 
d="M380 984v92h93v-92h-93zM100 983v92h93v-92h-93z" />
    <glyph glyph-name="copyright" unicode="&#xa9;" horiz-adv-x="1096" 
d="M571 310q-80 0 -145 38.5t-102.5 102t-37.5 139.5t37.5 139.5t102.5 102t145 38.5h155v-170h-115v65h-40q-69 0 -119.5 -50.5t-50.5 -124.5t50.5 -124.5t119.5 -50.5h155v-105h-155zM547 1010q-87 0 -172 -52.5t-135 -154.5t-50 -215t49 -213.5t134 -154.5t174 -54
q91 0 176 54t134 154.5t49 213.5t-50.5 215t-135.5 154.5t-173 52.5zM547 1100q113 0 220.5 -66t168 -189t60.5 -257t-59 -255t-165.5 -189t-224.5 -68q-116 0 -222.5 68t-165.5 189t-59 255t60 257t167 189t220 66z" />
    <glyph glyph-name="ordfeminine" unicode="&#xaa;" horiz-adv-x="648" 
 />
    <glyph glyph-name="guillemotleft" unicode="&#xab;" horiz-adv-x="736" 
d="M100 407l172 407h113l-172 -407l172 -407h-113zM351 407l172 407h113l-172 -407l172 -407h-113z" />
    <glyph glyph-name="logicalnot" unicode="&#xac;" horiz-adv-x="1280" 
d="M1180 835v-462h-185v93h93v277h-895v-92h-93v277h93v-93h987z" />
    <glyph glyph-name="registered" unicode="&#xae;" horiz-adv-x="1096" 
d="M584 566l10 1q6 1 17.5 5.5t23.5 16.5t21 35t9 61q0 37 -11.5 59t-28.5 34.5t-34 17.5t-28 6l-13 1h-79v-237h113zM723 362h39v-70h-146v70h22l-57 134h-110v-134h34v-70h-146v70h34v441h-34v70h193l13 -1q15 -1 37 -6t46 -16.5t46 -33.5t36 -54t14 -77q0 -42 -9.5 -72.5
t-25 -51.5t-33.5 -34l-18 -14zM547 1010q-87 0 -172 -52.5t-135 -154.5t-50 -215t49 -213.5t134 -154.5t174 -54q91 0 176 54t134 154.5t49 213.5t-50.5 215t-135.5 154.5t-173 52.5zM547 1100q113 0 220.5 -66t168 -189t60.5 -257t-59 -255t-165.5 -189t-224.5 -68
q-116 0 -222.5 68t-165.5 189t-59 255t60 257t167 189t220 66z" />
    <glyph glyph-name="macron" unicode="&#xaf;" horiz-adv-x="755" 
d="M100 1360v92h555v-92h-555z" />
    <glyph glyph-name="degree" unicode="&#xb0;" horiz-adv-x="583" 
d="M291 693q-52 0 -95.5 25.5t-69.5 69t-26 96.5t26 96.5t69.5 69.5t95.5 26q53 0 96.5 -26t69.5 -69.5t26 -96.5t-26 -96.5t-69.5 -69t-96.5 -25.5zM291 984q-41 0 -70.5 -29t-29.5 -71q0 -41 29.5 -70.5t70.5 -29.5q42 0 71 29.5t29 70.5q0 42 -29 71t-71 29z" />
    <glyph glyph-name="plusminus" unicode="&#xb1;" horiz-adv-x="754" 
d="M331 639h-231v93h231v231h92v-231h231v-93h-231v-231h-92v231zM100 161v93h554v-93h-554z" />
    <glyph glyph-name="uni00B2" unicode="&#xb2;" horiz-adv-x="1014" 
 />
    <glyph glyph-name="uni00B3" unicode="&#xb3;" horiz-adv-x="1014" 
 />
    <glyph glyph-name="acute" unicode="&#xb4;" horiz-adv-x="385" 
d="M101 891l92 185h93l-93 -185h-92z" />
    <glyph glyph-name="mu" unicode="&#xb5;" horiz-adv-x="1180" 
 />
    <glyph glyph-name="paragraph" unicode="&#xb6;" horiz-adv-x="1024" 
 />
    <glyph glyph-name="periodcentered" unicode="&#xb7;" horiz-adv-x="279" 
d="M99.499 701v78.1973h79.0479v-78.1973h-79.0479z" />
    <glyph glyph-name="periodcentered" unicode="&#x2219;" horiz-adv-x="279" 
d="M99.499 701v78.1973h79.0479v-78.1973h-79.0479z" />
    <glyph glyph-name="cedilla" unicode="&#xb8;" horiz-adv-x="477" 
d="M285 -41v93h93v-93l-2 -19q-2 -19 -10.5 -46t-28 -54.5t-54.5 -46.5t-90 -19h-93v93h93l9 1q10 0 23.5 4.5t27 14t23 27t9.5 45.5z" />
    <glyph glyph-name="uni00B9" unicode="&#xb9;" horiz-adv-x="1014" 
 />
    <glyph glyph-name="ordmasculine" unicode="&#xba;" horiz-adv-x="583" 
d="M291 693q-52 0 -95.5 25.5t-69.5 69t-26 96.5t26 96.5t69.5 69.5t95.5 26q53 0 96.5 -26t69.5 -69.5t26 -96.5t-26 -96.5t-69.5 -69t-96.5 -25.5zM291 984q-41 0 -70.5 -29t-29.5 -71q0 -41 29.5 -70.5t70.5 -29.5q42 0 71 29.5t29 70.5q0 42 -29 71t-71 29z" />
    <glyph glyph-name="guillemotright" unicode="&#xbb;" horiz-adv-x="736" 
d="M385 407l-172 -407h-113l172 407l-172 407h113zM636 407l-172 -407h-113l172 407l-172 407h113z" />
    <glyph glyph-name="onequarter" unicode="&#xbc;" horiz-adv-x="1708" 
 />
    <glyph glyph-name="onehalf" unicode="&#xbd;" horiz-adv-x="1964" 
 />
    <glyph glyph-name="threequarters" unicode="&#xbe;" horiz-adv-x="1708" 
 />
    <glyph glyph-name="questiondown" unicode="&#xbf;" horiz-adv-x="754" 
d="M377.023 -738.91q-92.9951 0 -154.491 53.9971t-91.9941 138.991q-30.498 84.9951 -30.498 176.989q0 110.993 27.998 180.989t68.9961 108.993q40.9971 38.998 81.9951 55.9971q40.9971 16.999 69.9951 19.998l27.999 4v461.972h91.9941v-554.966h-91.9941l-18.999 -2
q-18.999 -3 -46.4971 -15.499q-27.499 -12.499 -54.4971 -41.9971t-45.9971 -81.9951t-18.999 -135.492q0 -91.9941 26.998 -153.99q26.999 -61.9961 69.4961 -92.4941t88.4951 -30.498q54.9961 0 89.9941 18.998q34.998 18.999 54.4971 45.998
q19.498 26.998 27.998 54.4961q8.49902 27.498 10.499 46.4971l2 18.999h91.9941l-2 -28.998q-2.99902 -27.998 -15.499 -68.9961q-12.499 -40.9971 -41.9971 -81.9951q-29.498 -40.9971 -81.9951 -69.4951q-52.4971 -28.499 -135.491 -28.499zM469.018 740v-91.9941
h-91.9941v91.9941h91.9941z" />
    <glyph glyph-name="Agrave" unicode="&#xc0;" horiz-adv-x="1248" 
d="M377 93v-93h-277v93h85l323 1294h-69v92h277l347 -1386h85v-93h-278v93h100l-115 462h-462l-116 -462h100zM601 1387l-185 -740h416l-185 740h-46zM686 1630h-92l-93 185h93z" />
    <glyph glyph-name="Aacute" unicode="&#xc1;" horiz-adv-x="1248" 
d="M377 93v-93h-277v93h85l323 1294h-69v92h277l347 -1386h85v-93h-278v93h100l-115 462h-462l-116 -462h100zM601 1387l-185 -740h416l-185 740h-46zM562 1630l92 185h93l-93 -185h-92z" />
    <glyph glyph-name="Acircumflex" unicode="&#xc2;" horiz-adv-x="1248" 
d="M377 93v-93h-277v93h85l323 1294h-69v92h277l347 -1386h85v-93h-278v93h100l-115 462h-462l-116 -462h100zM601 1387l-185 -740h416l-185 740h-46zM578 1815h92l93 -185h-93l-46 93l-46 -93h-92z" />
    <glyph glyph-name="Atilde" unicode="&#xc3;" horiz-adv-x="1248" 
d="M377 93v-93h-277v93h85l323 1294h-69v92h277l347 -1386h85v-93h-278v93h100l-115 462h-462l-116 -462h100zM601 1387l-185 -740h416l-185 740h-46zM760 1815l76 -39q-24 -45 -54 -67t-61 -26q-16 -2 -31 -2h-10q-37 3 -59 12l-16 7l-8 3q-9 4 -23 6l-8 1q-10 0 -20 -2
q-15 -2 -30 -13t-28 -33l-76 39q24 45 53.5 67t61.5 26q17 2 31 2h10l16 -2q27 -3 48.5 -11t38.5 -9q32 0 52 8q24 10 37 33z" />
    <glyph glyph-name="Adieresis" unicode="&#xc4;" horiz-adv-x="1248" 
d="M377 93v-93h-277v93h85l323 1294h-69v92h277l347 -1386h85v-93h-278v93h100l-115 462h-462l-116 -462h100zM601 1387l-185 -740h416l-185 740h-46zM718 1723v92h93v-92h-93zM438 1722v92h93v-92h-93z" />
    <glyph glyph-name="Aring" unicode="&#xc5;" horiz-adv-x="1248" 
d="M377 93v-93h-277v93h85l323 1294h-69v92h277l347 -1386h85v-93h-278v93h100l-115 462h-462l-116 -462h100zM601 1387l-185 -740h416l-185 740h-46zM624 1432q-52 0 -95.5 25.5t-69.5 69t-26 96.5t26 96.5t69.5 69.5t95.5 26q53 0 96.5 -26t69.5 -69.5t26 -96.5t-26 -96.5
t-69.5 -69t-96.5 -25.5zM624 1723q-41 0 -70.5 -29t-29.5 -71q0 -41 29.5 -70.5t70.5 -29.5q42 0 71 29.5t29 70.5q0 42 -29 71t-71 29z" />
    <glyph glyph-name="AE" unicode="&#xc6;" horiz-adv-x="1762" 
d="M738 647v740h-137l-185 -740h322zM831 555v-462h739v92h92v-185h-1016v93h92v462h-345l-116 -462h100v-93h-277v93h85l323 1294h-69v92h1223v-185h-92v93h-739v-740h740v-92h-740z" />
    <glyph glyph-name="Ccedilla" unicode="&#xc7;" 
d="M839 0q-204 0 -372 100t-267.5 267.5t-99.5 372.5q0 204 99.5 371.5t267.5 267.5t372 100h185v-185h-92v93h-93q-178 0 -325 -87.5t-234.5 -234.5t-87.5 -325q0 -179 87.5 -326t234.5 -234t325 -87h93v92h92v-185h-185zM805 -41v93h93v-93l-2 -19q-2 -19 -10.5 -46
t-28 -54.5t-54.5 -46.5t-90 -19h-93v93h93l9 1q10 0 23.5 4.5t27 14t23 27t9.5 45.5z" />
    <glyph glyph-name="Egrave" unicode="&#xc8;" horiz-adv-x="1216" 
d="M1116 0h-1016v93h92v1294h-92v92h1016v-185h-92v93h-739v-647h739v-93h-739v-554h739v92h92v-185zM670 1630h-92l-93 185h93z" />
    <glyph glyph-name="Eacute" unicode="&#xc9;" horiz-adv-x="1216" 
d="M1116 0h-1016v93h92v1294h-92v92h1016v-185h-92v93h-739v-647h739v-93h-739v-554h739v92h92v-185zM546 1630l92 185h93l-93 -185h-92z" />
    <glyph glyph-name="Ecircumflex" unicode="&#xca;" horiz-adv-x="1216" 
d="M1116 0h-1016v93h92v1294h-92v92h1016v-185h-92v93h-739v-647h739v-93h-739v-554h739v92h92v-185zM562 1815h92l93 -185h-93l-46 93l-46 -93h-92z" />
    <glyph glyph-name="Edieresis" unicode="&#xcb;" horiz-adv-x="1216" 
d="M1116 0h-1016v93h92v1294h-92v92h1016v-185h-92v93h-739v-647h739v-93h-739v-554h739v92h92v-185zM702 1723v92h93v-92h-93zM422 1722v92h93v-92h-93z" />
    <glyph glyph-name="Igrave" unicode="&#xcc;" horiz-adv-x="477" 
d="M377 93v-93h-277v93h92v1294h-92v92h277v-92h-92v-1294h92zM300 1630h-92l-93 185h93z" />
    <glyph glyph-name="Iacute" unicode="&#xcd;" horiz-adv-x="477" 
d="M377 93v-93h-277v93h92v1294h-92v92h277v-92h-92v-1294h92zM177 1630l92 185h93l-93 -185h-92z" />
    <glyph glyph-name="Icircumflex" unicode="&#xce;" horiz-adv-x="477" 
d="M377 93v-93h-277v93h92v1294h-92v92h277v-92h-92v-1294h92zM193 1815h92l93 -185h-93l-46 93l-46 -93h-92z" />
    <glyph glyph-name="Idieresis" unicode="&#xcf;" horiz-adv-x="477" 
d="M377 93v-93h-277v93h92v1294h-92v92h277v-92h-92v-1294h92zM333 1723v92h93v-92h-93zM53 1722v92h93v-92h-93z" />
    <glyph glyph-name="Eth" unicode="&#xd0;" horiz-adv-x="1216" 
d="M562 0h-462v93h92v1294h-92v92h462l40 -4q41 -4 103.5 -23.5t133.5 -65t133.5 -126.5t103 -208.5t40.5 -311.5q0 -185 -40.5 -312t-103 -208.5t-133.5 -127t-133.5 -65t-103.5 -23.5zM284 1387v-1294h278l33 3q34 3 86.5 20.5t111.5 57t111 110.5t86 182.5t34 273.5
q0 161 -34 272.5t-86 182.5t-111 110.5t-111.5 57t-86.5 20.5l-33 4h-278zM100 693v93h554v-93h-554z" />
    <glyph glyph-name="Ntilde" unicode="&#xd1;" horiz-adv-x="1217" 
d="M1117 1386h-92v-1294h92v-92h-185l-647 1273v-1181h93v-92h-278v92h93v1294h-93v93h185l647 -1274v1274h185v-93zM745 1815l76 -39q-24 -45 -54 -67t-61 -26q-16 -2 -31 -2h-10q-37 3 -59 12l-16 7l-8 3q-9 4 -23 6l-8 1q-10 0 -20 -2q-15 -2 -30 -13t-28 -33l-76 39
q24 45 53.5 67t61.5 26q17 2 31 2h10l16 -2q27 -3 48.5 -11t38.5 -9q32 0 52 8q24 10 37 33z" />
    <glyph glyph-name="Ograve" unicode="&#xd2;" horiz-adv-x="1217" 
d="M609 1479q140 0 255.5 -100t184 -267.5t68.5 -372.5q0 -204 -68.5 -371.5t-184 -267.5t-255.5 -100q-141 0 -256 100t-184 267.5t-69 371.5q0 205 69 372.5t184 267.5t256 100zM609 92q115 0 209 87.5t150.5 234.5t56.5 325q0 179 -56.5 326t-150.5 234t-209 87
t-209.5 -87t-150.5 -234t-56 -326q0 -178 56 -325t150.5 -234.5t209.5 -87.5zM670 1630h-92l-93 185h93z" />
    <glyph glyph-name="Oacute" unicode="&#xd3;" horiz-adv-x="1217" 
d="M609 1479q140 0 255.5 -100t184 -267.5t68.5 -372.5q0 -204 -68.5 -371.5t-184 -267.5t-255.5 -100q-141 0 -256 100t-184 267.5t-69 371.5q0 205 69 372.5t184 267.5t256 100zM609 92q115 0 209 87.5t150.5 234.5t56.5 325q0 179 -56.5 326t-150.5 234t-209 87
t-209.5 -87t-150.5 -234t-56 -326q0 -178 56 -325t150.5 -234.5t209.5 -87.5zM547 1630l92 185h93l-93 -185h-92z" />
    <glyph glyph-name="Ocircumflex" unicode="&#xd4;" horiz-adv-x="1217" 
d="M609 1479q140 0 255.5 -100t184 -267.5t68.5 -372.5q0 -204 -68.5 -371.5t-184 -267.5t-255.5 -100q-141 0 -256 100t-184 267.5t-69 371.5q0 205 69 372.5t184 267.5t256 100zM609 92q115 0 209 87.5t150.5 234.5t56.5 325q0 179 -56.5 326t-150.5 234t-209 87
t-209.5 -87t-150.5 -234t-56 -326q0 -178 56 -325t150.5 -234.5t209.5 -87.5zM563 1815h92l93 -185h-93l-46 93l-46 -93h-92z" />
    <glyph glyph-name="Otilde" unicode="&#xd5;" horiz-adv-x="1217" 
d="M609 1479q140 0 255.5 -100t184 -267.5t68.5 -372.5q0 -204 -68.5 -371.5t-184 -267.5t-255.5 -100q-141 0 -256 100t-184 267.5t-69 371.5q0 205 69 372.5t184 267.5t256 100zM609 92q115 0 209 87.5t150.5 234.5t56.5 325q0 179 -56.5 326t-150.5 234t-209 87
t-209.5 -87t-150.5 -234t-56 -326q0 -178 56 -325t150.5 -234.5t209.5 -87.5zM745 1815l76 -39q-24 -45 -54 -67t-61 -26q-16 -2 -31 -2h-10q-37 3 -59 12l-16 7l-8 3q-9 4 -23 6l-8 1q-10 0 -20 -2q-15 -2 -30 -13t-28 -33l-76 39q24 45 53.5 67t61.5 26q17 2 31 2h10
l16 -2q27 -3 48.5 -11t38.5 -9q32 0 52 8q24 10 37 33z" />
    <glyph glyph-name="Odieresis" unicode="&#xd6;" horiz-adv-x="1217" 
d="M609 1479q140 0 255.5 -100t184 -267.5t68.5 -372.5q0 -204 -68.5 -371.5t-184 -267.5t-255.5 -100q-141 0 -256 100t-184 267.5t-69 371.5q0 205 69 372.5t184 267.5t256 100zM609 92q115 0 209 87.5t150.5 234.5t56.5 325q0 179 -56.5 326t-150.5 234t-209 87
t-209.5 -87t-150.5 -234t-56 -326q0 -178 56 -325t150.5 -234.5t209.5 -87.5zM702 1723v92h93v-92h-93zM422 1722v92h93v-92h-93z" />
    <glyph glyph-name="multiply" unicode="&#xd7;" horiz-adv-x="558" 
d="M214 293l-164 163l66 66l163 -163l164 163l65 -65l-164 -163l164 -163l-66 -66l-163 163l-164 -163l-65 65z" />
    <glyph glyph-name="Oslash" unicode="&#xd8;" horiz-adv-x="1217" 
d="M609 1479q140 0 255.5 -100t184 -267.5t68.5 -372.5q0 -204 -68.5 -371.5t-184 -267.5t-255.5 -100q-141 0 -256 100t-184 267.5t-69 371.5q0 205 69 372.5t184 267.5t256 100zM609 92q115 0 209 87.5t150.5 234.5t56.5 325q0 179 -56.5 326t-150.5 234t-209 87
t-209.5 -87t-150.5 -234t-56 -326q0 -178 56 -325t150.5 -234.5t209.5 -87.5zM239 0l626 1479h113l-626 -1479h-113z" />
    <glyph glyph-name="Ugrave" unicode="&#xd9;" 
d="M746 1386v93h278v-93h-93v-1016l-3 -38q-3 -38 -20 -92.5t-56.5 -109.5t-109 -92.5t-180.5 -37.5t-181 37.5t-109 92.5t-56 109.5t-21 92.5l-3 38v1016h-92v93h277v-93h-93v-1016l3 -29q2 -28 15 -69t42.5 -82t81.5 -69.5t136 -28.5q83 0 135.5 28.5t81.5 69.5t42 82
t15 69l3 29v1016h-93zM624 1630h-92l-93 185h93z" />
    <glyph glyph-name="Uacute" unicode="&#xda;" 
d="M746 1386v93h278v-93h-93v-1016l-3 -38q-3 -38 -20 -92.5t-56.5 -109.5t-109 -92.5t-180.5 -37.5t-181 37.5t-109 92.5t-56 109.5t-21 92.5l-3 38v1016h-92v93h277v-93h-93v-1016l3 -29q2 -28 15 -69t42.5 -82t81.5 -69.5t136 -28.5q83 0 135.5 28.5t81.5 69.5t42 82
t15 69l3 29v1016h-93zM500 1630l92 185h93l-93 -185h-92z" />
    <glyph glyph-name="Ucircumflex" unicode="&#xdb;" 
d="M746 1386v93h278v-93h-93v-1016l-3 -38q-3 -38 -20 -92.5t-56.5 -109.5t-109 -92.5t-180.5 -37.5t-181 37.5t-109 92.5t-56 109.5t-21 92.5l-3 38v1016h-92v93h277v-93h-93v-1016l3 -29q2 -28 15 -69t42.5 -82t81.5 -69.5t136 -28.5q83 0 135.5 28.5t81.5 69.5t42 82
t15 69l3 29v1016h-93zM516 1815h92l93 -185h-93l-46 93l-46 -93h-92z" />
    <glyph glyph-name="Udieresis" unicode="&#xdc;" 
d="M746 1386v93h278v-93h-93v-1016l-3 -38q-3 -38 -20 -92.5t-56.5 -109.5t-109 -92.5t-180.5 -37.5t-181 37.5t-109 92.5t-56 109.5t-21 92.5l-3 38v1016h-92v93h277v-93h-93v-1016l3 -29q2 -28 15 -69t42.5 -82t81.5 -69.5t136 -28.5q83 0 135.5 28.5t81.5 69.5t42 82
t15 69l3 29v1016h-93zM656 1723v92h93v-92h-93zM376 1722v92h93v-92h-93z" />
    <glyph glyph-name="Yacute" unicode="&#xdd;" horiz-adv-x="1186" 
d="M809 1386v93h277v-93h-82l-365 -647v-647h93v-92h-278v92h93v647l-366 647h-81v93h277v-93h-83l299 -544l298 544h-82zM531 1630l92 185h93l-93 -185h-92z" />
    <glyph glyph-name="Thorn" unicode="&#xde;" horiz-adv-x="1217" 
d="M285 1279h462l38 -4q37 -3 92 -20t109.5 -56t92.5 -109t38 -181t-38 -181t-92.5 -109t-109.5 -56t-92 -20l-38 -4h-462v-647h92v-92h-277v92h93l-1 1495h-92v92h277v-92h-92v-108zM285 632h462l28 2q29 3 70 15.5t82 42t69 82t28 135.5t-28 135.5t-69 82t-82 42t-70 15.5
l-28 2h-462v-554z" />
    <glyph glyph-name="germandbls" unicode="&#xdf;" horiz-adv-x="1251" 
 />
    <glyph glyph-name="agrave" unicode="&#xe0;" horiz-adv-x="1031" 
d="M469 0q-102 0 -186 50t-133.5 134t-49.5 186t49.5 186t133.5 134t186 50q83 0 154.5 -33.5t123.5 -92.5v126h184v-93h-92v-554h92v-93h-184v126q-52 -59 -123.5 -92.5t-154.5 -33.5zM469 647q-115 0 -196 -81t-81 -196t81 -196t196 -81t196.5 81t81.5 196t-81.5 196
t-196.5 81zM577 891h-92l-93 185h93z" />
    <glyph glyph-name="aacute" unicode="&#xe1;" horiz-adv-x="1031" 
d="M469 0q-102 0 -186 50t-133.5 134t-49.5 186t49.5 186t133.5 134t186 50q83 0 154.5 -33.5t123.5 -92.5v126h184v-93h-92v-554h92v-93h-184v126q-52 -59 -123.5 -92.5t-154.5 -33.5zM469 647q-115 0 -196 -81t-81 -196t81 -196t196 -81t196.5 81t81.5 196t-81.5 196
t-196.5 81zM454 891l92 185h93l-93 -185h-92z" />
    <glyph glyph-name="acircumflex" unicode="&#xe2;" horiz-adv-x="1031" 
d="M469 0q-102 0 -186 50t-133.5 134t-49.5 186t49.5 186t133.5 134t186 50q83 0 154.5 -33.5t123.5 -92.5v126h184v-93h-92v-554h92v-93h-184v126q-52 -59 -123.5 -92.5t-154.5 -33.5zM469 647q-115 0 -196 -81t-81 -196t81 -196t196 -81t196.5 81t81.5 196t-81.5 196
t-196.5 81zM469 1076h92l93 -185h-93l-46 93l-46 -93h-92z" />
    <glyph glyph-name="atilde" unicode="&#xe3;" horiz-adv-x="1031" 
d="M469 0q-102 0 -186 50t-133.5 134t-49.5 186t49.5 186t133.5 134t186 50q83 0 154.5 -33.5t123.5 -92.5v126h184v-93h-92v-554h92v-93h-184v126q-52 -59 -123.5 -92.5t-154.5 -33.5zM469 647q-115 0 -196 -81t-81 -196t81 -196t196 -81t196.5 81t81.5 196t-81.5 196
t-196.5 81zM652 1076l76 -39q-24 -45 -54 -67t-61 -26q-16 -2 -31 -2h-10q-37 3 -59 12l-16 7l-8 3q-9 4 -23 6l-8 1q-10 0 -20 -2q-15 -2 -30 -13t-28 -33l-76 39q24 45 53.5 67t61.5 26q17 2 31 2h10l16 -2q27 -3 48.5 -11t38.5 -9q32 0 52 8q24 10 37 33z" />
    <glyph glyph-name="adieresis" unicode="&#xe4;" horiz-adv-x="1031" 
d="M469 0q-102 0 -186 50t-133.5 134t-49.5 186t49.5 186t133.5 134t186 50q83 0 154.5 -33.5t123.5 -92.5v126h184v-93h-92v-554h92v-93h-184v126q-52 -59 -123.5 -92.5t-154.5 -33.5zM469 647q-115 0 -196 -81t-81 -196t81 -196t196 -81t196.5 81t81.5 196t-81.5 196
t-196.5 81zM609 984v92h93v-92h-93zM329 983v92h93v-92h-93z" />
    <glyph glyph-name="aring" unicode="&#xe5;" horiz-adv-x="1031" 
d="M469 0q-102 0 -186 50t-133.5 134t-49.5 186t49.5 186t133.5 134t186 50q83 0 154.5 -33.5t123.5 -92.5v126h184v-93h-92v-554h92v-93h-184v126q-52 -59 -123.5 -92.5t-154.5 -33.5zM469 647q-115 0 -196 -81t-81 -196t81 -196t196 -81t196.5 81t81.5 196t-81.5 196
t-196.5 81zM478 693q-52 0 -95.5 25.5t-69.5 69t-26 96.5t26 96.5t69.5 69.5t95.5 26q53 0 96.5 -26t69.5 -69.5t26 -96.5t-26 -96.5t-69.5 -69t-96.5 -25.5zM478 984q-41 0 -70.5 -29t-29.5 -71q0 -41 29.5 -70.5t70.5 -29.5q42 0 71 29.5t29 70.5q0 42 -29 71t-71 29z" />
    <glyph glyph-name="ae" unicode="&#xe6;" horiz-adv-x="1494" 
d="M1083 647q-91 0 -150 -51.5t-81 -133.5h450q0 46 -28.5 88.5t-78 69.5t-112.5 27zM469 647q-115 0 -196 -81t-81 -196t81 -196t196 -81t196.5 81t81.5 196t-81.5 196t-196.5 81zM839 125v-125h-92v126q-52 -59 -123.5 -92.5t-154.5 -33.5q-102 0 -186 50t-133.5 134
t-49.5 186t49.5 186t133.5 134t186 50q83 0 154.5 -33.5t123.5 -92.5v126h92v-109q29 33 67 58q75 50 177 50q82 0 141 -30t96.5 -74t55.5 -91.5t18 -81.5v-93h-554q0 -115 81 -196t196 -81t196 81l65 -65q-50 -51 -117 -79.5t-144 -28.5q-102 0 -186 50q-53 31 -92 75z" />
    <glyph glyph-name="ccedilla" unicode="&#xe7;" horiz-adv-x="755" 
d="M470 0q-102 0 -186 50t-134 134t-50 186t50 186t134 134t186 50h185v-185h-93v92h-92q-115 0 -196 -81t-81 -196t81 -196t196 -81h185v-93h-185zM502 -41v93h93v-93l-2 -19q-2 -19 -10.5 -46t-28 -54.5t-54.5 -46.5t-90 -19h-93v93h93l9 1q10 0 23.5 4.5t27 14t23 27
t9.5 45.5z" />
    <glyph glyph-name="egrave" unicode="&#xe8;" horiz-adv-x="847" 
d="M470 0q-103 0 -186.5 50t-133.5 134t-50 186t41.5 186t116.5 134t177 50q82 0 141 -30t97 -74.5t56 -91.5t18 -82v-92h-555q0 -115 81.5 -196t196.5 -81q114 0 196 81l65 -65q-51 -51 -118 -80t-143 -29zM435 647q-90 0 -149.5 -51t-81.5 -134h450q0 47 -28 89t-77.5 69
t-113.5 27zM485 891h-92l-93 185h93z" />
    <glyph glyph-name="eacute" unicode="&#xe9;" horiz-adv-x="847" 
d="M470 0q-103 0 -186.5 50t-133.5 134t-50 186t41.5 186t116.5 134t177 50q82 0 141 -30t97 -74.5t56 -91.5t18 -82v-92h-555q0 -115 81.5 -196t196.5 -81q114 0 196 81l65 -65q-51 -51 -118 -80t-143 -29zM435 647q-90 0 -149.5 -51t-81.5 -134h450q0 47 -28 89t-77.5 69
t-113.5 27zM362 891l92 185h93l-93 -185h-92z" />
    <glyph glyph-name="ecircumflex" unicode="&#xea;" horiz-adv-x="847" 
d="M470 0q-103 0 -186.5 50t-133.5 134t-50 186t41.5 186t116.5 134t177 50q82 0 141 -30t97 -74.5t56 -91.5t18 -82v-92h-555q0 -115 81.5 -196t196.5 -81q114 0 196 81l65 -65q-51 -51 -118 -80t-143 -29zM435 647q-90 0 -149.5 -51t-81.5 -134h450q0 47 -28 89t-77.5 69
t-113.5 27zM377 1076h92l93 -185h-93l-46 93l-46 -93h-92z" />
    <glyph glyph-name="edieresis" unicode="&#xeb;" horiz-adv-x="847" 
d="M470 0q-103 0 -186.5 50t-133.5 134t-50 186t41.5 186t116.5 134t177 50q82 0 141 -30t97 -74.5t56 -91.5t18 -82v-92h-555q0 -115 81.5 -196t196.5 -81q114 0 196 81l65 -65q-51 -51 -118 -80t-143 -29zM435 647q-90 0 -149.5 -51t-81.5 -134h450q0 47 -28 89t-77.5 69
t-113.5 27zM517 984v92h93v-92h-93zM237 983v92h93v-92h-93z" />
    <glyph glyph-name="igrave" unicode="&#xec;" horiz-adv-x="477" 
d="M377 93v-93h-277v93h92v554h-92v93h185v-647h92zM300 891h-92l-93 185h93z" />
    <glyph glyph-name="iacute" unicode="&#xed;" horiz-adv-x="477" 
d="M377 93v-93h-277v93h92v554h-92v93h185v-647h92zM177 891l92 185h93l-93 -185h-92z" />
    <glyph glyph-name="icircumflex" unicode="&#xee;" horiz-adv-x="477" 
d="M377 93v-93h-277v93h92v554h-92v93h185v-647h92zM193 1076h92l93 -185h-93l-46 93l-46 -93h-92z" />
    <glyph glyph-name="idieresis" unicode="&#xef;" horiz-adv-x="477" 
d="M377 93v-93h-277v93h92v554h-92v93h185v-647h92zM333 984v92h93v-92h-93zM53 983v92h93v-92h-93z" />
    <glyph glyph-name="eth" unicode="&#xf0;" horiz-adv-x="1139" 
 />
    <glyph glyph-name="ntilde" unicode="&#xf1;" 
d="M377 92v-92h-277v92h92v555h-92v92h185v-114q40 49 107 81.5t170 32.5q111 0 181 -37.5t109 -92t56 -109.5t20 -93l4 -37v-278h92v-92h-277v92h92v278l-2 28q-3 28 -15.5 69t-42 82t-82 69.5t-135.5 28.5t-135.5 -28.5t-82 -69.5t-42 -82t-15.5 -69l-2 -28v-278h92z
M698 1076l76 -39q-24 -45 -54 -67t-61 -26q-16 -2 -31 -2h-10q-37 3 -59 12l-16 7l-8 3q-9 4 -23 6l-8 1q-10 0 -20 -2q-15 -2 -30 -13t-28 -33l-76 39q24 45 53.5 67t61.5 26q17 2 31 2h10l16 -2q27 -3 48.5 -11t38.5 -9q32 0 52 8q24 10 37 33z" />
    <glyph glyph-name="ograve" unicode="&#xf2;" horiz-adv-x="939" 
d="M470 0q-102 0 -186 50t-134 134t-50 186t50 186t134 133.5t186 49.5t186 -49.5t133.5 -133.5t49.5 -186t-49.5 -186t-133.5 -134t-186 -50zM470 647q-115 0 -196.5 -81t-81.5 -196t81.5 -196.5t196.5 -81.5t196 81.5t81 196.5t-81 196t-196 81zM531 891h-92l-93 185h93z
" />
    <glyph glyph-name="oacute" unicode="&#xf3;" horiz-adv-x="939" 
d="M470 0q-102 0 -186 50t-134 134t-50 186t50 186t134 133.5t186 49.5t186 -49.5t133.5 -133.5t49.5 -186t-49.5 -186t-133.5 -134t-186 -50zM470 647q-115 0 -196.5 -81t-81.5 -196t81.5 -196.5t196.5 -81.5t196 81.5t81 196.5t-81 196t-196 81zM408 891l92 185h93
l-93 -185h-92z" />
    <glyph glyph-name="ocircumflex" unicode="&#xf4;" horiz-adv-x="939" 
d="M470 0q-102 0 -186 50t-134 134t-50 186t50 186t134 133.5t186 49.5t186 -49.5t133.5 -133.5t49.5 -186t-49.5 -186t-133.5 -134t-186 -50zM470 647q-115 0 -196.5 -81t-81.5 -196t81.5 -196.5t196.5 -81.5t196 81.5t81 196.5t-81 196t-196 81zM423 1076h92l93 -185h-93
l-46 93l-46 -93h-92z" />
    <glyph glyph-name="otilde" unicode="&#xf5;" horiz-adv-x="939" 
d="M470 0q-102 0 -186 50t-134 134t-50 186t50 186t134 133.5t186 49.5t186 -49.5t133.5 -133.5t49.5 -186t-49.5 -186t-133.5 -134t-186 -50zM470 647q-115 0 -196.5 -81t-81.5 -196t81.5 -196.5t196.5 -81.5t196 81.5t81 196.5t-81 196t-196 81zM606 1076l76 -39
q-24 -45 -54 -67t-61 -26q-16 -2 -31 -2h-10q-37 3 -59 12l-16 7l-8 3q-9 4 -23 6l-8 1q-10 0 -20 -2q-15 -2 -30 -13t-28 -33l-76 39q24 45 53.5 67t61.5 26q17 2 31 2h10l16 -2q27 -3 48.5 -11t38.5 -9q32 0 52 8q24 10 37 33z" />
    <glyph glyph-name="odieresis" unicode="&#xf6;" horiz-adv-x="939" 
d="M470 0q-102 0 -186 50t-134 134t-50 186t50 186t134 133.5t186 49.5t186 -49.5t133.5 -133.5t49.5 -186t-49.5 -186t-133.5 -134t-186 -50zM470 647q-115 0 -196.5 -81t-81.5 -196t81.5 -196.5t196.5 -81.5t196 81.5t81 196.5t-81 196t-196 81zM563 984v92h93v-92h-93z
M283 983v92h93v-92h-93z" />
    <glyph glyph-name="divide" unicode="&#xf7;" horiz-adv-x="754" 
d="M100 319v93h554v-93h-554zM331 0v92h93v-92h-93zM332 647v92h93v-92h-93z" />
    <glyph glyph-name="oslash" unicode="&#xf8;" horiz-adv-x="939" 
d="M470 0q-102 0 -186 50t-134 134t-50 186t50 186t134 133.5t186 49.5t186 -49.5t133.5 -133.5t49.5 -186t-49.5 -186t-133.5 -134t-186 -50zM470 647q-115 0 -196.5 -81t-81.5 -196t81.5 -196.5t196.5 -81.5t196 81.5t81 196.5t-81 196t-196 81zM100 -358l626 1479h113
l-626 -1479h-113z" />
    <glyph glyph-name="ugrave" unicode="&#xf9;" horiz-adv-x="1125" 
d="M932 739v-647h93v-92h-185v115q-40 -50 -107.5 -82.5t-169.5 -32.5q-111 0 -181 37.5t-109 92.5t-56 109.5t-21 92.5l-3 38v277h-93v92h185v-369l3 -29q2 -28 15 -69t42.5 -82t81.5 -69.5t136 -28.5q83 0 135.5 28.5t81.5 69.5t42 82t15 69l3 29v277h-93v92h185zM624 891
h-92l-93 185h93z" />
    <glyph glyph-name="uacute" unicode="&#xfa;" horiz-adv-x="1125" 
d="M932 739v-647h93v-92h-185v115q-40 -50 -107.5 -82.5t-169.5 -32.5q-111 0 -181 37.5t-109 92.5t-56 109.5t-21 92.5l-3 38v277h-93v92h185v-369l3 -29q2 -28 15 -69t42.5 -82t81.5 -69.5t136 -28.5q83 0 135.5 28.5t81.5 69.5t42 82t15 69l3 29v277h-93v92h185zM501 891
l92 185h93l-93 -185h-92z" />
    <glyph glyph-name="ucircumflex" unicode="&#xfb;" horiz-adv-x="1125" 
d="M932 739v-647h93v-92h-185v115q-40 -50 -107.5 -82.5t-169.5 -32.5q-111 0 -181 37.5t-109 92.5t-56 109.5t-21 92.5l-3 38v277h-93v92h185v-369l3 -29q2 -28 15 -69t42.5 -82t81.5 -69.5t136 -28.5q83 0 135.5 28.5t81.5 69.5t42 82t15 69l3 29v277h-93v92h185z
M516 1076h92l93 -185h-93l-46 93l-46 -93h-92z" />
    <glyph glyph-name="udieresis" unicode="&#xfc;" horiz-adv-x="1125" 
d="M932 739v-647h93v-92h-185v115q-40 -50 -107.5 -82.5t-169.5 -32.5q-111 0 -181 37.5t-109 92.5t-56 109.5t-21 92.5l-3 38v277h-93v92h185v-369l3 -29q2 -28 15 -69t42.5 -82t81.5 -69.5t136 -28.5q83 0 135.5 28.5t81.5 69.5t42 82t15 69l3 29v277h-93v92h185zM656 984
v92h93v-92h-93zM376 983v92h93v-92h-93z" />
    <glyph glyph-name="yacute" unicode="&#xfd;" horiz-adv-x="950" 
d="M572 648v92h278v-92h-83l-339 -1017h-184v93h122l82 253l-261 671h-87v92h277v-92h-87l206 -524l170 524h-94zM413 891l92 185h93l-93 -185h-92z" />
    <glyph glyph-name="thorn" unicode="&#xfe;" horiz-adv-x="1033" 
d="M563 93q115 0 196 81t81 196t-81 196t-196 81t-196 -81t-81 -196t81 -196t196 -81zM286 614q51 59 122.5 92.5t154.5 33.5q102 0 186 -50t134 -134t50 -186t-50 -186t-134 -134t-186 -50q-83 0 -154.5 33.5t-122.5 92.5v-588h-185v93h92v1755h-91v93h184v-865z" />
    <glyph glyph-name="ydieresis" unicode="&#xff;" horiz-adv-x="950" 
d="M572 648v92h278v-92h-83l-339 -1017h-184v93h122l82 253l-261 671h-87v92h277v-92h-87l206 -524l170 524h-94zM569 984v92h93v-92h-93zM289 983v92h93v-92h-93z" />
    <glyph glyph-name="Amacron" unicode="&#x100;" horiz-adv-x="1248" 
d="M377 93v-93h-277v93h85l323 1294h-69v92h277l347 -1386h85v-93h-278v93h100l-115 462h-462l-116 -462h100zM601 1387l-185 -740h416l-185 740h-46zM440 1723v92h369v-92h-369z" />
    <glyph glyph-name="amacron" unicode="&#x101;" horiz-adv-x="1031" 
d="M469 0q-102 0 -186 50t-133.5 134t-49.5 186t49.5 186t133.5 134t186 50q83 0 154.5 -33.5t123.5 -92.5v126h184v-93h-92v-554h92v-93h-184v126q-52 -59 -123.5 -92.5t-154.5 -33.5zM469 647q-115 0 -196 -81t-81 -196t81 -196t196 -81t196.5 81t81.5 196t-81.5 196
t-196.5 81zM331 984v92h369v-92h-369z" />
    <glyph glyph-name="Abreve" unicode="&#x102;" horiz-adv-x="1248" 
d="M377 93v-93h-277v93h85l323 1294h-69v92h277l347 -1386h85v-93h-278v93h100l-115 462h-462l-116 -462h100zM601 1387l-185 -740h416l-185 740h-46zM524 1815q0 -41 29.5 -70.5t70.5 -29.5q42 0 71 29.5t29 70.5h92q0 -53 -26 -96.5t-69.5 -69t-96.5 -25.5
q-52 0 -95.5 25.5t-69.5 69t-26 96.5h91z" />
    <glyph glyph-name="abreve" unicode="&#x103;" horiz-adv-x="1031" 
d="M469 0q-102 0 -186 50t-133.5 134t-49.5 186t49.5 186t133.5 134t186 50q83 0 154.5 -33.5t123.5 -92.5v126h184v-93h-92v-554h92v-93h-184v126q-52 -59 -123.5 -92.5t-154.5 -33.5zM469 647q-115 0 -196 -81t-81 -196t81 -196t196 -81t196.5 81t81.5 196t-81.5 196
t-196.5 81zM415 1076q0 -41 29.5 -70.5t70.5 -29.5q42 0 71 29.5t29 70.5h92q0 -53 -26 -96.5t-69.5 -69t-96.5 -25.5q-52 0 -95.5 25.5t-69.5 69t-26 96.5h91z" />
    <glyph glyph-name="Aogonek" unicode="&#x104;" horiz-adv-x="1248" 
d="M377 93v-93h-277v93h85l323 1294h-69v92h277l347 -1386h85v-93h-278v93h100l-115 462h-462l-116 -462h100zM601 1387l-185 -740h416l-185 740h-46zM1148 -217q-29 -45 -104 -45q-133 1 -134 118q0 135 121 196h70q-100 -27 -100 -144q0 -77 64 -77q44 0 65 24z" />
    <glyph glyph-name="aogonek" unicode="&#x105;" horiz-adv-x="1031" 
d="M469 0q-102 0 -186 50t-133.5 134t-49.5 186t49.5 186t133.5 134t186 50q83 0 154.5 -33.5t123.5 -92.5v126h184v-93h-92v-554h92v-93h-184v126q-52 -59 -123.5 -92.5t-154.5 -33.5zM469 647q-115 0 -196 -81t-81 -196t81 -196t196 -81t196.5 81t81.5 196t-81.5 196
t-196.5 81zM931 -217q-29 -45 -104 -45q-133 1 -134 118q0 135 121 196h70q-100 -27 -100 -144q0 -77 64 -77q44 0 65 24z" />
    <glyph glyph-name="Cacute" unicode="&#x106;" 
d="M839 0q-204 0 -372 100t-267.5 267.5t-99.5 372.5q0 204 99.5 371.5t267.5 267.5t372 100h185v-185h-92v93h-93q-178 0 -325 -87.5t-234.5 -234.5t-87.5 -325q0 -179 87.5 -326t234.5 -234t325 -87h93v92h92v-185h-185zM778 1630l92 185h93l-93 -185h-92z" />
    <glyph glyph-name="cacute" unicode="&#x107;" horiz-adv-x="755" 
d="M470 0q-102 0 -186 50t-134 134t-50 186t50 186t134 134t186 50h185v-185h-93v92h-92q-115 0 -196 -81t-81 -196t81 -196t196 -81h185v-93h-185zM452 891l92 185h93l-93 -185h-92z" />
    <glyph glyph-name="Ccircumflex" unicode="&#x108;" 
d="M839 0q-204 0 -372 100t-267.5 267.5t-99.5 372.5q0 204 99.5 371.5t267.5 267.5t372 100h185v-185h-92v93h-93q-178 0 -325 -87.5t-234.5 -234.5t-87.5 -325q0 -179 87.5 -326t234.5 -234t325 -87h93v92h92v-185h-185zM726 1815h92l93 -185h-93l-46 93l-46 -93h-92z" />
    <glyph glyph-name="ccircumflex" unicode="&#x109;" horiz-adv-x="755" 
d="M470 0q-102 0 -186 50t-134 134t-50 186t50 186t134 134t186 50h185v-185h-93v92h-92q-115 0 -196 -81t-81 -196t81 -196t196 -81h185v-93h-185zM444 1076h92l93 -185h-93l-46 93l-46 -93h-92z" />
    <glyph glyph-name="Cdotaccent" unicode="&#x10a;" 
d="M839 0q-204 0 -372 100t-267.5 267.5t-99.5 372.5q0 204 99.5 371.5t267.5 267.5t372 100h185v-185h-92v93h-93q-178 0 -325 -87.5t-234.5 -234.5t-87.5 -325q0 -179 87.5 -326t234.5 -234t325 -87h93v92h92v-185h-185zM771 1670v78h79v-78h-79z" />
    <glyph glyph-name="cdotaccent" unicode="&#x10b;" horiz-adv-x="755" 
d="M470 0q-102 0 -186 50t-134 134t-50 186t50 186t134 134t186 50h185v-185h-93v92h-92q-115 0 -196 -81t-81 -196t81 -196t196 -81h185v-93h-185zM468 931v78h79v-78h-79z" />
    <glyph glyph-name="Ccaron" unicode="&#x10c;" 
d="M839 0q-204 0 -372 100t-267.5 267.5t-99.5 372.5q0 204 99.5 371.5t267.5 267.5t372 100h185v-185h-92v93h-93q-178 0 -325 -87.5t-234.5 -234.5t-87.5 -325q0 -179 87.5 -326t234.5 -234t325 -87h93v92h92v-185h-185zM765 1630l-92 185h92l46 -93l46 93h93l-93 -185
h-92z" />
    <glyph glyph-name="ccaron" unicode="&#x10d;" horiz-adv-x="755" 
d="M470 0q-102 0 -186 50t-134 134t-50 186t50 186t134 134t186 50h185v-185h-93v92h-92q-115 0 -196 -81t-81 -196t81 -196t196 -81h185v-93h-185zM433 891l-92 185h92l46 -93l46 93h93l-93 -185h-92z" />
    <glyph glyph-name="Dcaron" unicode="&#x10e;" horiz-adv-x="1216" 
d="M562 0h-462v93h92v1294h-92v92h462l40 -4q41 -4 103.5 -23.5t133.5 -65t133.5 -126.5t103 -208.5t40.5 -311.5q0 -185 -40.5 -312t-103 -208.5t-133.5 -127t-133.5 -65t-103.5 -23.5zM284 1387v-1294h278l33 3q34 3 86.5 20.5t111.5 57t111 110.5t86 182.5t34 273.5
q0 161 -34 272.5t-86 182.5t-111 110.5t-111.5 57t-86.5 20.5l-33 4h-278zM448 1630l-92 185h92l46 -93l46 93h93l-93 -185h-92z" />
    <glyph glyph-name="dcaron" unicode="&#x10f;" horiz-adv-x="1225" 
d="M470 0q-102 0 -186 50t-134 134t-50 186t50 186t134 134t186 50q83 0 154.5 -33.5t122.5 -92.5v865h185v-92h-93v-1294h93v-93h-185v126q-51 -59 -122.5 -92.5t-154.5 -33.5zM470 647q-115 0 -196.5 -81t-81.5 -196t81.5 -196t196.5 -81t196 81t81 196t-81 196t-196 81z
M1175 984l-25 -99h-68l24 99h-24v92h93v-92z" />
    <glyph glyph-name="Dcroat" unicode="&#x110;" horiz-adv-x="1216" 
d="M562 0h-462v93h92v1294h-92v92h462l40 -4q41 -4 103.5 -23.5t133.5 -65t133.5 -126.5t103 -208.5t40.5 -311.5q0 -185 -40.5 -312t-103 -208.5t-133.5 -127t-133.5 -65t-103.5 -23.5zM284 1387v-1294h278l33 3q34 3 86.5 20.5t111.5 57t111 110.5t86 182.5t34 273.5
q0 161 -34 272.5t-86 182.5t-111 110.5t-111.5 57t-86.5 20.5l-33 4h-278zM100 693v93h554v-93h-554z" />
    <glyph glyph-name="dcroat" unicode="&#x111;" horiz-adv-x="1032" 
d="M470 0q-102 0 -186 50t-134 134t-50 186t50 186t134 134t186 50q83 0 154.5 -33.5t122.5 -92.5v865h185v-92h-93v-1294h93v-93h-185v126q-51 -59 -122.5 -92.5t-154.5 -33.5zM470 647q-115 0 -196.5 -81t-81.5 -196t81.5 -196t196.5 -81t196 81t81 196t-81 196t-196 81z
M378 1181v93h554v-93h-554z" />
    <glyph glyph-name="Emacron" unicode="&#x112;" horiz-adv-x="1216" 
d="M1116 0h-1016v93h92v1294h-92v92h1016v-185h-92v93h-739v-647h739v-93h-739v-554h739v92h92v-185zM424 1723v92h369v-92h-369z" />
    <glyph glyph-name="emacron" unicode="&#x113;" horiz-adv-x="847" 
d="M470 0q-103 0 -186.5 50t-133.5 134t-50 186t41.5 186t116.5 134t177 50q82 0 141 -30t97 -74.5t56 -91.5t18 -82v-92h-555q0 -115 81.5 -196t196.5 -81q114 0 196 81l65 -65q-51 -51 -118 -80t-143 -29zM435 647q-90 0 -149.5 -51t-81.5 -134h450q0 47 -28 89t-77.5 69
t-113.5 27zM239 984v92h369v-92h-369z" />
    <glyph glyph-name="Ebreve" unicode="&#x114;" horiz-adv-x="1216" 
d="M1116 0h-1016v93h92v1294h-92v92h1016v-185h-92v93h-739v-647h739v-93h-739v-554h739v92h92v-185zM508 1815q0 -41 29.5 -70.5t70.5 -29.5q42 0 71 29.5t29 70.5h92q0 -53 -26 -96.5t-69.5 -69t-96.5 -25.5q-52 0 -95.5 25.5t-69.5 69t-26 96.5h91z" />
    <glyph glyph-name="ebreve" unicode="&#x115;" horiz-adv-x="847" 
d="M470 0q-103 0 -186.5 50t-133.5 134t-50 186t41.5 186t116.5 134t177 50q82 0 141 -30t97 -74.5t56 -91.5t18 -82v-92h-555q0 -115 81.5 -196t196.5 -81q114 0 196 81l65 -65q-51 -51 -118 -80t-143 -29zM435 647q-90 0 -149.5 -51t-81.5 -134h450q0 47 -28 89t-77.5 69
t-113.5 27zM323 1076q0 -41 29.5 -70.5t70.5 -29.5q42 0 71 29.5t29 70.5h92q0 -53 -26 -96.5t-69.5 -69t-96.5 -25.5q-52 0 -95.5 25.5t-69.5 69t-26 96.5h91z" />
    <glyph glyph-name="Edotaccent" unicode="&#x116;" horiz-adv-x="1216" 
d="M1116 0h-1016v93h92v1294h-92v92h1016v-185h-92v93h-739v-647h739v-93h-739v-554h739v92h92v-185zM568 1670v78h79v-78h-79z" />
    <glyph glyph-name="edotaccent" unicode="&#x117;" horiz-adv-x="847" 
d="M470 0q-103 0 -186.5 50t-133.5 134t-50 186t41.5 186t116.5 134t177 50q82 0 141 -30t97 -74.5t56 -91.5t18 -82v-92h-555q0 -115 81.5 -196t196.5 -81q114 0 196 81l65 -65q-51 -51 -118 -80t-143 -29zM435 647q-90 0 -149.5 -51t-81.5 -134h450q0 47 -28 89t-77.5 69
t-113.5 27zM383 931v78h79v-78h-79z" />
    <glyph glyph-name="Eogonek" unicode="&#x118;" horiz-adv-x="1216" 
d="M1116 0h-1016v93h92v1294h-92v92h1016v-185h-92v93h-739v-647h739v-93h-739v-554h739v92h92v-185zM1116 -217q-29 -45 -104 -45q-133 1 -134 118q0 135 121 196h70q-100 -27 -100 -144q0 -77 64 -77q44 0 65 24z" />
    <glyph glyph-name="eogonek" unicode="&#x119;" horiz-adv-x="847" 
d="M470 0q-103 0 -186.5 50t-133.5 134t-50 186t41.5 186t116.5 134t177 50q82 0 141 -30t97 -74.5t56 -91.5t18 -82v-92h-555q0 -115 81.5 -196t196.5 -81q114 0 196 81l65 -65q-51 -51 -118 -80t-143 -29zM435 647q-90 0 -149.5 -51t-81.5 -134h450q0 47 -28 89t-77.5 69
t-113.5 27zM747 -143q-29 -45 -104 -45q-133 1 -134 118q0 135 121 196h70q-100 -27 -100 -144q0 -77 64 -77q44 0 65 24z" />
    <glyph glyph-name="Ecaron" unicode="&#x11a;" horiz-adv-x="1216" 
d="M1116 0h-1016v93h92v1294h-92v92h1016v-185h-92v93h-739v-647h739v-93h-739v-554h739v92h92v-185zM562 1630l-92 185h92l46 -93l46 93h93l-93 -185h-92z" />
    <glyph glyph-name="ecaron" unicode="&#x11b;" horiz-adv-x="847" 
d="M470 0q-103 0 -186.5 50t-133.5 134t-50 186t41.5 186t116.5 134t177 50q82 0 141 -30t97 -74.5t56 -91.5t18 -82v-92h-555q0 -115 81.5 -196t196.5 -81q114 0 196 81l65 -65q-51 -51 -118 -80t-143 -29zM435 647q-90 0 -149.5 -51t-81.5 -134h450q0 47 -28 89t-77.5 69
t-113.5 27zM377 891l-92 185h92l46 -93l46 93h93l-93 -185h-92z" />
    <glyph glyph-name="Gcircumflex" unicode="&#x11c;" 
d="M839 0q-204 0 -372 100t-267.5 267.5t-99.5 372.5q0 204 99.5 371.5t267.5 267.5t372 100h185v-185h-92v93h-93q-178 0 -325 -87.5t-234.5 -234.5t-87.5 -325q0 -179 87.5 -326t234.5 -234t325 -87h93v554h-185v93h277v-740h-185zM516 1815h92l93 -185h-93l-46 93
l-46 -93h-92z" />
    <glyph glyph-name="gcircumflex" unicode="&#x11d;" horiz-adv-x="1032" 
d="M470 0q-102 0 -186 50t-134 134t-50 186t50 186t134 134t186 50q83 0 154.5 -33.5t122.5 -92.5v126h185v-93h-92v-647l-2 -19q-2 -19 -10.5 -46t-28 -54.5t-54.5 -46.5t-90 -19h-194q-10 -1 -23.5 -5.5t-27.5 -14t-23 -27t-9 -45.5t9 -45.5t23 -27t27.5 -14t23.5 -5.5
h203q10 1 23.5 5.5t27 14t23 27t9.5 45.5h93l-2 -19q-2 -19 -10.5 -46.5t-28 -54.5t-54.5 -46t-90 -19h-185l-19 2q-19 1 -46 9.5t-54.5 28.5t-46.5 54.5t-19 90.5l2 19q1 19 9.5 46t28.5 54.5t55 46.5t90 19h185l9 1q10 0 23.5 4.5t27 14.5t23 27t9.5 45v125
q-51 -58 -122.5 -91.5t-154.5 -33.5zM470 647q-115 0 -196 -81t-81 -196t81 -196t196 -81t196 81t81 196t-81 196t-196 81zM470 1076h92l93 -185h-93l-46 93l-46 -93h-92z" />
    <glyph glyph-name="Gbreve" unicode="&#x11e;" 
d="M839 0q-204 0 -372 100t-267.5 267.5t-99.5 372.5q0 204 99.5 371.5t267.5 267.5t372 100h185v-185h-92v93h-93q-178 0 -325 -87.5t-234.5 -234.5t-87.5 -325q0 -179 87.5 -326t234.5 -234t325 -87h93v554h-185v93h277v-740h-185zM689 1815q0 -41 29.5 -70.5t70.5 -29.5
q42 0 71 29.5t29 70.5h92q0 -53 -26 -96.5t-69.5 -69t-96.5 -25.5q-52 0 -95.5 25.5t-69.5 69t-26 96.5h91z" />
    <glyph glyph-name="gbreve" unicode="&#x11f;" horiz-adv-x="1032" 
d="M470 0q-102 0 -186 50t-134 134t-50 186t50 186t134 134t186 50q83 0 154.5 -33.5t122.5 -92.5v126h185v-93h-92v-647l-2 -19q-2 -19 -10.5 -46t-28 -54.5t-54.5 -46.5t-90 -19h-194q-10 -1 -23.5 -5.5t-27.5 -14t-23 -27t-9 -45.5t9 -45.5t23 -27t27.5 -14t23.5 -5.5
h203q10 1 23.5 5.5t27 14t23 27t9.5 45.5h93l-2 -19q-2 -19 -10.5 -46.5t-28 -54.5t-54.5 -46t-90 -19h-185l-19 2q-19 1 -46 9.5t-54.5 28.5t-46.5 54.5t-19 90.5l2 19q1 19 9.5 46t28.5 54.5t55 46.5t90 19h185l9 1q10 0 23.5 4.5t27 14.5t23 27t9.5 45v125
q-51 -58 -122.5 -91.5t-154.5 -33.5zM470 647q-115 0 -196 -81t-81 -196t81 -196t196 -81t196 81t81 196t-81 196t-196 81zM366 1076q0 -41 29.5 -70.5t70.5 -29.5q42 0 71 29.5t29 70.5h92q0 -53 -26 -96.5t-69.5 -69t-96.5 -25.5q-52 0 -95.5 25.5t-69.5 69t-26 96.5h91z
" />
    <glyph glyph-name="Gdotaccent" unicode="&#x120;" 
d="M839 0q-204 0 -372 100t-267.5 267.5t-99.5 372.5q0 204 99.5 371.5t267.5 267.5t372 100h185v-185h-92v93h-93q-178 0 -325 -87.5t-234.5 -234.5t-87.5 -325q0 -179 87.5 -326t234.5 -234t325 -87h93v554h-185v93h277v-740h-185zM732 1670v78h79v-78h-79z" />
    <glyph glyph-name="gdotaccent" unicode="&#x121;" horiz-adv-x="1032" 
d="M470 0q-102 0 -186 50t-134 134t-50 186t50 186t134 134t186 50q83 0 154.5 -33.5t122.5 -92.5v126h185v-93h-92v-647l-2 -19q-2 -19 -10.5 -46t-28 -54.5t-54.5 -46.5t-90 -19h-194q-10 -1 -23.5 -5.5t-27.5 -14t-23 -27t-9 -45.5t9 -45.5t23 -27t27.5 -14t23.5 -5.5
h203q10 1 23.5 5.5t27 14t23 27t9.5 45.5h93l-2 -19q-2 -19 -10.5 -46.5t-28 -54.5t-54.5 -46t-90 -19h-185l-19 2q-19 1 -46 9.5t-54.5 28.5t-46.5 54.5t-19 90.5l2 19q1 19 9.5 46t28.5 54.5t55 46.5t90 19h185l9 1q10 0 23.5 4.5t27 14.5t23 27t9.5 45v125
q-51 -58 -122.5 -91.5t-154.5 -33.5zM470 647q-115 0 -196 -81t-81 -196t81 -196t196 -81t196 81t81 196t-81 196t-196 81zM430 931v78h79v-78h-79z" />
    <glyph glyph-name="uni0122" unicode="&#x122;" 
d="M839 0q-204 0 -372 100t-267.5 267.5t-99.5 372.5q0 204 99.5 371.5t267.5 267.5t372 100h185v-185h-92v93h-93q-178 0 -325 -87.5t-234.5 -234.5t-87.5 -325q0 -179 87.5 -326t234.5 -234t325 -87h93v554h-185v93h277v-740h-185zM599 -155l-20 -59h-55l20 59h-20v55h75
v-55z" />
    <glyph glyph-name="uni0123" unicode="&#x123;" horiz-adv-x="1032" 
d="M470 0q-102 0 -186 50t-134 134t-50 186t50 186t134 134t186 50q83 0 154.5 -33.5t122.5 -92.5v126h185v-93h-92v-647l-2 -19q-2 -19 -10.5 -46t-28 -54.5t-54.5 -46.5t-90 -19h-194q-10 -1 -23.5 -5.5t-27.5 -14t-23 -27t-9 -45.5t9 -45.5t23 -27t27.5 -14t23.5 -5.5
h203q10 1 23.5 5.5t27 14t23 27t9.5 45.5h93l-2 -19q-2 -19 -10.5 -46.5t-28 -54.5t-54.5 -46t-90 -19h-185l-19 2q-19 1 -46 9.5t-54.5 28.5t-46.5 54.5t-19 90.5l2 19q1 19 9.5 46t28.5 54.5t55 46.5t90 19h185l9 1q10 0 23.5 4.5t27 14.5t23 27t9.5 45v125
q-51 -58 -122.5 -91.5t-154.5 -33.5zM470 647q-115 0 -196 -81t-81 -196t81 -196t196 -81t196 81t81 196t-81 196t-196 81zM484 900l17 69h48l-17 -69h17v-65h-65v65z" />
    <glyph glyph-name="Hcircumflex" unicode="&#x124;" horiz-adv-x="1309" 
d="M1209 93v-93h-277v93h93v554h-740v-554h93v-93h-278v93h93v1294h-93v92h278v-92h-93v-647h740v647h-93v92h277v-92h-92v-1294h92zM608 1815h92l93 -185h-93l-46 93l-46 -93h-92z" />
    <glyph glyph-name="hcircumflex" unicode="&#x125;" 
d="M747 93h92v277l-2 28q-3 28 -15.5 69.5t-42 82.5t-82 69t-135.5 28t-135.5 -28t-82 -69t-42 -82.5t-15.5 -69.5l-2 -28v-277h92v-93h-277v93h92v1294h-92v92h185v-854q40 49 107.5 82t169.5 33q111 0 181 -38t109 -92.5t56 -109.5t21 -92l3 -38v-277h92v-93h-277v93z
M516 1797h92l93 -185h-93l-46 93l-46 -93h-92z" />
    <glyph glyph-name="Hbar" unicode="&#x126;" horiz-adv-x="1309" 
d="M1209 93v-93h-277v93h93v554h-740v-554h93v-93h-278v93h93v1294h-93v92h278v-92h-93v-647h740v647h-93v92h277v-92h-92v-1294h92zM100 1186v93h554v-93h-554zM653 1186v93h554v-93h-554z" />
    <glyph glyph-name="hbar" unicode="&#x127;" 
d="M747 93h92v277l-2 28q-3 28 -15.5 69.5t-42 82.5t-82 69t-135.5 28t-135.5 -28t-82 -69t-42 -82.5t-15.5 -69.5l-2 -28v-277h92v-93h-277v93h92v1294h-92v92h185v-854q40 49 107.5 82t169.5 33q111 0 181 -38t109 -92.5t56 -109.5t21 -92l3 -38v-277h92v-93h-277v93z
M100 1181v93h554v-93h-554z" />
    <glyph glyph-name="Itilde" unicode="&#x128;" horiz-adv-x="477" 
d="M377 93v-93h-277v93h92v1294h-92v92h277v-92h-92v-1294h92zM376 1815l76 -39q-24 -45 -54 -67t-61 -26q-16 -2 -31 -2h-10q-37 3 -59 12l-16 7l-8 3q-9 4 -23 6l-8 1q-10 0 -20 -2q-15 -2 -30 -13t-28 -33l-76 39q24 45 53.5 67t61.5 26q17 2 31 2h10l16 -2
q27 -3 48.5 -11t38.5 -9q32 0 52 8q24 10 37 33z" />
    <glyph glyph-name="itilde" unicode="&#x129;" horiz-adv-x="477" 
d="M377 93v-93h-277v93h92v554h-92v93h185v-647h92zM376 1076l76 -39q-24 -45 -54 -67t-61 -26q-16 -2 -31 -2h-10q-37 3 -59 12l-16 7l-8 3q-9 4 -23 6l-8 1q-10 0 -20 -2q-15 -2 -30 -13t-28 -33l-76 39q24 45 53.5 67t61.5 26q17 2 31 2h10l16 -2q27 -3 48.5 -11t38.5 -9
q32 0 52 8q24 10 37 33z" />
    <glyph glyph-name="Imacron" unicode="&#x12a;" horiz-adv-x="477" 
d="M377 93v-93h-277v93h92v1294h-92v92h277v-92h-92v-1294h92zM55 1723v92h369v-92h-369z" />
    <glyph glyph-name="imacron" unicode="&#x12b;" horiz-adv-x="477" 
d="M377 93v-93h-277v93h92v554h-92v93h185v-647h92zM55 984v92h369v-92h-369z" />
    <glyph glyph-name="Ibreve" unicode="&#x12c;" horiz-adv-x="477" 
d="M377 93v-93h-277v93h92v1294h-92v92h277v-92h-92v-1294h92zM139 1815q0 -41 29.5 -70.5t70.5 -29.5q42 0 71 29.5t29 70.5h92q0 -53 -26 -96.5t-69.5 -69t-96.5 -25.5q-52 0 -95.5 25.5t-69.5 69t-26 96.5h91z" />
    <glyph glyph-name="ibreve" unicode="&#x12d;" horiz-adv-x="477" 
d="M377 93v-93h-277v93h92v554h-92v93h185v-647h92zM139 1076q0 -41 29.5 -70.5t70.5 -29.5q42 0 71 29.5t29 70.5h92q0 -53 -26 -96.5t-69.5 -69t-96.5 -25.5q-52 0 -95.5 25.5t-69.5 69t-26 96.5h91z" />
    <glyph glyph-name="Iogonek" unicode="&#x12e;" horiz-adv-x="477" 
d="M377 93v-93h-277v93h92v1294h-92v92h277v-92h-92v-1294h92zM377 -217q-29 -45 -104 -45q-133 1 -134 118q0 135 121 196h70q-100 -27 -100 -144q0 -77 64 -77q44 0 65 24z" />
    <glyph glyph-name="iogonek" unicode="&#x12f;" horiz-adv-x="477" 
d="M377 93v-93h-277v93h92v554h-92v93h185v-647h92zM285 1017v-93h-93v93h93zM377 -217q-29 -45 -104 -45q-133 1 -134 118q0 135 121 196h70q-100 -27 -100 -144q0 -77 64 -77q44 0 65 24z" />
    <glyph glyph-name="Idotaccent" unicode="&#x130;" horiz-adv-x="477" 
d="M377 93v-93h-277v93h92v1294h-92v92h277v-92h-92v-1294h92zM198 1670v78h79v-78h-79z" />
    <glyph glyph-name="dotlessi" unicode="&#x131;" horiz-adv-x="477" 
d="M377 93v-93h-277v93h92v554h-92v93h185v-647h92z" />
    <glyph glyph-name="IJ" unicode="&#x132;" horiz-adv-x="1786" 
d="M377 93v-93h-277v93h92v1294h-92v92h277v-92h-92v-1294h92zM1594 462l-3 -33q-2 -34 -14.5 -86.5t-40.5 -111.5t-79 -111t-130.5 -86t-194.5 -34q-116 0 -195.5 34t-130 86t-79 111t-41 111.5t-14.5 86.5l-2 33h-93v93h277v-93h-92l3 -37q4 -38 21 -92.5t56 -109.5
t109 -92.5t181 -37.5t180.5 37.5t109 92.5t56.5 109.5t20 92.5l3 37v925h-92v92h277v-92h-92v-925z" />
    <glyph glyph-name="ij" unicode="&#x133;" horiz-adv-x="939" 
d="M377 93v-93h-277v93h92v554h-92v93h185v-647h92zM285 1017v-93h-93v93h93zM654 740h185v-93h-93v-739l-1 -19q-2 -19 -10.5 -46.5t-28 -54.5t-54.5 -46t-90 -19q-56 0 -91 19t-54.5 46t-28 54.5t-10.5 46.5l-1 19h92l1 -10q1 -9 5 -22.5t14 -27.5t27.5 -23.5t45.5 -9.5
q27 0 44.5 9.5t27.5 23.5t14 27.5t5 22.5l1 10v832zM746 1017v-92h-92v92h92z" />
    <glyph glyph-name="Jcircumflex" unicode="&#x134;" horiz-adv-x="1309" 
d="M1117 462l-3 -33q-2 -34 -14.5 -86.5t-40.5 -111.5t-79 -111t-130.5 -86t-194.5 -34q-116 0 -195.5 34t-130 86t-79 111t-41 111.5t-14.5 86.5l-2 33h-93v93h277v-93h-92l3 -37q4 -38 21 -92.5t56 -109.5t109 -92.5t181 -37.5t180.5 37.5t109 92.5t56.5 109.5t20 92.5
l3 37v925h-92v92h277v-92h-92v-925zM1023 1815h92l93 -185h-93l-46 93l-46 -93h-92z" />
    <glyph glyph-name="jcircumflex" unicode="&#x135;" horiz-adv-x="462" 
d="M177 740h185v-93h-93v-739l-1 -19q-2 -19 -10.5 -46.5t-28 -54.5t-54.5 -46t-90 -19q-56 0 -91 19t-54.5 46t-28 54.5t-10.5 46.5l-1 19h92l1 -10q1 -9 5 -22.5t14 -27.5t27.5 -23.5t45.5 -9.5q27 0 44.5 9.5t27.5 23.5t14 27.5t5 22.5l1 10v832zM193 891l-92 185h92
l46 -93l46 93h93l-93 -185h-92z" />
    <glyph glyph-name="uni0136" unicode="&#x136;" horiz-adv-x="1145" 
d="M436 841l524 -748h85v-93h-277v93h89l-477 677l-95 -123v-554h93v-93h-278v93h93v1294h-93v92h278v-92h-93v-601l472 601h-102v92h277v-92h-72zM610 -155l-20 -59h-55l20 59h-20v55h75v-55z" />
    <glyph glyph-name="uni0137" unicode="&#x137;" horiz-adv-x="769" 
d="M285 342v-342h-185v92h93v1294h-93v93h185v-1082l187 250h-81v92h278v-92h-84l-208 -277l208 -278h84v-92h-278v92h81zM422 -155l-20 -59h-55l20 59h-20v55h75v-55z" />
    <glyph glyph-name="kgreenlandic" unicode="&#x138;" horiz-adv-x="769" 
d="M285 342v-342h-185v92h93v1294h-93v93h185v-1082l187 250h-81v92h278v-92h-84l-208 -277l208 -278h84v-92h-278v92h81z" />
    <glyph glyph-name="Lacute" unicode="&#x139;" 
d="M100 92h92v1294h-92v93h277v-93h-92v-1294h647v93h92v-185h-924v92zM177 1630l92 185h93l-93 -185h-92z" />
    <glyph glyph-name="lacute" unicode="&#x13a;" horiz-adv-x="477" 
d="M284 1479v-1387h93v-92h-185v1386h-92v93h184zM146 1612l92 185h93l-93 -185h-92z" />
    <glyph glyph-name="uni013B" unicode="&#x13b;" 
d="M100 92h92v1294h-92v93h277v-93h-92v-1294h647v93h92v-185h-924v92zM599 -155l-20 -59h-55l20 59h-20v55h75v-55z" />
    <glyph glyph-name="uni013C" unicode="&#x13c;" horiz-adv-x="477" 
d="M284 1479v-1387h93v-92h-185v1386h-92v93h184zM276 -155l-20 -59h-55l20 59h-20v55h75v-55z" />
    <glyph glyph-name="Lcaron" unicode="&#x13d;" 
d="M100 92h92v1294h-92v93h277v-93h-92v-1294h647v93h92v-185h-924v92zM746 985l-25 -99h-68l24 99h-24v92h93v-92z" />
    <glyph glyph-name="lcaron" unicode="&#x13e;" horiz-adv-x="670" 
d="M284 1479v-1387h93v-92h-185v1386h-92v93h184zM620 984l-25 -99h-68l24 99h-24v92h93v-92z" />
    <glyph glyph-name="Ldot" unicode="&#x13f;" 
d="M100 92h92v1294h-92v93h277v-93h-92v-1294h647v93h92v-185h-924v92zM523 701v78h79v-78h-79z" />
    <glyph glyph-name="ldot" unicode="&#x140;" horiz-adv-x="556" 
d="M284 1479v-1387h93v-92h-185v1386h-92v93h184zM376 701v78h79v-78h-79z" />
    <glyph glyph-name="Lslash" unicode="&#x141;" horiz-adv-x="1148" 
d="M309 771v-679h647v93h92v-185h-924v92h93v644l-217 -101v103l217 101v547h-93v93h277v-93h-92v-512l225 87v-103z" />
    <glyph glyph-name="lslash" unicode="&#x142;" horiz-adv-x="554" 
d="M236 839v547h-92v93h184v-605l226 87v-103l-226 -87v-679h93v-92h-185v736l-236 -91v103z" />
    <glyph glyph-name="Nacute" unicode="&#x143;" horiz-adv-x="1217" 
d="M1117 1386h-92v-1294h92v-92h-185l-647 1273v-1181h93v-92h-278v92h93v1294h-93v93h185l647 -1274v1274h185v-93zM547 1630l92 185h93l-93 -185h-92z" />
    <glyph glyph-name="nacute" unicode="&#x144;" 
d="M377 92v-92h-277v92h92v555h-92v92h185v-114q40 49 107 81.5t170 32.5q111 0 181 -37.5t109 -92t56 -109.5t20 -93l4 -37v-278h92v-92h-277v92h92v278l-2 28q-3 28 -15.5 69t-42 82t-82 69.5t-135.5 28.5t-135.5 -28.5t-82 -69.5t-42 -82t-15.5 -69l-2 -28v-278h92z
M500 891l92 185h93l-93 -185h-92z" />
    <glyph glyph-name="uni0145" unicode="&#x145;" horiz-adv-x="1217" 
d="M1117 1386h-92v-1294h92v-92h-185l-647 1273v-1181h93v-92h-278v92h93v1294h-93v93h185l647 -1274v1274h185v-93zM646 -155l-20 -59h-55l20 59h-20v55h75v-55z" />
    <glyph glyph-name="uni0146" unicode="&#x146;" 
d="M377 92v-92h-277v92h92v555h-92v92h185v-114q40 49 107 81.5t170 32.5q111 0 181 -37.5t109 -92t56 -109.5t20 -93l4 -37v-278h92v-92h-277v92h92v278l-2 28q-3 28 -15.5 69t-42 82t-82 69.5t-135.5 28.5t-135.5 -28.5t-82 -69.5t-42 -82t-15.5 -69l-2 -28v-278h92z
M599 -155l-20 -59h-55l20 59h-20v55h75v-55z" />
    <glyph glyph-name="Ncaron" unicode="&#x147;" horiz-adv-x="1217" 
d="M1117 1386h-92v-1294h92v-92h-185l-647 1273v-1181h93v-92h-278v92h93v1294h-93v93h185l647 -1274v1274h185v-93zM562 1630l-92 185h92l46 -93l46 93h93l-93 -185h-92z" />
    <glyph glyph-name="ncaron" unicode="&#x148;" 
d="M377 92v-92h-277v92h92v555h-92v92h185v-114q40 49 107 81.5t170 32.5q111 0 181 -37.5t109 -92t56 -109.5t20 -93l4 -37v-278h92v-92h-277v92h92v278l-2 28q-3 28 -15.5 69t-42 82t-82 69.5t-135.5 28.5t-135.5 -28.5t-82 -69.5t-42 -82t-15.5 -69l-2 -28v-278h92z
M516 891l-92 185h92l46 -93l46 93h93l-93 -185h-92z" />
    <glyph glyph-name="napostrophe" unicode="&#x149;" horiz-adv-x="1107" 
d="M115 904l-18 -69h-47l16 69h-16v65h65v-65zM360 92v-92h-277v92h92v555h-92v92h185v-114q40 49 107 81.5t170 32.5q111 0 181 -37.5t109 -92t56 -109.5t20 -93l4 -37v-278h92v-92h-277v92h92v278l-2 28q-3 28 -15.5 69t-42 82t-82 69.5t-135.5 28.5t-135.5 -28.5
t-82 -69.5t-42 -82t-15.5 -69l-2 -28v-278h92z" />
    <glyph glyph-name="Eng" unicode="&#x14a;" horiz-adv-x="1032" 
d="M932 -401h-185v92h92v1419l-2 28q-3 28 -15.5 69t-42 82t-82 69.5t-135.5 28.5t-135.5 -28.5t-82 -69.5t-42 -82t-15.5 -69l-2 -28v-1018h92v-92h-277v92h92v1295h-92v92h185v-114q40 49 107 81.5t170 32.5q111 0 181 -37.5t109 -92t56 -109.5t20 -93l4 -37v-1511z" />
    <glyph glyph-name="eng" unicode="&#x14b;" horiz-adv-x="1032" 
d="M932 -401h-185v92h92v679l-2 28q-3 28 -15.5 69t-42 82t-82 69.5t-135.5 28.5t-135.5 -28.5t-82 -69.5t-42 -82t-15.5 -69l-2 -28v-278h92v-92h-277v92h92v555h-92v92h185v-114q40 49 107 81.5t170 32.5q111 0 181 -37.5t109 -92t56 -109.5t20 -93l4 -37v-771z" />
    <glyph glyph-name="Omacron" unicode="&#x14c;" horiz-adv-x="1217" 
d="M609 1479q140 0 255.5 -100t184 -267.5t68.5 -372.5q0 -204 -68.5 -371.5t-184 -267.5t-255.5 -100q-141 0 -256 100t-184 267.5t-69 371.5q0 205 69 372.5t184 267.5t256 100zM609 92q115 0 209 87.5t150.5 234.5t56.5 325q0 179 -56.5 326t-150.5 234t-209 87
t-209.5 -87t-150.5 -234t-56 -326q0 -178 56 -325t150.5 -234.5t209.5 -87.5zM424 1723v92h369v-92h-369z" />
    <glyph glyph-name="omacron" unicode="&#x14d;" horiz-adv-x="939" 
d="M470 0q-102 0 -186 50t-134 134t-50 186t50 186t134 133.5t186 49.5t186 -49.5t133.5 -133.5t49.5 -186t-49.5 -186t-133.5 -134t-186 -50zM470 647q-115 0 -196.5 -81t-81.5 -196t81.5 -196.5t196.5 -81.5t196 81.5t81 196.5t-81 196t-196 81zM285 984v92h369v-92h-369z
" />
    <glyph glyph-name="Obreve" unicode="&#x14e;" horiz-adv-x="1217" 
d="M609 1479q140 0 255.5 -100t184 -267.5t68.5 -372.5q0 -204 -68.5 -371.5t-184 -267.5t-255.5 -100q-141 0 -256 100t-184 267.5t-69 371.5q0 205 69 372.5t184 267.5t256 100zM609 92q115 0 209 87.5t150.5 234.5t56.5 325q0 179 -56.5 326t-150.5 234t-209 87
t-209.5 -87t-150.5 -234t-56 -326q0 -178 56 -325t150.5 -234.5t209.5 -87.5zM508 1815q0 -41 29.5 -70.5t70.5 -29.5q42 0 71 29.5t29 70.5h92q0 -53 -26 -96.5t-69.5 -69t-96.5 -25.5q-52 0 -95.5 25.5t-69.5 69t-26 96.5h91z" />
    <glyph glyph-name="obreve" unicode="&#x14f;" horiz-adv-x="939" 
d="M470 0q-102 0 -186 50t-134 134t-50 186t50 186t134 133.5t186 49.5t186 -49.5t133.5 -133.5t49.5 -186t-49.5 -186t-133.5 -134t-186 -50zM470 647q-115 0 -196.5 -81t-81.5 -196t81.5 -196.5t196.5 -81.5t196 81.5t81 196.5t-81 196t-196 81zM369 1076
q0 -41 29.5 -70.5t70.5 -29.5q42 0 71 29.5t29 70.5h92q0 -53 -26 -96.5t-69.5 -69t-96.5 -25.5q-52 0 -95.5 25.5t-69.5 69t-26 96.5h91z" />
    <glyph glyph-name="Ohungarumlaut" unicode="&#x150;" horiz-adv-x="1217" 
d="M609 1479q140 0 255.5 -100t184 -267.5t68.5 -372.5q0 -204 -68.5 -371.5t-184 -267.5t-255.5 -100q-141 0 -256 100t-184 267.5t-69 371.5q0 205 69 372.5t184 267.5t256 100zM609 92q115 0 209 87.5t150.5 234.5t56.5 325q0 179 -56.5 326t-150.5 234t-209 87
t-209.5 -87t-150.5 -234t-56 -326q0 -178 56 -325t150.5 -234.5t209.5 -87.5zM424 1630l92 185h93l-93 -185h-92zM610 1630l92 185h93l-93 -185h-92z" />
    <glyph glyph-name="ohungarumlaut" unicode="&#x151;" horiz-adv-x="939" 
d="M470 0q-102 0 -186 50t-134 134t-50 186t50 186t134 133.5t186 49.5t186 -49.5t133.5 -133.5t49.5 -186t-49.5 -186t-133.5 -134t-186 -50zM470 647q-115 0 -196.5 -81t-81.5 -196t81.5 -196.5t196.5 -81.5t196 81.5t81 196.5t-81 196t-196 81zM285 891l92 185h93
l-93 -185h-92zM471 891l92 185h93l-93 -185h-92z" />
    <glyph glyph-name="OE" unicode="&#x152;" horiz-adv-x="1963" 
d="M609 1479q140 0 255.5 -100t184 -267.5t68.5 -372.5q0 -204 -68.5 -371.5t-184 -267.5t-255.5 -100q-141 0 -256 100t-184 267.5t-69 371.5q0 205 69 372.5t184 267.5t256 100zM609 92q115 0 209 87.5t150.5 234.5t56.5 325q0 179 -56.5 326t-150.5 234t-209 87
t-209.5 -87t-150.5 -234t-56 -326q0 -178 56 -325t150.5 -234.5t209.5 -87.5zM1953 0h-1016v93h92v1294h-92v92h1016v-185h-92v93h-739v-647h739v-93h-739v-554h739v92h92v-185z" />
    <glyph glyph-name="oe" unicode="&#x153;" horiz-adv-x="1456" 
d="M470 0q-102 0 -186 50t-134 134t-50 186t50 186t134 133.5t186 49.5t186 -49.5t133.5 -133.5t49.5 -186t-49.5 -186t-133.5 -134t-186 -50zM470 647q-115 0 -196.5 -81t-81.5 -196t81.5 -196.5t196.5 -81.5t196 81.5t81 196.5t-81 196t-196 81zM1080 0q-103 0 -186.5 50
t-133.5 134t-50 186t41.5 186t116.5 134t177 50q82 0 141 -30t97 -74.5t56 -91.5t18 -82v-92h-555q0 -115 81.5 -196t196.5 -81q114 0 196 81l65 -65q-51 -51 -118 -80t-143 -29zM1045 647q-90 0 -149.5 -51t-81.5 -134h450q0 47 -28 89t-77.5 69t-113.5 27z" />
    <glyph glyph-name="Racute" unicode="&#x154;" horiz-adv-x="1175" 
d="M775 580l210 -488h90v-92h-277v92h84l-199 465l-29 -2h-369v-463h92v-92h-277v92h92v1294h-92v93h462l34 -3q33 -2 85.5 -14.5t111.5 -40.5t111.5 -79t86 -130.5t33.5 -194.5q0 -107 -23.5 -183t-60.5 -126.5t-80 -81t-85 -46.5zM654 647l29 3q28 4 69 21t82 56t69.5 109
t28.5 181t-38 180.5t-92.5 109t-109.5 56.5t-92 20l-38 3h-277v-739h369zM526 1630l92 185h93l-93 -185h-92z" />
    <glyph glyph-name="racute" unicode="&#x155;" horiz-adv-x="847" 
d="M469 647q-55 0 -90 -19t-54.5 -46t-28 -54.5t-10.5 -46.5l-1 -19v-370h92v-92h-277v92h92v555h-92v92h185v-62q30 28 75.5 45t108.5 17q84 0 136 -28t81.5 -69t42.5 -82t15 -70l3 -28h-93l-1 19q-2 19 -10.5 46.5t-28 54.5t-54.5 46t-91 19zM362 891l92 185h93l-93 -185
h-92z" />
    <glyph glyph-name="uni0156" unicode="&#x156;" horiz-adv-x="1175" 
d="M775 580l210 -488h90v-92h-277v92h84l-199 465l-29 -2h-369v-463h92v-92h-277v92h92v1294h-92v93h462l34 -3q33 -2 85.5 -14.5t111.5 -40.5t111.5 -79t86 -130.5t33.5 -194.5q0 -107 -23.5 -183t-60.5 -126.5t-80 -81t-85 -46.5zM654 647l29 3q28 4 69 21t82 56t69.5 109
t28.5 181t-38 180.5t-92.5 109t-109.5 56.5t-92 20l-38 3h-277v-739h369zM625 -155l-20 -59h-55l20 59h-20v55h75v-55z" />
    <glyph glyph-name="uni0157" unicode="&#x157;" horiz-adv-x="847" 
d="M469 647q-55 0 -90 -19t-54.5 -46t-28 -54.5t-10.5 -46.5l-1 -19v-370h92v-92h-277v92h92v555h-92v92h185v-62q30 28 75.5 45t108.5 17q84 0 136 -28t81.5 -69t42.5 -82t15 -70l3 -28h-93l-1 19q-2 19 -10.5 46.5t-28 54.5t-54.5 46t-91 19zM461 -155l-20 -59h-55l20 59
h-20v55h75v-55z" />
    <glyph glyph-name="Rcaron" unicode="&#x158;" horiz-adv-x="1175" 
d="M775 580l210 -488h90v-92h-277v92h84l-199 465l-29 -2h-369v-463h92v-92h-277v92h92v1294h-92v93h462l34 -3q33 -2 85.5 -14.5t111.5 -40.5t111.5 -79t86 -130.5t33.5 -194.5q0 -107 -23.5 -183t-60.5 -126.5t-80 -81t-85 -46.5zM654 647l29 3q28 4 69 21t82 56t69.5 109
t28.5 181t-38 180.5t-92.5 109t-109.5 56.5t-92 20l-38 3h-277v-739h369zM541 1630l-92 185h92l46 -93l46 93h93l-93 -185h-92z" />
    <glyph glyph-name="rcaron" unicode="&#x159;" horiz-adv-x="847" 
d="M469 647q-55 0 -90 -19t-54.5 -46t-28 -54.5t-10.5 -46.5l-1 -19v-370h92v-92h-277v92h92v555h-92v92h185v-62q30 28 75.5 45t108.5 17q84 0 136 -28t81.5 -69t42.5 -82t15 -70l3 -28h-93l-1 19q-2 19 -10.5 46.5t-28 54.5t-54.5 46t-91 19zM377 891l-92 185h92l46 -93
l46 93h93l-93 -185h-92z" />
    <glyph glyph-name="Sacute" unicode="&#x15a;" horiz-adv-x="1032" 
d="M562 1386q-114 0 -195.5 -81t-81.5 -196q0 -64 41 -117t106.5 -100.5t141.5 -95.5q65 -41 128.5 -85t115 -95t83 -111.5t31.5 -134.5q0 -102 -50 -186t-133.5 -134t-186.5 -50q-102 0 -186 50t-133.5 134t-49.5 186h-93v92h278v-92h-93q0 -115 81.5 -196.5t195.5 -81.5
q115 0 196.5 81.5t81.5 196.5q0 64 -41 117t-106.5 100.5t-141.5 95.5q-65 40 -128.5 84.5t-115.5 95.5t-83 111.5t-31 134.5q0 102 49.5 186t133.5 134t186 50q103 0 186.5 -50t133.5 -134t50 -186h-92q0 115 -81.5 196t-196.5 81zM484 1630l92 185h93l-93 -185h-92z" />
    <glyph glyph-name="sacute" unicode="&#x15b;" horiz-adv-x="662" 
d="M331 739q68 0 119 -25.5t80 -66.5h32v-92h-92q0 27 -14.5 44.5t-35 27.5t-41 14t-34.5 5l-14 1l-14 -1q-14 -1 -34.5 -5t-41 -14t-35 -27.5t-14.5 -44.5q0 -42 22.5 -67.5t58 -42t76.5 -30.5q52 -18 100.5 -42.5t80.5 -68t32 -119.5q0 -46 -29 -88.5t-81 -69.5t-121 -27
q-68 0 -119 26t-80 66h-32v93h92q0 -28 14.5 -45.5t35 -27t41 -14t34.5 -5.5l14 -1l14 1q14 1 34.5 5.5t41 14t35 27t14.5 45.5q0 41 -22 66.5t-57.5 42t-77.5 31.5q-52 17 -100.5 41.5t-80.5 68t-32 120.5q0 46 29 88t81 69t121 27zM269 891l92 185h93l-93 -185h-92z" />
    <glyph glyph-name="Scircumflex" unicode="&#x15c;" horiz-adv-x="1032" 
d="M562 1386q-114 0 -195.5 -81t-81.5 -196q0 -64 41 -117t106.5 -100.5t141.5 -95.5q65 -41 128.5 -85t115 -95t83 -111.5t31.5 -134.5q0 -102 -50 -186t-133.5 -134t-186.5 -50q-102 0 -186 50t-133.5 134t-49.5 186h-93v92h278v-92h-93q0 -115 81.5 -196.5t195.5 -81.5
q115 0 196.5 81.5t81.5 196.5q0 64 -41 117t-106.5 100.5t-141.5 95.5q-65 40 -128.5 84.5t-115.5 95.5t-83 111.5t-31 134.5q0 102 49.5 186t133.5 134t186 50q103 0 186.5 -50t133.5 -134t50 -186h-92q0 115 -81.5 196t-196.5 81zM500 1815h92l93 -185h-93l-46 93l-46 -93
h-92z" />
    <glyph glyph-name="scircumflex" unicode="&#x15d;" horiz-adv-x="662" 
d="M331 739q68 0 119 -25.5t80 -66.5h32v-92h-92q0 27 -14.5 44.5t-35 27.5t-41 14t-34.5 5l-14 1l-14 -1q-14 -1 -34.5 -5t-41 -14t-35 -27.5t-14.5 -44.5q0 -42 22.5 -67.5t58 -42t76.5 -30.5q52 -18 100.5 -42.5t80.5 -68t32 -119.5q0 -46 -29 -88.5t-81 -69.5t-121 -27
q-68 0 -119 26t-80 66h-32v93h92q0 -28 14.5 -45.5t35 -27t41 -14t34.5 -5.5l14 -1l14 1q14 1 34.5 5.5t41 14t35 27t14.5 45.5q0 41 -22 66.5t-57.5 42t-77.5 31.5q-52 17 -100.5 41.5t-80.5 68t-32 120.5q0 46 29 88t81 69t121 27zM285 1076h92l93 -185h-93l-46 93
l-46 -93h-92z" />
    <glyph glyph-name="Scedilla" unicode="&#x15e;" horiz-adv-x="1032" 
d="M562 1386q-114 0 -195.5 -81t-81.5 -196q0 -64 41 -117t106.5 -100.5t141.5 -95.5q65 -41 128.5 -85t115 -95t83 -111.5t31.5 -134.5q0 -102 -50 -186t-133.5 -134t-186.5 -50q-102 0 -186 50t-133.5 134t-49.5 186h-93v92h278v-92h-93q0 -115 81.5 -196.5t195.5 -81.5
q115 0 196.5 81.5t81.5 196.5q0 64 -41 117t-106.5 100.5t-141.5 95.5q-65 40 -128.5 84.5t-115.5 95.5t-83 111.5t-31 134.5q0 102 49.5 186t133.5 134t186 50q103 0 186.5 -50t133.5 -134t50 -186h-92q0 115 -81.5 196t-196.5 81zM562 -41v93h93v-93l-2 -19
q-2 -19 -10.5 -46t-28 -54.5t-54.5 -46.5t-90 -19h-93v93h93l9 1q10 0 23.5 4.5t27 14t23 27t9.5 45.5z" />
    <glyph glyph-name="scedilla" unicode="&#x15f;" horiz-adv-x="662" 
d="M331 739q68 0 119 -25.5t80 -66.5h32v-92h-92q0 27 -14.5 44.5t-35 27.5t-41 14t-34.5 5l-14 1l-14 -1q-14 -1 -34.5 -5t-41 -14t-35 -27.5t-14.5 -44.5q0 -42 22.5 -67.5t58 -42t76.5 -30.5q52 -18 100.5 -42.5t80.5 -68t32 -119.5q0 -46 -29 -88.5t-81 -69.5t-121 -27
q-68 0 -119 26t-80 66h-32v93h92q0 -28 14.5 -45.5t35 -27t41 -14t34.5 -5.5l14 -1l14 1q14 1 34.5 5.5t41 14t35 27t14.5 45.5q0 41 -22 66.5t-57.5 42t-77.5 31.5q-52 17 -100.5 41.5t-80.5 68t-32 120.5q0 46 29 88t81 69t121 27zM377 -41v93h93v-93l-2 -19
q-2 -19 -10.5 -46t-28 -54.5t-54.5 -46.5t-90 -19h-93v93h93l9 1q10 0 23.5 4.5t27 14t23 27t9.5 45.5z" />
    <glyph glyph-name="Scaron" unicode="&#x160;" horiz-adv-x="1032" 
d="M562 1386q-114 0 -195.5 -81t-81.5 -196q0 -64 41 -117t106.5 -100.5t141.5 -95.5q65 -41 128.5 -85t115 -95t83 -111.5t31.5 -134.5q0 -102 -50 -186t-133.5 -134t-186.5 -50q-102 0 -186 50t-133.5 134t-49.5 186h-93v92h278v-92h-93q0 -115 81.5 -196.5t195.5 -81.5
q115 0 196.5 81.5t81.5 196.5q0 64 -41 117t-106.5 100.5t-141.5 95.5q-65 40 -128.5 84.5t-115.5 95.5t-83 111.5t-31 134.5q0 102 49.5 186t133.5 134t186 50q103 0 186.5 -50t133.5 -134t50 -186h-92q0 115 -81.5 196t-196.5 81zM470 1630l-92 185h92l46 -93l46 93h93
l-93 -185h-92z" />
    <glyph glyph-name="scaron" unicode="&#x161;" horiz-adv-x="662" 
d="M331 739q68 0 119 -25.5t80 -66.5h32v-92h-92q0 27 -14.5 44.5t-35 27.5t-41 14t-34.5 5l-14 1l-14 -1q-14 -1 -34.5 -5t-41 -14t-35 -27.5t-14.5 -44.5q0 -42 22.5 -67.5t58 -42t76.5 -30.5q52 -18 100.5 -42.5t80.5 -68t32 -119.5q0 -46 -29 -88.5t-81 -69.5t-121 -27
q-68 0 -119 26t-80 66h-32v93h92q0 -28 14.5 -45.5t35 -27t41 -14t34.5 -5.5l14 -1l14 1q14 1 34.5 5.5t41 14t35 27t14.5 45.5q0 41 -22 66.5t-57.5 42t-77.5 31.5q-52 17 -100.5 41.5t-80.5 68t-32 120.5q0 46 29 88t81 69t121 27zM285 891l-92 185h92l46 -93l46 93h93
l-93 -185h-92z" />
    <glyph glyph-name="uni0162" unicode="&#x162;" horiz-adv-x="1032" 
d="M100 1294v185h832v-185h-92v92h-277v-1294h92v-92h-277v92h92v1294h-277v-92h-93zM562 -41v93h93v-93l-2 -19q-2 -19 -10.5 -46t-28 -54.5t-54.5 -46.5t-90 -19h-93v93h93l9 1q10 0 23.5 4.5t27 14t23 27t9.5 45.5z" />
    <glyph glyph-name="uni0163" unicode="&#x163;" horiz-adv-x="570" 
d="M100 1479h93v-740h277v-92h-277v-370q0 -55 19 -90t46 -54.5t54.5 -28t46.5 -10.5l19 -2h92v-92h-92q-83 0 -135.5 28.5t-82 69.5t-42.5 82t-15 69l-3 28v1202zM331 -41v93h93v-93l-2 -19q-2 -19 -10.5 -46t-28 -54.5t-54.5 -46.5t-90 -19h-93v93h93l9 1q10 0 23.5 4.5
t27 14t23 27t9.5 45.5z" />
    <glyph glyph-name="Tcaron" unicode="&#x164;" horiz-adv-x="1032" 
d="M100 1294v185h832v-185h-92v92h-277v-1294h92v-92h-277v92h92v1294h-277v-92h-93zM470 1630l-92 185h92l46 -93l46 93h93l-93 -185h-92z" />
    <glyph glyph-name="tcaron" unicode="&#x165;" horiz-adv-x="763" 
d="M100 1479h93v-740h277v-92h-277v-370q0 -55 19 -90t46 -54.5t54.5 -28t46.5 -10.5l19 -2h92v-92h-92q-83 0 -135.5 28.5t-82 69.5t-42.5 82t-15 69l-3 28v1202zM713 984l-25 -99h-68l24 99h-24v92h93v-92z" />
    <glyph glyph-name="Tbar" unicode="&#x166;" horiz-adv-x="1032" 
d="M100 1294v185h832v-185h-92v92h-277v-1294h92v-92h-277v92h92v1294h-277v-92h-93zM239 693v93h554v-93h-554z" />
    <glyph glyph-name="tbar" unicode="&#x167;" horiz-adv-x="570" 
d="M100 1479h93v-740h277v-92h-277v-370q0 -55 19 -90t46 -54.5t54.5 -28t46.5 -10.5l19 -2h92v-92h-92q-83 0 -135.5 28.5t-82 69.5t-42.5 82t-15 69l-3 28v1202zM9 435v93h554v-93h-554z" />
    <glyph glyph-name="Utilde" unicode="&#x168;" 
d="M746 1386v93h278v-93h-93v-1016l-3 -38q-3 -38 -20 -92.5t-56.5 -109.5t-109 -92.5t-180.5 -37.5t-181 37.5t-109 92.5t-56 109.5t-21 92.5l-3 38v1016h-92v93h277v-93h-93v-1016l3 -29q2 -28 15 -69t42.5 -82t81.5 -69.5t136 -28.5q83 0 135.5 28.5t81.5 69.5t42 82
t15 69l3 29v1016h-93zM698 1815l76 -39q-24 -45 -54 -67t-61 -26q-16 -2 -31 -2h-10q-37 3 -59 12l-16 7l-8 3q-9 4 -23 6l-8 1q-10 0 -20 -2q-15 -2 -30 -13t-28 -33l-76 39q24 45 53.5 67t61.5 26q17 2 31 2h10l16 -2q27 -3 48.5 -11t38.5 -9q32 0 52 8q24 10 37 33z" />
    <glyph glyph-name="utilde" unicode="&#x169;" horiz-adv-x="1125" 
d="M932 739v-647h93v-92h-185v115q-40 -50 -107.5 -82.5t-169.5 -32.5q-111 0 -181 37.5t-109 92.5t-56 109.5t-21 92.5l-3 38v277h-93v92h185v-369l3 -29q2 -28 15 -69t42.5 -82t81.5 -69.5t136 -28.5q83 0 135.5 28.5t81.5 69.5t42 82t15 69l3 29v277h-93v92h185z
M699 1076l76 -39q-24 -45 -54 -67t-61 -26q-16 -2 -31 -2h-10q-37 3 -59 12l-16 7l-8 3q-9 4 -23 6l-8 1q-10 0 -20 -2q-15 -2 -30 -13t-28 -33l-76 39q24 45 53.5 67t61.5 26q17 2 31 2h10l16 -2q27 -3 48.5 -11t38.5 -9q32 0 52 8q24 10 37 33z" />
    <glyph glyph-name="Umacron" unicode="&#x16a;" 
d="M746 1386v93h278v-93h-93v-1016l-3 -38q-3 -38 -20 -92.5t-56.5 -109.5t-109 -92.5t-180.5 -37.5t-181 37.5t-109 92.5t-56 109.5t-21 92.5l-3 38v1016h-92v93h277v-93h-93v-1016l3 -29q2 -28 15 -69t42.5 -82t81.5 -69.5t136 -28.5q83 0 135.5 28.5t81.5 69.5t42 82
t15 69l3 29v1016h-93zM378 1723v92h369v-92h-369z" />
    <glyph glyph-name="umacron" unicode="&#x16b;" horiz-adv-x="1125" 
d="M932 739v-647h93v-92h-185v115q-40 -50 -107.5 -82.5t-169.5 -32.5q-111 0 -181 37.5t-109 92.5t-56 109.5t-21 92.5l-3 38v277h-93v92h185v-369l3 -29q2 -28 15 -69t42.5 -82t81.5 -69.5t136 -28.5q83 0 135.5 28.5t81.5 69.5t42 82t15 69l3 29v277h-93v92h185zM378 984
v92h369v-92h-369z" />
    <glyph glyph-name="Ubreve" unicode="&#x16c;" 
d="M746 1386v93h278v-93h-93v-1016l-3 -38q-3 -38 -20 -92.5t-56.5 -109.5t-109 -92.5t-180.5 -37.5t-181 37.5t-109 92.5t-56 109.5t-21 92.5l-3 38v1016h-92v93h277v-93h-93v-1016l3 -29q2 -28 15 -69t42.5 -82t81.5 -69.5t136 -28.5q83 0 135.5 28.5t81.5 69.5t42 82
t15 69l3 29v1016h-93zM462 1815q0 -41 29.5 -70.5t70.5 -29.5q42 0 71 29.5t29 70.5h92q0 -53 -26 -96.5t-69.5 -69t-96.5 -25.5q-52 0 -95.5 25.5t-69.5 69t-26 96.5h91z" />
    <glyph glyph-name="ubreve" unicode="&#x16d;" horiz-adv-x="1125" 
d="M932 739v-647h93v-92h-185v115q-40 -50 -107.5 -82.5t-169.5 -32.5q-111 0 -181 37.5t-109 92.5t-56 109.5t-21 92.5l-3 38v277h-93v92h185v-369l3 -29q2 -28 15 -69t42.5 -82t81.5 -69.5t136 -28.5q83 0 135.5 28.5t81.5 69.5t42 82t15 69l3 29v277h-93v92h185z
M462 1076q0 -41 29.5 -70.5t70.5 -29.5q42 0 71 29.5t29 70.5h92q0 -53 -26 -96.5t-69.5 -69t-96.5 -25.5q-52 0 -95.5 25.5t-69.5 69t-26 96.5h91z" />
    <glyph glyph-name="Uring" unicode="&#x16e;" 
d="M746 1386v93h278v-93h-93v-1016l-3 -38q-3 -38 -20 -92.5t-56.5 -109.5t-109 -92.5t-180.5 -37.5t-181 37.5t-109 92.5t-56 109.5t-21 92.5l-3 38v1016h-92v93h277v-93h-93v-1016l3 -29q2 -28 15 -69t42.5 -82t81.5 -69.5t136 -28.5q83 0 135.5 28.5t81.5 69.5t42 82
t15 69l3 29v1016h-93zM562 1432q-52 0 -95.5 25.5t-69.5 69t-26 96.5t26 96.5t69.5 69.5t95.5 26q53 0 96.5 -26t69.5 -69.5t26 -96.5t-26 -96.5t-69.5 -69t-96.5 -25.5zM562 1723q-41 0 -70.5 -29t-29.5 -71q0 -41 29.5 -70.5t70.5 -29.5q42 0 71 29.5t29 70.5q0 42 -29 71
t-71 29z" />
    <glyph glyph-name="uring" unicode="&#x16f;" horiz-adv-x="1125" 
d="M932 739v-647h93v-92h-185v115q-40 -50 -107.5 -82.5t-169.5 -32.5q-111 0 -181 37.5t-109 92.5t-56 109.5t-21 92.5l-3 38v277h-93v92h185v-369l3 -29q2 -28 15 -69t42.5 -82t81.5 -69.5t136 -28.5q83 0 135.5 28.5t81.5 69.5t42 82t15 69l3 29v277h-93v92h185zM562 693
q-52 0 -95.5 25.5t-69.5 69t-26 96.5t26 96.5t69.5 69.5t95.5 26q53 0 96.5 -26t69.5 -69.5t26 -96.5t-26 -96.5t-69.5 -69t-96.5 -25.5zM562 984q-41 0 -70.5 -29t-29.5 -71q0 -41 29.5 -70.5t70.5 -29.5q42 0 71 29.5t29 70.5q0 42 -29 71t-71 29z" />
    <glyph glyph-name="Uhungarumlaut" unicode="&#x170;" 
d="M746 1386v93h278v-93h-93v-1016l-3 -38q-3 -38 -20 -92.5t-56.5 -109.5t-109 -92.5t-180.5 -37.5t-181 37.5t-109 92.5t-56 109.5t-21 92.5l-3 38v1016h-92v93h277v-93h-93v-1016l3 -29q2 -28 15 -69t42.5 -82t81.5 -69.5t136 -28.5q83 0 135.5 28.5t81.5 69.5t42 82
t15 69l3 29v1016h-93zM377 1630l92 185h93l-93 -185h-92zM563 1630l92 185h93l-93 -185h-92z" />
    <glyph glyph-name="uhungarumlaut" unicode="&#x171;" horiz-adv-x="1125" 
d="M932 739v-647h93v-92h-185v115q-40 -50 -107.5 -82.5t-169.5 -32.5q-111 0 -181 37.5t-109 92.5t-56 109.5t-21 92.5l-3 38v277h-93v92h185v-369l3 -29q2 -28 15 -69t42.5 -82t81.5 -69.5t136 -28.5q83 0 135.5 28.5t81.5 69.5t42 82t15 69l3 29v277h-93v92h185zM378 891
l92 185h93l-93 -185h-92zM564 891l92 185h93l-93 -185h-92z" />
    <glyph glyph-name="Uogonek" unicode="&#x172;" 
d="M746 1386v93h278v-93h-93v-1016l-3 -38q-3 -38 -20 -92.5t-56.5 -109.5t-109 -92.5t-180.5 -37.5t-181 37.5t-109 92.5t-56 109.5t-21 92.5l-3 38v1016h-92v93h277v-93h-93v-1016l3 -29q2 -28 15 -69t42.5 -82t81.5 -69.5t136 -28.5q83 0 135.5 28.5t81.5 69.5t42 82
t15 69l3 29v1016h-93zM881 -143q-29 -45 -104 -45q-133 1 -134 118q0 135 121 196h70q-100 -27 -100 -144q0 -77 64 -77q44 0 65 24z" />
    <glyph glyph-name="uogonek" unicode="&#x173;" horiz-adv-x="1125" 
d="M932 739v-647h93v-92h-185v115q-40 -50 -107.5 -82.5t-169.5 -32.5q-111 0 -181 37.5t-109 92.5t-56 109.5t-21 92.5l-3 38v277h-93v92h185v-369l3 -29q2 -28 15 -69t42.5 -82t81.5 -69.5t136 -28.5q83 0 135.5 28.5t81.5 69.5t42 82t15 69l3 29v277h-93v92h185z
M1025 -217q-29 -45 -104 -45q-133 1 -134 118q0 135 121 196h70q-100 -27 -100 -144q0 -77 64 -77q44 0 65 24z" />
    <glyph glyph-name="Wcircumflex" unicode="&#x174;" horiz-adv-x="2018" 
d="M1641 1386v93h277v-93h-85l-346 -1386h-185l-293 1171l-293 -1171h-185l-346 1386h-85v93h277v-93h-100l324 -1294h46l316 1264l-8 30h-85v93h278v-93h-85l-8 -30l316 -1264h46l324 1294h-100zM963 1815h92l93 -185h-93l-46 93l-46 -93h-92z" />
    <glyph glyph-name="wcircumflex" unicode="&#x175;" horiz-adv-x="1453" 
d="M378 739v-92h-89l186 -497l186 497h-71v92h277v-92h-75l186 -497l187 497h-89v92h277v-92h-86l-242 -647h-93l-205 548l-206 -548h-92l-243 647h-86v92h278zM680 1076h92l93 -185h-93l-46 93l-46 -93h-92z" />
    <glyph glyph-name="Ycircumflex" unicode="&#x176;" horiz-adv-x="1186" 
d="M809 1386v93h277v-93h-82l-365 -647v-647h93v-92h-278v92h93v647l-366 647h-81v93h277v-93h-83l299 -544l298 544h-82zM547 1815h92l93 -185h-93l-46 93l-46 -93h-92z" />
    <glyph glyph-name="ycircumflex" unicode="&#x177;" horiz-adv-x="950" 
d="M572 648v92h278v-92h-83l-339 -1017h-184v93h122l82 253l-261 671h-87v92h277v-92h-87l206 -524l170 524h-94zM429 1076h92l93 -185h-93l-46 93l-46 -93h-92z" />
    <glyph glyph-name="Ydieresis" unicode="&#x178;" horiz-adv-x="1186" 
d="M809 1386v93h277v-93h-82l-365 -647v-647h93v-92h-278v92h93v647l-366 647h-81v93h277v-93h-83l299 -544l298 544h-82zM687 1723v92h93v-92h-93zM407 1722v92h93v-92h-93z" />
    <glyph glyph-name="Zacute" unicode="&#x179;" horiz-adv-x="1125" 
d="M100 1479h925v-93l-812 -1294h719v93h93v-185h-925v92l812 1294h-719v-92h-93v185zM501 1630l92 185h93l-93 -185h-92z" />
    <glyph glyph-name="zacute" unicode="&#x17a;" horiz-adv-x="847" 
d="M747 185v-185h-647v92l524 555h-431v-93h-93v185h647v-92l-523 -555h431v93h92zM362 891l92 185h93l-93 -185h-92z" />
    <glyph glyph-name="Zdotaccent" unicode="&#x17b;" horiz-adv-x="1125" 
d="M100 1479h925v-93l-812 -1294h719v93h93v-185h-925v92l812 1294h-719v-92h-93v185zM522 1670v78h79v-78h-79z" />
    <glyph glyph-name="zdotaccent" unicode="&#x17c;" horiz-adv-x="847" 
d="M747 185v-185h-647v92l524 555h-431v-93h-93v185h647v-92l-523 -555h431v93h92zM383 931v78h79v-78h-79z" />
    <glyph glyph-name="Zcaron" unicode="&#x17d;" horiz-adv-x="1125" 
d="M100 1479h925v-93l-812 -1294h719v93h93v-185h-925v92l812 1294h-719v-92h-93v185zM516 1630l-92 185h92l46 -93l46 93h93l-93 -185h-92z" />
    <glyph glyph-name="zcaron" unicode="&#x17e;" horiz-adv-x="847" 
d="M747 185v-185h-647v92l524 555h-431v-93h-93v185h647v-92l-523 -555h431v93h92zM377 891l-92 185h92l46 -93l46 93h93l-93 -185h-92z" />
    <glyph glyph-name="longs" unicode="&#x17f;" horiz-adv-x="570" 
d="M100 0v1202l2 28q3 28 15.5 69t42 82t82 69.5t135.5 28.5h93v-92h-93l-19 -2q-18 -2 -45.5 -10.5t-55 -28t-46.5 -54.5t-19 -90v-1202h-92z" />
    <glyph glyph-name="uni0180" unicode="&#x180;" horiz-adv-x="1032" 
d="M285 126v-126h-185v93h92v1294h-92v92h185v-865q38 44 88 74h1q7 5 15 9q1 0 2 1h1q7 4 14 7q1 1 3 1l1 1q7 3 13 6q3 1 5 2q6 2 13 4l24 8q6 1 12 3h1q3 1 6 1q6 2 12 3h2q3 0 5 1l12 2h3q2 0 5 1q6 0 13 1h6q10 1 20 1q102 0 186 -50t134 -134t50 -186t-50 -186
t-134 -134t-186 -50q-10 0 -20 1h-6q-7 1 -13 1q-3 1 -5 1h-3l-12 2q-2 0 -5 1h-2q-6 1 -12 3q-3 0 -6 1h-1q-6 2 -12 3l-24 8q-7 2 -13 4q-2 1 -5 2q-6 3 -13 6h-1q-2 1 -3 2q-7 3 -14 7h-1q-1 1 -2 1q-8 4 -15 9h-1q-50 30 -88 74zM562 647q-115 0 -196 -81t-81 -196
t81 -196t196 -81t196 81t81 196t-81 196t-196 81zM100 1181v93h554v-93h-554z" />
    <glyph glyph-name="uni0186" unicode="&#x186;" 
d="M285.051 1507q203.988 0 371.978 -99.9941q167.99 -99.9941 267.483 -267.483q99.4941 -167.49 99.4941 -372.478q0 -203.987 -99.4941 -371.478q-99.4932 -167.489 -267.483 -267.483q-167.989 -99.9941 -371.978 -99.9941h-184.988v184.989h91.9941v-92.9941h92.9941
q177.989 0 324.98 87.4941q146.991 87.4951 234.485 234.486q87.4951 146.99 87.4951 324.979q0 178.989 -87.4951 325.98q-87.4941 146.991 -234.485 233.985q-146.991 86.9951 -324.98 86.9951h-92.9941v-91.9941h-91.9941v184.988h184.988z" />
    <glyph glyph-name="uni0189" unicode="&#x189;" horiz-adv-x="1216" 
d="M562 0h-462v93h92v1294h-92v92h462l40 -4q41 -4 103.5 -23.5t133.5 -65t133.5 -126.5t103 -208.5t40.5 -311.5q0 -185 -40.5 -312t-103 -208.5t-133.5 -127t-133.5 -65t-103.5 -23.5zM284 1387v-1294h278l33 3q34 3 86.5 20.5t111.5 57t111 110.5t86 182.5t34 273.5
q0 161 -34 272.5t-86 182.5t-111 110.5t-111.5 57t-86.5 20.5l-33 4h-278zM100 693v93h554v-93h-554z" />
    <glyph glyph-name="uni018E" unicode="&#x18e;" horiz-adv-x="1216" 
d="M100 0v185h92v-92h739v554h-739v93h739v647h-739v-93h-92v185h1016v-92h-92v-1294h92v-93h-1016z" />
    <glyph glyph-name="uni018F" unicode="&#x18f;" horiz-adv-x="1106" 
d="M487 1057q145 0 261.5 -70t186.5 -188t70 -260q0 -143 -58 -260.5t-163 -187.5t-248 -70q-114 0 -197 42t-136 104t-78 128t-25 115v129h777q0 161 -114.5 274t-275.5 113q-159 0 -274 -113l-91 91q71 71 165 112t200 41zM536 151q126 0 209.5 71.5t114.5 187.5h-630
q0 -66 39 -125t108.5 -96.5t158.5 -37.5z" />
    <glyph glyph-name="uni0190" unicode="&#x190;" horiz-adv-x="1032" 
d="M291 783q-48 22 -91.5 62.5t-71.5 105t-28 158.5q0 102 50 186t134 134t186 50t186 -50t134 -134t50 -186h-93q0 115 -81 196.5t-196 81.5t-196 -81.5t-81 -196.5l2 -28q3 -28 15.5 -69t42 -82.5t82 -69.5t135.5 -28h185v-93h-185l-28 -2q-29 -3 -70 -18t-82 -49.5
t-69 -95.5t-28 -158q0 -52 17 -108.5t52 -105t86.5 -79.5t121.5 -31q115 0 196 81.5t81 196.5h-92v92h277v-92h-92q0 -102 -50 -186t-134 -134t-186 -50q-104 0 -175 44.5t-114 111.5t-62 137.5t-19 122.5q0 106 28 178.5t71.5 118t91.5 70.5z" />
    <glyph glyph-name="uni0196" unicode="&#x196;" horiz-adv-x="570" 
d="M100 1479h92v-1202q0 -55 19 -90t46.5 -54.5t55 -28t45.5 -10.5l19 -2h93v-92h-93q-83 0 -135.5 28.5t-82 69.5t-42 82t-15.5 69l-2 28v1202z" />
    <glyph glyph-name="uni0197" unicode="&#x197;" horiz-adv-x="477" 
d="M377 93v-93h-277v93h92v1294h-92v92h277v-92h-92v-1294h92zM-37 693v93h554v-93h-554z" />
    <glyph glyph-name="uni019A" unicode="&#x19a;" horiz-adv-x="477" 
d="M284 1479v-1387h93v-92h-185v1386h-92v93h184zM-37 693v93h554v-93h-554z" />
    <glyph glyph-name="Ohorn" unicode="&#x1a0;" horiz-adv-x="1226" 
d="M609 1479q140 0 255.5 -100t184 -267.5t68.5 -372.5q0 -204 -68.5 -371.5t-184 -267.5t-255.5 -100q-141 0 -256 100t-184 267.5t-69 371.5q0 205 69 372.5t184 267.5t256 100zM609 92q115 0 209 87.5t150.5 234.5t56.5 325q0 179 -56.5 326t-150.5 234t-209 87
t-209.5 -87t-150.5 -234t-56 -326q0 -178 56 -325t150.5 -234.5t209.5 -87.5zM1226 1242l-139 -244h-79l138 244h-84v137h164v-137z" />
    <glyph glyph-name="ohorn" unicode="&#x1a1;" horiz-adv-x="939" 
d="M470 0q-102 0 -186 50t-134 134t-50 186t50 186t134 133.5t186 49.5t186 -49.5t133.5 -133.5t49.5 -186t-49.5 -186t-133.5 -134t-186 -50zM470 647q-115 0 -196.5 -81t-81.5 -196t81.5 -196.5t196.5 -81.5t196 81.5t81 196.5t-81 196t-196 81zM948 794l-139 -244h-79
l138 244h-84v137h164v-137z" />
    <glyph glyph-name="Uhorn" unicode="&#x1af;" horiz-adv-x="1136" 
d="M746 1386v93h278v-93h-93v-1016l-3 -38q-3 -38 -20 -92.5t-56.5 -109.5t-109 -92.5t-180.5 -37.5t-181 37.5t-109 92.5t-56 109.5t-21 92.5l-3 38v1016h-92v93h277v-93h-93v-1016l3 -29q2 -28 15 -69t42.5 -82t81.5 -69.5t136 -28.5q83 0 135.5 28.5t81.5 69.5t42 82
t15 69l3 29v1016h-93zM1136 1191l-139 -244h-79l138 244h-84v137h164v-137z" />
    <glyph glyph-name="uhorn" unicode="&#x1b0;" horiz-adv-x="1134" 
d="M932 739v-647h93v-92h-185v115q-40 -50 -107.5 -82.5t-169.5 -32.5q-111 0 -181 37.5t-109 92.5t-56 109.5t-21 92.5l-3 38v277h-93v92h185v-369l3 -29q2 -28 15 -69t42.5 -82t81.5 -69.5t136 -28.5q83 0 135.5 28.5t81.5 69.5t42 82t15 69l3 29v277h-93v92h185z
M1134 603l-139 -244h-79l138 244h-84v137h164v-137z" />
    <glyph glyph-name="uni01C0" unicode="&#x1c0;" horiz-adv-x="493" 
d="M293 1717v-2203h-93v2203h93z" />
    <glyph glyph-name="uni01C1" unicode="&#x1c1;" horiz-adv-x="493" 
d="M201 1717v-2203h-93v2203h93zM386 1717v-2203h-93v2203h93z" />
    <glyph glyph-name="uni01C2" unicode="&#x1c2;" horiz-adv-x="755" 
d="M100 605v92h555v-92h-555zM100 790v92h555v-92h-555zM424 1717v-2203h-93v2203h93z" />
    <glyph glyph-name="uni01C3" unicode="&#x1c3;" horiz-adv-x="192" 
d="M50 277v1202h92v-1202h-92zM50 0v92h92v-92h-92z" />
    <glyph glyph-name="uni01C4" unicode="&#x1c4;" horiz-adv-x="2342" 
d="M562 0h-462v93h92v1294h-92v92h462l40 -4q41 -4 103.5 -23.5t133.5 -65t133.5 -126.5t103 -208.5t40.5 -311.5q0 -185 -40.5 -312t-103 -208.5t-133.5 -127t-133.5 -65t-103.5 -23.5zM284 1387v-1294h278l33 3q34 3 86.5 20.5t111.5 57t111 110.5t86 182.5t34 273.5
q0 161 -34 272.5t-86 182.5t-111 110.5t-111.5 57t-86.5 20.5l-33 4h-278zM1316 1479h925v-93l-812 -1294h719v93h93v-185h-925v92l812 1294h-719v-92h-93v185zM1732 1630l-92 185h92l46 -93l46 93h93l-93 -185h-92z" />
    <glyph glyph-name="uni01C5" unicode="&#x1c5;" horiz-adv-x="2063" 
d="M562 0h-462v93h92v1294h-92v92h462l40 -4q41 -4 103.5 -23.5t133.5 -65t133.5 -126.5t103 -208.5t40.5 -311.5q0 -185 -40.5 -312t-103 -208.5t-133.5 -127t-133.5 -65t-103.5 -23.5zM284 1387v-1294h278l33 3q34 3 86.5 20.5t111.5 57t111 110.5t86 182.5t34 273.5
q0 161 -34 272.5t-86 182.5t-111 110.5t-111.5 57t-86.5 20.5l-33 4h-278zM1963 185v-185h-647v92l524 555h-431v-93h-93v185h647v-92l-523 -555h431v93h92zM1593 891l-92 185h92l46 -93l46 93h93l-93 -185h-92z" />
    <glyph glyph-name="uni01C6" unicode="&#x1c6;" horiz-adv-x="1879" 
d="M470 0q-102 0 -186 50t-134 134t-50 186t50 186t134 134t186 50q83 0 154.5 -33.5t122.5 -92.5v865h185v-92h-93v-1294h93v-93h-185v126q-51 -59 -122.5 -92.5t-154.5 -33.5zM470 647q-115 0 -196.5 -81t-81.5 -196t81.5 -196t196.5 -81t196 81t81 196t-81 196t-196 81z
M1779 185v-185h-647v92l524 555h-431v-93h-93v185h647v-92l-523 -555h431v93h92zM1409 891l-92 185h92l46 -93l46 93h93l-93 -185h-92z" />
    <glyph glyph-name="uni01C7" unicode="&#x1c7;" horiz-adv-x="2433" 
d="M100 92h92v1294h-92v93h277v-93h-92v-1294h647v93h92v-185h-924v92zM2241 462l-3 -33q-2 -34 -14.5 -86.5t-40.5 -111.5t-79 -111t-130.5 -86t-194.5 -34q-116 0 -195.5 34t-130 86t-79 111t-41 111.5t-14.5 86.5l-2 33h-93v93h277v-93h-92l3 -37q4 -38 21 -92.5
t56 -109.5t109 -92.5t181 -37.5t180.5 37.5t109 92.5t56.5 109.5t20 92.5l3 37v925h-92v92h277v-92h-92v-925z" />
    <glyph glyph-name="uni01C8" unicode="&#x1c8;" horiz-adv-x="1586" 
d="M100 92h92v1294h-92v93h277v-93h-92v-1294h647v93h92v-185h-924v92zM1301 740h185v-93h-93v-739l-1 -19q-2 -19 -10.5 -46.5t-28 -54.5t-54.5 -46t-90 -19q-56 0 -91 19t-54.5 46t-28 54.5t-10.5 46.5l-1 19h92l1 -10q1 -9 5 -22.5t14 -27.5t27.5 -23.5t45.5 -9.5
q27 0 44.5 9.5t27.5 23.5t14 27.5t5 22.5l1 10v832zM1393 1017v-92h-92v92h92z" />
    <glyph glyph-name="uni01C9" unicode="&#x1c9;" horiz-adv-x="939" 
d="M284 1479v-1387h93v-92h-185v1386h-92v93h184zM654 740h185v-93h-93v-739l-1 -19q-2 -19 -10.5 -46.5t-28 -54.5t-54.5 -46t-90 -19q-56 0 -91 19t-54.5 46t-28 54.5t-10.5 46.5l-1 19h92l1 -10q1 -9 5 -22.5t14 -27.5t27.5 -23.5t45.5 -9.5q27 0 44.5 9.5t27.5 23.5
t14 27.5t5 22.5l1 10v832zM746 1017v-92h-92v92h92z" />
    <glyph glyph-name="uni01CA" unicode="&#x1ca;" horiz-adv-x="2526" 
d="M1117 1386h-92v-1294h92v-92h-185l-647 1273v-1181h93v-92h-278v92h93v1294h-93v93h185l647 -1274v1274h185v-93zM2334 462l-3 -33q-2 -34 -14.5 -86.5t-40.5 -111.5t-79 -111t-130.5 -86t-194.5 -34q-116 0 -195.5 34t-130 86t-79 111t-41 111.5t-14.5 86.5l-2 33h-93
v93h277v-93h-92l3 -37q4 -38 21 -92.5t56 -109.5t109 -92.5t181 -37.5t180.5 37.5t109 92.5t56.5 109.5t20 92.5l3 37v925h-92v92h277v-92h-92v-925z" />
    <glyph glyph-name="uni01CB" unicode="&#x1cb;" horiz-adv-x="1679" 
d="M1117 1386h-92v-1294h92v-92h-185l-647 1273v-1181h93v-92h-278v92h93v1294h-93v93h185l647 -1274v1274h185v-93zM1394 740h185v-93h-93v-739l-1 -19q-2 -19 -10.5 -46.5t-28 -54.5t-54.5 -46t-90 -19q-56 0 -91 19t-54.5 46t-28 54.5t-10.5 46.5l-1 19h92l1 -10
q1 -9 5 -22.5t14 -27.5t27.5 -23.5t45.5 -9.5q27 0 44.5 9.5t27.5 23.5t14 27.5t5 22.5l1 10v832zM1486 1017v-92h-92v92h92z" />
    <glyph glyph-name="uni01CC" unicode="&#x1cc;" horiz-adv-x="1586" 
d="M377 92v-92h-277v92h92v555h-92v92h185v-114q40 49 107 81.5t170 32.5q111 0 181 -37.5t109 -92t56 -109.5t20 -93l4 -37v-278h92v-92h-277v92h92v278l-2 28q-3 28 -15.5 69t-42 82t-82 69.5t-135.5 28.5t-135.5 -28.5t-82 -69.5t-42 -82t-15.5 -69l-2 -28v-278h92z
M1301 740h185v-93h-93v-739l-1 -19q-2 -19 -10.5 -46.5t-28 -54.5t-54.5 -46t-90 -19q-56 0 -91 19t-54.5 46t-28 54.5t-10.5 46.5l-1 19h92l1 -10q1 -9 5 -22.5t14 -27.5t27.5 -23.5t45.5 -9.5q27 0 44.5 9.5t27.5 23.5t14 27.5t5 22.5l1 10v832zM1393 1017v-92h-92v92h92z
" />
    <glyph glyph-name="uni01CD" unicode="&#x1cd;" horiz-adv-x="1248" 
d="M377 93v-93h-277v93h85l323 1294h-69v92h277l347 -1386h85v-93h-278v93h100l-115 462h-462l-116 -462h100zM601 1387l-185 -740h416l-185 740h-46zM578 1630l-92 185h92l46 -93l46 93h93l-93 -185h-92z" />
    <glyph glyph-name="uni01CE" unicode="&#x1ce;" horiz-adv-x="1031" 
d="M469 0q-102 0 -186 50t-133.5 134t-49.5 186t49.5 186t133.5 134t186 50q83 0 154.5 -33.5t123.5 -92.5v126h184v-93h-92v-554h92v-93h-184v126q-52 -59 -123.5 -92.5t-154.5 -33.5zM469 647q-115 0 -196 -81t-81 -196t81 -196t196 -81t196.5 81t81.5 196t-81.5 196
t-196.5 81zM469 891l-92 185h92l46 -93l46 93h93l-93 -185h-92z" />
    <glyph glyph-name="uni01CF" unicode="&#x1cf;" horiz-adv-x="477" 
d="M377 93v-93h-277v93h92v1294h-92v92h277v-92h-92v-1294h92zM193 1630l-92 185h92l46 -93l46 93h93l-93 -185h-92z" />
    <glyph glyph-name="uni01D0" unicode="&#x1d0;" horiz-adv-x="477" 
d="M377 93v-93h-277v93h92v554h-92v93h185v-647h92zM193 891l-92 185h92l46 -93l46 93h93l-93 -185h-92z" />
    <glyph glyph-name="uni01D1" unicode="&#x1d1;" horiz-adv-x="1217" 
d="M609 1479q140 0 255.5 -100t184 -267.5t68.5 -372.5q0 -204 -68.5 -371.5t-184 -267.5t-255.5 -100q-141 0 -256 100t-184 267.5t-69 371.5q0 205 69 372.5t184 267.5t256 100zM609 92q115 0 209 87.5t150.5 234.5t56.5 325q0 179 -56.5 326t-150.5 234t-209 87
t-209.5 -87t-150.5 -234t-56 -326q0 -178 56 -325t150.5 -234.5t209.5 -87.5zM562 1630l-92 185h92l46 -93l46 93h93l-93 -185h-92z" />
    <glyph glyph-name="uni01D2" unicode="&#x1d2;" horiz-adv-x="939" 
d="M470 0q-102 0 -186 50t-134 134t-50 186t50 186t134 133.5t186 49.5t186 -49.5t133.5 -133.5t49.5 -186t-49.5 -186t-133.5 -134t-186 -50zM470 647q-115 0 -196.5 -81t-81.5 -196t81.5 -196.5t196.5 -81.5t196 81.5t81 196.5t-81 196t-196 81zM423 891l-92 185h92
l46 -93l46 93h93l-93 -185h-92z" />
    <glyph glyph-name="uni01D3" unicode="&#x1d3;" 
d="M746 1386v93h278v-93h-93v-1016l-3 -38q-3 -38 -20 -92.5t-56.5 -109.5t-109 -92.5t-180.5 -37.5t-181 37.5t-109 92.5t-56 109.5t-21 92.5l-3 38v1016h-92v93h277v-93h-93v-1016l3 -29q2 -28 15 -69t42.5 -82t81.5 -69.5t136 -28.5q83 0 135.5 28.5t81.5 69.5t42 82
t15 69l3 29v1016h-93zM516 1630l-92 185h92l46 -93l46 93h93l-93 -185h-92z" />
    <glyph glyph-name="uni01D4" unicode="&#x1d4;" horiz-adv-x="1125" 
d="M932 739v-647h93v-92h-185v115q-40 -50 -107.5 -82.5t-169.5 -32.5q-111 0 -181 37.5t-109 92.5t-56 109.5t-21 92.5l-3 38v277h-93v92h185v-369l3 -29q2 -28 15 -69t42.5 -82t81.5 -69.5t136 -28.5q83 0 135.5 28.5t81.5 69.5t42 82t15 69l3 29v277h-93v92h185zM516 891
l-92 185h92l46 -93l46 93h93l-93 -185h-92z" />
    <glyph glyph-name="uni01D6" unicode="&#x1d6;" horiz-adv-x="1125" 
d="M932 739v-647h93v-92h-185v115q-40 -50 -107.5 -82.5t-169.5 -32.5q-111 0 -181 37.5t-109 92.5t-56 109.5t-21 92.5l-3 38v277h-93v92h185v-369l3 -29q2 -28 15 -69t42.5 -82t81.5 -69.5t136 -28.5q83 0 135.5 28.5t81.5 69.5t42 82t15 69l3 29v277h-93v92h185zM656 984
v92h93v-92h-93zM376 983v92h93v-92h-93zM378 1168v92h369v-92h-369z" />
    <glyph glyph-name="uni01D8" unicode="&#x1d8;" horiz-adv-x="1125" 
d="M932 739v-647h93v-92h-185v115q-40 -50 -107.5 -82.5t-169.5 -32.5q-111 0 -181 37.5t-109 92.5t-56 109.5t-21 92.5l-3 38v277h-93v92h185v-369l3 -29q2 -28 15 -69t42.5 -82t81.5 -69.5t136 -28.5q83 0 135.5 28.5t81.5 69.5t42 82t15 69l3 29v277h-93v92h185zM656 984
v92h93v-92h-93zM376 983v92h93v-92h-93zM501 1122l92 185h93l-93 -185h-92z" />
    <glyph glyph-name="uni01DA" unicode="&#x1da;" horiz-adv-x="1125" 
d="M932 739v-647h93v-92h-185v115q-40 -50 -107.5 -82.5t-169.5 -32.5q-111 0 -181 37.5t-109 92.5t-56 109.5t-21 92.5l-3 38v277h-93v92h185v-369l3 -29q2 -28 15 -69t42.5 -82t81.5 -69.5t136 -28.5q83 0 135.5 28.5t81.5 69.5t42 82t15 69l3 29v277h-93v92h185zM656 984
v92h93v-92h-93zM376 983v92h93v-92h-93zM516 1122l-92 185h92l46 -93l46 93h93l-93 -185h-92z" />
    <glyph glyph-name="uni01DC" unicode="&#x1dc;" horiz-adv-x="1125" 
d="M932 739v-647h93v-92h-185v115q-40 -50 -107.5 -82.5t-169.5 -32.5q-111 0 -181 37.5t-109 92.5t-56 109.5t-21 92.5l-3 38v277h-93v92h185v-369l3 -29q2 -28 15 -69t42.5 -82t81.5 -69.5t136 -28.5q83 0 135.5 28.5t81.5 69.5t42 82t15 69l3 29v277h-93v92h185zM656 984
v92h93v-92h-93zM376 983v92h93v-92h-93zM624 1122h-92l-93 185h93z" />
    <glyph glyph-name="uni01DD" unicode="&#x1dd;" horiz-adv-x="847" 
d="M377.028 755q102.994 0 186.489 -49.9971q83.4941 -49.9971 133.491 -133.991q49.9971 -83.9951 49.9971 -185.989q0 -101.993 -41.4971 -185.988q-41.498 -83.9951 -116.493 -133.992t-176.989 -49.9971q-81.9951 0 -140.991 29.998t-96.9941 74.4961
q-37.998 44.4971 -55.9961 91.4941q-17.999 46.9971 -17.999 81.9951v91.9941h554.966q0 114.993 -81.4951 195.988t-196.488 80.9951q-113.993 0 -195.987 -80.9951l-64.9961 64.9961q50.9961 50.9971 117.992 79.9951t142.991 28.998zM412.026 108.039
q89.9951 0 149.491 50.9971t81.4951 133.992h-449.973q0 -46.9971 27.998 -88.9951q27.998 -41.9971 77.4951 -68.9951q49.4971 -26.999 113.493 -26.999z" />
    <glyph glyph-name="uni01DF" unicode="&#x1df;" horiz-adv-x="1031" 
d="M469 0q-102 0 -186 50t-133.5 134t-49.5 186t49.5 186t133.5 134t186 50q83 0 154.5 -33.5t123.5 -92.5v126h184v-93h-92v-554h92v-93h-184v126q-52 -59 -123.5 -92.5t-154.5 -33.5zM469 647q-115 0 -196 -81t-81 -196t81 -196t196 -81t196.5 81t81.5 196t-81.5 196
t-196.5 81zM609 984v92h93v-92h-93zM329 983v92h93v-92h-93zM331 1168v92h369v-92h-369z" />
    <glyph glyph-name="uni01E1" unicode="&#x1e1;" horiz-adv-x="1031" 
d="M469 0q-102 0 -186 50t-133.5 134t-49.5 186t49.5 186t133.5 134t186 50q83 0 154.5 -33.5t123.5 -92.5v126h184v-93h-92v-554h92v-93h-184v126q-52 -59 -123.5 -92.5t-154.5 -33.5zM469 647q-115 0 -196 -81t-81 -196t81 -196t196 -81t196.5 81t81.5 196t-81.5 196
t-196.5 81zM475 931v78h79v-78h-79zM331 1101v92h369v-92h-369z" />
    <glyph glyph-name="uni01E2" unicode="&#x1e2;" horiz-adv-x="1762" 
d="M738 647v740h-137l-185 -740h322zM831 555v-462h739v92h92v-185h-1016v93h92v462h-345l-116 -462h100v-93h-277v93h85l323 1294h-69v92h1223v-185h-92v93h-739v-740h740v-92h-740zM697 1723v92h369v-92h-369z" />
    <glyph glyph-name="uni01E3" unicode="&#x1e3;" horiz-adv-x="1494" 
d="M1083 647q-91 0 -150 -51.5t-81 -133.5h450q0 46 -28.5 88.5t-78 69.5t-112.5 27zM469 647q-115 0 -196 -81t-81 -196t81 -196t196 -81t196.5 81t81.5 196t-81.5 196t-196.5 81zM839 125v-125h-92v126q-52 -59 -123.5 -92.5t-154.5 -33.5q-102 0 -186 50t-133.5 134
t-49.5 186t49.5 186t133.5 134t186 50q83 0 154.5 -33.5t123.5 -92.5v126h92v-109q29 33 67 58q75 50 177 50q82 0 141 -30t96.5 -74t55.5 -91.5t18 -81.5v-93h-554q0 -115 81 -196t196 -81t196 81l65 -65q-50 -51 -117 -79.5t-144 -28.5q-102 0 -186 50q-53 31 -92 75z
M563 984v92h369v-92h-369z" />
    <glyph glyph-name="uni01E4" unicode="&#x1e4;" 
d="M839 0q-204 0 -372 100t-267.5 267.5t-99.5 372.5q0 204 99.5 371.5t267.5 267.5t372 100h185v-185h-92v93h-93q-178 0 -325 -87.5t-234.5 -234.5t-87.5 -325q0 -179 87.5 -326t234.5 -234t325 -87h93v554h-185v93h277v-740h-185zM560 323v93h554v-93h-554z" />
    <glyph glyph-name="uni01E5" unicode="&#x1e5;" horiz-adv-x="1032" 
d="M470 0q-102 0 -186 50t-134 134t-50 186t50 186t134 134t186 50q83 0 154.5 -33.5t122.5 -92.5v126h185v-93h-92v-647l-2 -19q-2 -19 -10.5 -46t-28 -54.5t-54.5 -46.5t-90 -19h-194q-10 -1 -23.5 -5.5t-27.5 -14t-23 -27t-9 -45.5t9 -45.5t23 -27t27.5 -14t23.5 -5.5
h203q10 1 23.5 5.5t27 14t23 27t9.5 45.5h93l-2 -19q-2 -19 -10.5 -46.5t-28 -54.5t-54.5 -46t-90 -19h-185l-19 2q-19 1 -46 9.5t-54.5 28.5t-46.5 54.5t-19 90.5l2 19q1 19 9.5 46t28.5 54.5t55 46.5t90 19h185l9 1q10 0 23.5 4.5t27 14.5t23 27t9.5 45v125
q-51 -58 -122.5 -91.5t-154.5 -33.5zM470 647q-115 0 -196 -81t-81 -196t81 -196t196 -81t196 81t81 196t-81 196t-196 81zM105 -327v93h554v-93h-554z" />
    <glyph glyph-name="Gcaron" unicode="&#x1e6;" 
d="M839 0q-204 0 -372 100t-267.5 267.5t-99.5 372.5q0 204 99.5 371.5t267.5 267.5t372 100h185v-185h-92v93h-93q-178 0 -325 -87.5t-234.5 -234.5t-87.5 -325q0 -179 87.5 -326t234.5 -234t325 -87h93v554h-185v93h277v-740h-185zM516 1630l-92 185h92l46 -93l46 93h93
l-93 -185h-92z" />
    <glyph glyph-name="gcaron" unicode="&#x1e7;" horiz-adv-x="1032" 
d="M470 0q-102 0 -186 50t-134 134t-50 186t50 186t134 134t186 50q83 0 154.5 -33.5t122.5 -92.5v126h185v-93h-92v-647l-2 -19q-2 -19 -10.5 -46t-28 -54.5t-54.5 -46.5t-90 -19h-194q-10 -1 -23.5 -5.5t-27.5 -14t-23 -27t-9 -45.5t9 -45.5t23 -27t27.5 -14t23.5 -5.5
h203q10 1 23.5 5.5t27 14t23 27t9.5 45.5h93l-2 -19q-2 -19 -10.5 -46.5t-28 -54.5t-54.5 -46t-90 -19h-185l-19 2q-19 1 -46 9.5t-54.5 28.5t-46.5 54.5t-19 90.5l2 19q1 19 9.5 46t28.5 54.5t55 46.5t90 19h185l9 1q10 0 23.5 4.5t27 14.5t23 27t9.5 45v125
q-51 -58 -122.5 -91.5t-154.5 -33.5zM470 647q-115 0 -196 -81t-81 -196t81 -196t196 -81t196 81t81 196t-81 196t-196 81zM470 891l-92 185h92l46 -93l46 93h93l-93 -185h-92z" />
    <glyph glyph-name="uni01E8" unicode="&#x1e8;" horiz-adv-x="1145" 
d="M436 841l524 -748h85v-93h-277v93h89l-477 677l-95 -123v-554h93v-93h-278v93h93v1294h-93v92h278v-92h-93v-601l472 601h-102v92h277v-92h-72zM526 1630l-92 185h92l46 -93l46 93h93l-93 -185h-92z" />
    <glyph glyph-name="uni01E9" unicode="&#x1e9;" horiz-adv-x="769" 
d="M285 342v-342h-185v92h93v1294h-93v93h185v-1082l187 250h-81v92h278v-92h-84l-208 -277l208 -278h84v-92h-278v92h81zM338 1612l-92 185h92l46 -93l46 93h93l-93 -185h-92z" />
    <glyph glyph-name="uni01EA" unicode="&#x1ea;" horiz-adv-x="1217" 
d="M609 1479q140 0 255.5 -100t184 -267.5t68.5 -372.5q0 -204 -68.5 -371.5t-184 -267.5t-255.5 -100q-141 0 -256 100t-184 267.5t-69 371.5q0 205 69 372.5t184 267.5t256 100zM609 92q115 0 209 87.5t150.5 234.5t56.5 325q0 179 -56.5 326t-150.5 234t-209 87
t-209.5 -87t-150.5 -234t-56 -326q0 -178 56 -325t150.5 -234.5t209.5 -87.5zM998 -143q-29 -45 -104 -45q-133 1 -134 118q0 135 121 196h70q-100 -27 -100 -144q0 -77 64 -77q44 0 65 24z" />
    <glyph glyph-name="uni01EB" unicode="&#x1eb;" horiz-adv-x="939" 
d="M470 0q-102 0 -186 50t-134 134t-50 186t50 186t134 133.5t186 49.5t186 -49.5t133.5 -133.5t49.5 -186t-49.5 -186t-133.5 -134t-186 -50zM470 647q-115 0 -196.5 -81t-81.5 -196t81.5 -196.5t196.5 -81.5t196 81.5t81 196.5t-81 196t-196 81zM783 -143
q-29 -45 -104 -45q-133 1 -134 118q0 135 121 196h70q-100 -27 -100 -144q0 -77 64 -77q44 0 65 24z" />
    <glyph glyph-name="uni01EC" unicode="&#x1ec;" horiz-adv-x="1217" 
d="M609 1479q140 0 255.5 -100t184 -267.5t68.5 -372.5q0 -204 -68.5 -371.5t-184 -267.5t-255.5 -100q-141 0 -256 100t-184 267.5t-69 371.5q0 205 69 372.5t184 267.5t256 100zM609 92q115 0 209 87.5t150.5 234.5t56.5 325q0 179 -56.5 326t-150.5 234t-209 87
t-209.5 -87t-150.5 -234t-56 -326q0 -178 56 -325t150.5 -234.5t209.5 -87.5zM998 -143q-29 -45 -104 -45q-133 1 -134 118q0 135 121 196h70q-100 -27 -100 -144q0 -77 64 -77q44 0 65 24zM424 1723v92h369v-92h-369z" />
    <glyph glyph-name="uni01ED" unicode="&#x1ed;" horiz-adv-x="939" 
d="M470 0q-102 0 -186 50t-134 134t-50 186t50 186t134 133.5t186 49.5t186 -49.5t133.5 -133.5t49.5 -186t-49.5 -186t-133.5 -134t-186 -50zM470 647q-115 0 -196.5 -81t-81.5 -196t81.5 -196.5t196.5 -81.5t196 81.5t81 196.5t-81 196t-196 81zM783 -143
q-29 -45 -104 -45q-133 1 -134 118q0 135 121 196h70q-100 -27 -100 -144q0 -77 64 -77q44 0 65 24zM285 984v92h369v-92h-369z" />
    <glyph glyph-name="uni01EE" unicode="&#x1ee;" horiz-adv-x="1032" 
d="M741 783q48 -25 91.5 -70.5t71.5 -118t28 -178.5q0 -52 -19 -122.5t-62 -137.5t-114 -111.5t-175 -44.5q-102 0 -186 50t-134 134t-50 186h-92v92h277v-92h-92q0 -115 81 -196.5t196 -81.5q70 0 121.5 31t86.5 79.5t52 105t17 108.5q0 97 -28 158t-69 95.5t-82 49.5
t-70 18l-28 2h-185v93h185q83 0 135.5 28t82 69.5t42 82.5t15.5 69l2 28q0 115 -81 196.5t-196 81.5t-196 -81.5t-81 -196.5h-93q0 102 50 186t134 134t186 50t186 -50t134 -134t50 -186q0 -94 -28 -158.5t-71.5 -105t-91.5 -62.5zM470 1630l-92 185h92l46 -93l46 93h93
l-93 -185h-92z" />
    <glyph glyph-name="uni01EF" unicode="&#x1ef;" horiz-adv-x="847" 
d="M747 185v-185h-647v92l524 555h-431v-93h-93v185h647v-92l-523 -555h431v93h92zM377 891l-92 185h92l46 -93l46 93h93l-93 -185h-92z" />
    <glyph glyph-name="uni01F0" unicode="&#x1f0;" horiz-adv-x="462" 
d="M177 740h185v-93h-93v-739l-1 -19q-2 -19 -10.5 -46.5t-28 -54.5t-54.5 -46t-90 -19q-56 0 -91 19t-54.5 46t-28 54.5t-10.5 46.5l-1 19h92l1 -10q1 -9 5 -22.5t14 -27.5t27.5 -23.5t45.5 -9.5q27 0 44.5 9.5t27.5 23.5t14 27.5t5 22.5l1 10v832zM193 891l-92 185h92
l46 -93l46 93h93l-93 -185h-92z" />
    <glyph glyph-name="uni01F1" unicode="&#x1f1;" horiz-adv-x="2342" 
d="M562 0h-462v93h92v1294h-92v92h462l40 -4q41 -4 103.5 -23.5t133.5 -65t133.5 -126.5t103 -208.5t40.5 -311.5q0 -185 -40.5 -312t-103 -208.5t-133.5 -127t-133.5 -65t-103.5 -23.5zM284 1387v-1294h278l33 3q34 3 86.5 20.5t111.5 57t111 110.5t86 182.5t34 273.5
q0 161 -34 272.5t-86 182.5t-111 110.5t-111.5 57t-86.5 20.5l-33 4h-278zM1316 1479h925v-93l-812 -1294h719v93h93v-185h-925v92l812 1294h-719v-92h-93v185z" />
    <glyph glyph-name="uni01F2" unicode="&#x1f2;" horiz-adv-x="2063" 
d="M562 0h-462v93h92v1294h-92v92h462l40 -4q41 -4 103.5 -23.5t133.5 -65t133.5 -126.5t103 -208.5t40.5 -311.5q0 -185 -40.5 -312t-103 -208.5t-133.5 -127t-133.5 -65t-103.5 -23.5zM284 1387v-1294h278l33 3q34 3 86.5 20.5t111.5 57t111 110.5t86 182.5t34 273.5
q0 161 -34 272.5t-86 182.5t-111 110.5t-111.5 57t-86.5 20.5l-33 4h-278zM1963 185v-185h-647v92l524 555h-431v-93h-93v185h647v-92l-523 -555h431v93h92z" />
    <glyph glyph-name="uni01F3" unicode="&#x1f3;" horiz-adv-x="1879" 
d="M470 0q-102 0 -186 50t-134 134t-50 186t50 186t134 134t186 50q83 0 154.5 -33.5t122.5 -92.5v865h185v-92h-93v-1294h93v-93h-185v126q-51 -59 -122.5 -92.5t-154.5 -33.5zM470 647q-115 0 -196.5 -81t-81.5 -196t81.5 -196t196.5 -81t196 81t81 196t-81 196t-196 81z
M1779 185v-185h-647v92l524 555h-431v-93h-93v185h647v-92l-523 -555h431v93h92z" />
    <glyph glyph-name="uni01F4" unicode="&#x1f4;" 
d="M839 0q-204 0 -372 100t-267.5 267.5t-99.5 372.5q0 204 99.5 371.5t267.5 267.5t372 100h185v-185h-92v93h-93q-178 0 -325 -87.5t-234.5 -234.5t-87.5 -325q0 -179 87.5 -326t234.5 -234t325 -87h93v554h-185v93h277v-740h-185zM728 1630l92 185h93l-93 -185h-92z" />
    <glyph glyph-name="uni01F5" unicode="&#x1f5;" horiz-adv-x="1032" 
d="M470 0q-102 0 -186 50t-134 134t-50 186t50 186t134 134t186 50q83 0 154.5 -33.5t122.5 -92.5v126h185v-93h-92v-647l-2 -19q-2 -19 -10.5 -46t-28 -54.5t-54.5 -46.5t-90 -19h-194q-10 -1 -23.5 -5.5t-27.5 -14t-23 -27t-9 -45.5t9 -45.5t23 -27t27.5 -14t23.5 -5.5
h203q10 1 23.5 5.5t27 14t23 27t9.5 45.5h93l-2 -19q-2 -19 -10.5 -46.5t-28 -54.5t-54.5 -46t-90 -19h-185l-19 2q-19 1 -46 9.5t-54.5 28.5t-46.5 54.5t-19 90.5l2 19q1 19 9.5 46t28.5 54.5t55 46.5t90 19h185l9 1q10 0 23.5 4.5t27 14.5t23 27t9.5 45v125
q-51 -58 -122.5 -91.5t-154.5 -33.5zM470 647q-115 0 -196 -81t-81 -196t81 -196t196 -81t196 81t81 196t-81 196t-196 81zM454 891l92 185h93l-93 -185h-92z" />
    <glyph glyph-name="uni01F8" unicode="&#x1f8;" horiz-adv-x="1217" 
d="M1117 1386h-92v-1294h92v-92h-185l-647 1273v-1181h93v-92h-278v92h93v1294h-93v93h185l647 -1274v1274h185v-93zM670 1630h-92l-93 185h93z" />
    <glyph glyph-name="uni01F9" unicode="&#x1f9;" 
d="M377 92v-92h-277v92h92v555h-92v92h185v-114q40 49 107 81.5t170 32.5q111 0 181 -37.5t109 -92t56 -109.5t20 -93l4 -37v-278h92v-92h-277v92h92v278l-2 28q-3 28 -15.5 69t-42 82t-82 69.5t-135.5 28.5t-135.5 -28.5t-82 -69.5t-42 -82t-15.5 -69l-2 -28v-278h92z
M624 891h-92l-93 185h93z" />
    <glyph glyph-name="aringacute" unicode="&#x1fb;" horiz-adv-x="1031" 
d="M469 0q-102 0 -186 50t-133.5 134t-49.5 186t49.5 186t133.5 134t186 50q83 0 154.5 -33.5t123.5 -92.5v126h184v-93h-92v-554h92v-93h-184v126q-52 -59 -123.5 -92.5t-154.5 -33.5zM469 647q-115 0 -196 -81t-81 -196t81 -196t196 -81t196.5 81t81.5 196t-81.5 196
t-196.5 81zM515 693q-52 0 -95.5 25.5t-69.5 69t-26 96.5t26 96.5t69.5 69.5t95.5 26q53 0 96.5 -26t69.5 -69.5t26 -96.5t-26 -96.5t-69.5 -69t-96.5 -25.5zM515 984q-41 0 -70.5 -29t-29.5 -71q0 -41 29.5 -70.5t70.5 -29.5q42 0 71 29.5t29 70.5q0 42 -29 71t-71 29z
M682 886l92 185h93l-93 -185h-92z" />
    <glyph glyph-name="AEacute" unicode="&#x1fc;" horiz-adv-x="1762" 
d="M738 647v740h-137l-185 -740h322zM831 555v-462h739v92h92v-185h-1016v93h92v462h-345l-116 -462h100v-93h-277v93h85l323 1294h-69v92h1223v-185h-92v93h-739v-740h740v-92h-740zM819 1630l92 185h93l-93 -185h-92z" />
    <glyph glyph-name="aeacute" unicode="&#x1fd;" horiz-adv-x="1494" 
d="M1083 647q-91 0 -150 -51.5t-81 -133.5h450q0 46 -28.5 88.5t-78 69.5t-112.5 27zM469 647q-115 0 -196 -81t-81 -196t81 -196t196 -81t196.5 81t81.5 196t-81.5 196t-196.5 81zM839 125v-125h-92v126q-52 -59 -123.5 -92.5t-154.5 -33.5q-102 0 -186 50t-133.5 134
t-49.5 186t49.5 186t133.5 134t186 50q83 0 154.5 -33.5t123.5 -92.5v126h92v-109q29 33 67 58q75 50 177 50q82 0 141 -30t96.5 -74t55.5 -91.5t18 -81.5v-93h-554q0 -115 81 -196t196 -81t196 81l65 -65q-50 -51 -117 -79.5t-144 -28.5q-102 0 -186 50q-53 31 -92 75z
M685 891l92 185h93l-93 -185h-92z" />
    <glyph glyph-name="Oslashacute" unicode="&#x1fe;" horiz-adv-x="1217" 
d="M609 1479q140 0 255.5 -100t184 -267.5t68.5 -372.5q0 -204 -68.5 -371.5t-184 -267.5t-255.5 -100q-141 0 -256 100t-184 267.5t-69 371.5q0 205 69 372.5t184 267.5t256 100zM609 92q115 0 209 87.5t150.5 234.5t56.5 325q0 179 -56.5 326t-150.5 234t-209 87
t-209.5 -87t-150.5 -234t-56 -326q0 -178 56 -325t150.5 -234.5t209.5 -87.5zM239 0l626 1479h113l-626 -1479h-113zM547 1630l92 185h93l-93 -185h-92z" />
    <glyph glyph-name="oslashacute" unicode="&#x1ff;" horiz-adv-x="939" 
d="M470 0q-102 0 -186 50t-134 134t-50 186t50 186t134 133.5t186 49.5t186 -49.5t133.5 -133.5t49.5 -186t-49.5 -186t-133.5 -134t-186 -50zM470 647q-115 0 -196.5 -81t-81.5 -196t81.5 -196.5t196.5 -81.5t196 81.5t81 196.5t-81 196t-196 81zM100 -359l626 1479h113
l-626 -1479h-113zM408 891l92 185h93l-93 -185h-92z" />
    <glyph glyph-name="uni0200" unicode="&#x200;" horiz-adv-x="1248" 
d="M377 93v-93h-277v93h85l323 1294h-69v92h277l347 -1386h85v-93h-278v93h100l-115 462h-462l-116 -462h100zM601 1387l-185 -740h416l-185 740h-46zM624 1630h-92l-93 185h93zM809 1630h-92l-93 185h93z" />
    <glyph glyph-name="uni0201" unicode="&#x201;" horiz-adv-x="1031" 
d="M469 0q-102 0 -186 50t-133.5 134t-49.5 186t49.5 186t133.5 134t186 50q83 0 154.5 -33.5t123.5 -92.5v126h184v-93h-92v-554h92v-93h-184v126q-52 -59 -123.5 -92.5t-154.5 -33.5zM469 647q-115 0 -196 -81t-81 -196t81 -196t196 -81t196.5 81t81.5 196t-81.5 196
t-196.5 81zM516 891h-92l-93 185h93zM701 891h-92l-93 185h93z" />
    <glyph glyph-name="uni0202" unicode="&#x202;" horiz-adv-x="1248" 
d="M377 93v-93h-277v93h85l323 1294h-69v92h277l347 -1386h85v-93h-278v93h100l-115 462h-462l-116 -462h100zM601 1387l-185 -740h416l-185 740h-46zM725 1624q0 41 -29.5 70.5t-70.5 29.5q-42 0 -71 -29.5t-29 -70.5h-92q0 53 26 96.5t69.5 69t96.5 25.5q52 0 95.5 -25.5
t69.5 -69t26 -96.5h-91z" />
    <glyph glyph-name="uni0203" unicode="&#x203;" horiz-adv-x="1031" 
d="M469 0q-102 0 -186 50t-133.5 134t-49.5 186t49.5 186t133.5 134t186 50q83 0 154.5 -33.5t123.5 -92.5v126h184v-93h-92v-554h92v-93h-184v126q-52 -59 -123.5 -92.5t-154.5 -33.5zM469 647q-115 0 -196 -81t-81 -196t81 -196t196 -81t196.5 81t81.5 196t-81.5 196
t-196.5 81zM616 885q0 41 -29.5 70.5t-70.5 29.5q-42 0 -71 -29.5t-29 -70.5h-92q0 53 26 96.5t69.5 69t96.5 25.5q52 0 95.5 -25.5t69.5 -69t26 -96.5h-91z" />
    <glyph glyph-name="uni0204" unicode="&#x204;" horiz-adv-x="1216" 
d="M1116 0h-1016v93h92v1294h-92v92h1016v-185h-92v93h-739v-647h739v-93h-739v-554h739v92h92v-185zM608 1630h-92l-93 185h93zM793 1630h-92l-93 185h93z" />
    <glyph glyph-name="uni0205" unicode="&#x205;" horiz-adv-x="847" 
d="M470 0q-103 0 -186.5 50t-133.5 134t-50 186t41.5 186t116.5 134t177 50q82 0 141 -30t97 -74.5t56 -91.5t18 -82v-92h-555q0 -115 81.5 -196t196.5 -81q114 0 196 81l65 -65q-51 -51 -118 -80t-143 -29zM435 647q-90 0 -149.5 -51t-81.5 -134h450q0 47 -28 89t-77.5 69
t-113.5 27zM424 891h-92l-93 185h93zM609 891h-92l-93 185h93z" />
    <glyph glyph-name="uni0206" unicode="&#x206;" horiz-adv-x="1216" 
d="M1116 0h-1016v93h92v1294h-92v92h1016v-185h-92v93h-739v-647h739v-93h-739v-554h739v92h92v-185zM709 1624q0 41 -29.5 70.5t-70.5 29.5q-42 0 -71 -29.5t-29 -70.5h-92q0 53 26 96.5t69.5 69t96.5 25.5q52 0 95.5 -25.5t69.5 -69t26 -96.5h-91z" />
    <glyph glyph-name="uni0207" unicode="&#x207;" horiz-adv-x="847" 
d="M470 0q-103 0 -186.5 50t-133.5 134t-50 186t41.5 186t116.5 134t177 50q82 0 141 -30t97 -74.5t56 -91.5t18 -82v-92h-555q0 -115 81.5 -196t196.5 -81q114 0 196 81l65 -65q-51 -51 -118 -80t-143 -29zM435 647q-90 0 -149.5 -51t-81.5 -134h450q0 47 -28 89t-77.5 69
t-113.5 27zM524 885q0 41 -29.5 70.5t-70.5 29.5q-42 0 -71 -29.5t-29 -70.5h-92q0 53 26 96.5t69.5 69t96.5 25.5q52 0 95.5 -25.5t69.5 -69t26 -96.5h-91z" />
    <glyph glyph-name="uni0208" unicode="&#x208;" horiz-adv-x="477" 
d="M377 93v-93h-277v93h92v1294h-92v92h277v-92h-92v-1294h92zM239 1630h-92l-93 185h93zM424 1630h-92l-93 185h93z" />
    <glyph glyph-name="uni0209" unicode="&#x209;" horiz-adv-x="477" 
d="M377 93v-93h-277v93h92v554h-92v93h185v-647h92zM239 891h-92l-93 185h93zM424 891h-92l-93 185h93z" />
    <glyph glyph-name="uni020A" unicode="&#x20a;" horiz-adv-x="477" 
d="M378 93v-93h-277v93h92v1294h-92v92h277v-92h-92v-1294h92zM340 1624q0 41 -29.5 70.5t-70.5 29.5q-42 0 -71 -29.5t-29 -70.5h-92q0 53 26 96.5t69.5 69t96.5 25.5q52 0 95.5 -25.5t69.5 -69t26 -96.5h-91z" />
    <glyph glyph-name="uni020B" unicode="&#x20b;" horiz-adv-x="477" 
d="M377 93v-93h-277v93h92v554h-92v93h185v-647h92zM339 885q0 41 -29.5 70.5t-70.5 29.5q-42 0 -71 -29.5t-29 -70.5h-92q0 53 26 96.5t69.5 69t96.5 25.5q52 0 95.5 -25.5t69.5 -69t26 -96.5h-91z" />
    <glyph glyph-name="uni020C" unicode="&#x20c;" horiz-adv-x="1217" 
d="M609 1479q140 0 255.5 -100t184 -267.5t68.5 -372.5q0 -204 -68.5 -371.5t-184 -267.5t-255.5 -100q-141 0 -256 100t-184 267.5t-69 371.5q0 205 69 372.5t184 267.5t256 100zM609 92q115 0 209 87.5t150.5 234.5t56.5 325q0 179 -56.5 326t-150.5 234t-209 87
t-209.5 -87t-150.5 -234t-56 -326q0 -178 56 -325t150.5 -234.5t209.5 -87.5zM609 1630h-92l-93 185h93zM794 1630h-92l-93 185h93z" />
    <glyph glyph-name="uni020D" unicode="&#x20d;" horiz-adv-x="939" 
d="M470 0q-102 0 -186 50t-134 134t-50 186t50 186t134 133.5t186 49.5t186 -49.5t133.5 -133.5t49.5 -186t-49.5 -186t-133.5 -134t-186 -50zM470 647q-115 0 -196.5 -81t-81.5 -196t81.5 -196.5t196.5 -81.5t196 81.5t81 196.5t-81 196t-196 81zM470 891h-92l-93 185h93z
M655 891h-92l-93 185h93z" />
    <glyph glyph-name="uni020E" unicode="&#x20e;" horiz-adv-x="1217" 
d="M609 1479q140 0 255.5 -100t184 -267.5t68.5 -372.5q0 -204 -68.5 -371.5t-184 -267.5t-255.5 -100q-141 0 -256 100t-184 267.5t-69 371.5q0 205 69 372.5t184 267.5t256 100zM609 92q115 0 209 87.5t150.5 234.5t56.5 325q0 179 -56.5 326t-150.5 234t-209 87
t-209.5 -87t-150.5 -234t-56 -326q0 -178 56 -325t150.5 -234.5t209.5 -87.5zM709 1624q0 41 -29.5 70.5t-70.5 29.5q-42 0 -71 -29.5t-29 -70.5h-92q0 53 26 96.5t69.5 69t96.5 25.5q52 0 95.5 -25.5t69.5 -69t26 -96.5h-91z" />
    <glyph glyph-name="uni020F" unicode="&#x20f;" horiz-adv-x="939" 
d="M470 0q-102 0 -186 50t-134 134t-50 186t50 186t134 133.5t186 49.5t186 -49.5t133.5 -133.5t49.5 -186t-49.5 -186t-133.5 -134t-186 -50zM470 647q-115 0 -196.5 -81t-81.5 -196t81.5 -196.5t196.5 -81.5t196 81.5t81 196.5t-81 196t-196 81zM570 885q0 41 -29.5 70.5
t-70.5 29.5q-42 0 -71 -29.5t-29 -70.5h-92q0 53 26 96.5t69.5 69t96.5 25.5q52 0 95.5 -25.5t69.5 -69t26 -96.5h-91z" />
    <glyph glyph-name="uni0210" unicode="&#x210;" horiz-adv-x="1175" 
d="M775 580l210 -488h90v-92h-277v92h84l-199 465l-29 -2h-369v-463h92v-92h-277v92h92v1294h-92v93h462l34 -3q33 -2 85.5 -14.5t111.5 -40.5t111.5 -79t86 -130.5t33.5 -194.5q0 -107 -23.5 -183t-60.5 -126.5t-80 -81t-85 -46.5zM654 647l29 3q28 4 69 21t82 56t69.5 109
t28.5 181t-38 180.5t-92.5 109t-109.5 56.5t-92 20l-38 3h-277v-739h369zM588 1630h-92l-93 185h93zM773 1630h-92l-93 185h93z" />
    <glyph glyph-name="uni0211" unicode="&#x211;" horiz-adv-x="847" 
d="M469 647q-55 0 -90 -19t-54.5 -46t-28 -54.5t-10.5 -46.5l-1 -19v-370h92v-92h-277v92h92v555h-92v92h185v-62q30 28 75.5 45t108.5 17q84 0 136 -28t81.5 -69t42.5 -82t15 -70l3 -28h-93l-1 19q-2 19 -10.5 46.5t-28 54.5t-54.5 46t-91 19zM424 891h-92l-93 185h93z
M609 891h-92l-93 185h93z" />
    <glyph glyph-name="uni0212" unicode="&#x212;" horiz-adv-x="1175" 
d="M775 580l210 -488h90v-92h-277v92h84l-199 465l-29 -2h-369v-463h92v-92h-277v92h92v1294h-92v93h462l34 -3q33 -2 85.5 -14.5t111.5 -40.5t111.5 -79t86 -130.5t33.5 -194.5q0 -107 -23.5 -183t-60.5 -126.5t-80 -81t-85 -46.5zM654 647l29 3q28 4 69 21t82 56t69.5 109
t28.5 181t-38 180.5t-92.5 109t-109.5 56.5t-92 20l-38 3h-277v-739h369zM688 1624q0 41 -29.5 70.5t-70.5 29.5q-42 0 -71 -29.5t-29 -70.5h-92q0 53 26 96.5t69.5 69t96.5 25.5q52 0 95.5 -25.5t69.5 -69t26 -96.5h-91z" />
    <glyph glyph-name="uni0213" unicode="&#x213;" horiz-adv-x="847" 
d="M469 647q-55 0 -90 -19t-54.5 -46t-28 -54.5t-10.5 -46.5l-1 -19v-370h92v-92h-277v92h92v555h-92v92h185v-62q30 28 75.5 45t108.5 17q84 0 136 -28t81.5 -69t42.5 -82t15 -70l3 -28h-93l-1 19q-2 19 -10.5 46.5t-28 54.5t-54.5 46t-91 19zM524 885q0 41 -29.5 70.5
t-70.5 29.5q-42 0 -71 -29.5t-29 -70.5h-92q0 53 26 96.5t69.5 69t96.5 25.5q52 0 95.5 -25.5t69.5 -69t26 -96.5h-91z" />
    <glyph glyph-name="uni0214" unicode="&#x214;" 
d="M746 1386v93h278v-93h-93v-1016l-3 -38q-3 -38 -20 -92.5t-56.5 -109.5t-109 -92.5t-180.5 -37.5t-181 37.5t-109 92.5t-56 109.5t-21 92.5l-3 38v1016h-92v93h277v-93h-93v-1016l3 -29q2 -28 15 -69t42.5 -82t81.5 -69.5t136 -28.5q83 0 135.5 28.5t81.5 69.5t42 82
t15 69l3 29v1016h-93zM562 1630h-92l-93 185h93zM747 1630h-92l-93 185h93z" />
    <glyph glyph-name="uni0215" unicode="&#x215;" horiz-adv-x="1125" 
d="M932 739v-647h93v-92h-185v115q-40 -50 -107.5 -82.5t-169.5 -32.5q-111 0 -181 37.5t-109 92.5t-56 109.5t-21 92.5l-3 38v277h-93v92h185v-369l3 -29q2 -28 15 -69t42.5 -82t81.5 -69.5t136 -28.5q83 0 135.5 28.5t81.5 69.5t42 82t15 69l3 29v277h-93v92h185zM563 891
h-92l-93 185h93zM748 891h-92l-93 185h93z" />
    <glyph glyph-name="uni0216" unicode="&#x216;" 
d="M746 1386v93h278v-93h-93v-1016l-3 -38q-3 -38 -20 -92.5t-56.5 -109.5t-109 -92.5t-180.5 -37.5t-181 37.5t-109 92.5t-56 109.5t-21 92.5l-3 38v1016h-92v93h277v-93h-93v-1016l3 -29q2 -28 15 -69t42.5 -82t81.5 -69.5t136 -28.5q83 0 135.5 28.5t81.5 69.5t42 82
t15 69l3 29v1016h-93zM663 1624q0 41 -29.5 70.5t-70.5 29.5q-42 0 -71 -29.5t-29 -70.5h-92q0 53 26 96.5t69.5 69t96.5 25.5q52 0 95.5 -25.5t69.5 -69t26 -96.5h-91z" />
    <glyph glyph-name="uni0217" unicode="&#x217;" horiz-adv-x="1125" 
d="M932 739v-647h93v-92h-185v115q-40 -50 -107.5 -82.5t-169.5 -32.5q-111 0 -181 37.5t-109 92.5t-56 109.5t-21 92.5l-3 38v277h-93v92h185v-369l3 -29q2 -28 15 -69t42.5 -82t81.5 -69.5t136 -28.5q83 0 135.5 28.5t81.5 69.5t42 82t15 69l3 29v277h-93v92h185zM663 885
q0 41 -29.5 70.5t-70.5 29.5q-42 0 -71 -29.5t-29 -70.5h-92q0 53 26 96.5t69.5 69t96.5 25.5q52 0 95.5 -25.5t69.5 -69t26 -96.5h-91z" />
    <glyph glyph-name="uni0218" unicode="&#x218;" horiz-adv-x="1032" 
d="M562 1386q-114 0 -195.5 -81t-81.5 -196q0 -64 41 -117t106.5 -100.5t141.5 -95.5q65 -41 128.5 -85t115 -95t83 -111.5t31.5 -134.5q0 -102 -50 -186t-133.5 -134t-186.5 -50q-102 0 -186 50t-133.5 134t-49.5 186h-93v92h278v-92h-93q0 -115 81.5 -196.5t195.5 -81.5
q115 0 196.5 81.5t81.5 196.5q0 64 -41 117t-106.5 100.5t-141.5 95.5q-65 40 -128.5 84.5t-115.5 95.5t-83 111.5t-31 134.5q0 102 49.5 186t133.5 134t186 50q103 0 186.5 -50t133.5 -134t50 -186h-92q0 115 -81.5 196t-196.5 81zM553 -155l-20 -59h-55l20 59h-20v55h75
v-55z" />
    <glyph glyph-name="uni0219" unicode="&#x219;" horiz-adv-x="662" 
d="M331 739q68 0 119 -25.5t80 -66.5h32v-92h-92q0 27 -14.5 44.5t-35 27.5t-41 14t-34.5 5l-14 1l-14 -1q-14 -1 -34.5 -5t-41 -14t-35 -27.5t-14.5 -44.5q0 -42 22.5 -67.5t58 -42t76.5 -30.5q52 -18 100.5 -42.5t80.5 -68t32 -119.5q0 -46 -29 -88.5t-81 -69.5t-121 -27
q-68 0 -119 26t-80 66h-32v93h92q0 -28 14.5 -45.5t35 -27t41 -14t34.5 -5.5l14 -1l14 1q14 1 34.5 5.5t41 14t35 27t14.5 45.5q0 41 -22 66.5t-57.5 42t-77.5 31.5q-52 17 -100.5 41.5t-80.5 68t-32 120.5q0 46 29 88t81 69t121 27zM368 -155l-20 -59h-55l20 59h-20v55h75
v-55z" />
    <glyph glyph-name="uni021A" unicode="&#x21a;" horiz-adv-x="1032" 
d="M100 1294v185h832v-185h-92v92h-277v-1294h92v-92h-277v92h92v1294h-277v-92h-93zM553 -155l-20 -59h-55l20 59h-20v55h75v-55z" />
    <glyph glyph-name="uni021B" unicode="&#x21b;" horiz-adv-x="570" 
d="M100 1479h93v-740h277v-92h-277v-370q0 -55 19 -90t46 -54.5t54.5 -28t46.5 -10.5l19 -2h92v-92h-92q-83 0 -135.5 28.5t-82 69.5t-42.5 82t-15 69l-3 28v1202zM322 -155l-20 -59h-55l20 59h-20v55h75v-55z" />
    <glyph glyph-name="uni021C" unicode="&#x21c;" horiz-adv-x="1032" 
d="M741 783q48 -25 91.5 -70.5t71.5 -118t28 -178.5q0 -52 -19 -122.5t-62 -137.5t-114 -111.5t-175 -44.5q-102 0 -186 50t-134 134t-50 186h-92v92h277v-92h-92q0 -115 81 -196.5t196 -81.5q70 0 121.5 31t86.5 79.5t52 105t17 108.5q0 97 -28 158t-69 95.5t-82 49.5
t-70 18l-28 2h-185v93h185q83 0 135.5 28t82 69.5t42 82.5t15.5 69l2 28q0 115 -81 196.5t-196 81.5t-196 -81.5t-81 -196.5h-93q0 102 50 186t134 134t186 50t186 -50t134 -134t50 -186q0 -94 -28 -158.5t-71.5 -105t-91.5 -62.5z" />
    <glyph glyph-name="uni021D" unicode="&#x21d;" horiz-adv-x="782" 
d="M548.709 529.109q33.6006 -17.5 64.0508 -49.3506q30.4512 -31.8506 50.0508 -82.6016q19.6006 -50.751 19.6006 -124.952q0 -36.4004 -13.2998 -85.752q-13.3008 -49.3506 -43.4014 -96.251q-30.1006 -46.9014 -79.8008 -78.0518q-49.7012 -31.1504 -122.502 -31.1504
q-71.4014 0 -130.202 35.001q-58.8018 35 -93.8018 93.8018q-35.001 58.8008 -35.001 130.202h-64.4014v64.4004h193.903v-64.4004h-64.4004q0 -80.502 56.7002 -137.553q56.7012 -57.0508 137.203 -57.0508q49.001 0 85.0508 21.7002q36.0508 21.7002 60.5518 55.6514
q24.5 33.9502 36.4004 73.501t11.9004 75.9512q0 67.9014 -19.6006 110.602q-19.6006 42.7012 -48.3008 66.8516t-57.4014 34.6504q-28.7002 10.5 -49.001 12.6006l-19.5996 1.39941h-129.503v65.1016h129.503q58.1006 0 94.8516 19.6006q36.75 19.6006 57.4004 48.6504
q20.6504 29.0508 29.4004 57.751q8.75098 28.7012 10.8506 48.3008l1.40039 19.6006q0 80.501 -56.7012 137.553q-56.7012 57.0508 -137.202 57.0508q-80.502 0 -137.203 -57.0508q-56.7002 -57.0518 -56.7002 -137.553h-65.1016q0 71.4014 35.001 130.202
q35 58.8008 93.8018 93.8018q58.8008 35.001 130.202 35.001t130.202 -35.001t93.8018 -93.8018q35 -58.8008 35 -130.202q0 -65.8008 -19.6006 -110.952q-19.5996 -45.1504 -50.0508 -73.501q-30.4502 -28.3506 -64.0508 -43.751z" />
    <glyph glyph-name="uni021E" unicode="&#x21e;" horiz-adv-x="1309" 
d="M1209 93v-93h-277v93h93v554h-740v-554h93v-93h-278v93h93v1294h-93v92h278v-92h-93v-647h740v647h-93v92h277v-92h-92v-1294h92zM608 1630l-92 185h92l46 -93l46 93h93l-93 -185h-92z" />
    <glyph glyph-name="uni021F" unicode="&#x21f;" 
d="M747 93h92v277l-2 28q-3 28 -15.5 69.5t-42 82.5t-82 69t-135.5 28t-135.5 -28t-82 -69t-42 -82.5t-15.5 -69.5l-2 -28v-277h92v-93h-277v93h92v1294h-92v92h185v-854q40 49 107.5 82t169.5 33q111 0 181 -38t109 -92.5t56 -109.5t21 -92l3 -38v-277h92v-93h-277v93z
M516 1630l-92 185h92l46 -93l46 93h93l-93 -185h-92z" />
    <glyph glyph-name="uni0220" unicode="&#x220;" 
d="M527.81 128.803v-128.803h-387.808v128.803h128.803v777.013h-128.803v128.803h259.005v-159.603q56.001 68.6006 149.803 114.102t238.004 45.501q155.403 0 253.404 -52.501q98.002 -52.501 152.603 -128.803q54.6016 -76.3008 78.4023 -153.303
q23.7998 -77.001 28 -130.202l5.59961 -51.8008v-389.206h128.803v-128.803h-387.807v128.803h128.802v389.206l-2.7998 39.2012q-4.2002 39.2002 -21.7002 96.6016t-58.8008 114.802q-41.3008 57.4014 -114.803 97.3018q-73.501 39.9004 -189.703 39.9004
t-189.703 -39.9004t-114.802 -97.3018q-41.3008 -57.4004 -58.8008 -114.802q-17.501 -57.4014 -21.7012 -96.6016l-2.7998 -39.2012v-389.206h128.803z" />
    <glyph glyph-name="uni0221" unicode="&#x221;" horiz-adv-x="1032" 
d="M470 0q-102 0 -186 50t-134 134t-50 186t50 186t134 134t186 50q83 0 154.5 -33.5t122.5 -92.5v865h185v-92h-93v-1294h93v-93h-185v126q-51 -59 -122.5 -92.5t-154.5 -33.5zM470 647q-115 0 -196.5 -81t-81.5 -196t81.5 -196t196.5 -81t196 81t81 196t-81 196t-196 81z
" />
    <glyph glyph-name="uni0224" unicode="&#x224;" horiz-adv-x="1125" 
d="M100 1479h925v-93l-812 -1294h719v93h93v-185h-925v92l812 1294h-719v-92h-93v185z" />
    <glyph glyph-name="uni0225" unicode="&#x225;" horiz-adv-x="847" 
d="M747 185v-185h-647v92l524 555h-431v-93h-93v185h647v-92l-523 -555h431v93h92z" />
    <glyph glyph-name="uni0226" unicode="&#x226;" horiz-adv-x="1248" 
d="M377 93v-93h-277v93h85l323 1294h-69v92h277l347 -1386h85v-93h-278v93h100l-115 462h-462l-116 -462h100zM601 1387l-185 -740h416l-185 740h-46zM584 1670v78h79v-78h-79z" />
    <glyph glyph-name="uni0227" unicode="&#x227;" horiz-adv-x="1031" 
d="M469 0q-102 0 -186 50t-133.5 134t-49.5 186t49.5 186t133.5 134t186 50q83 0 154.5 -33.5t123.5 -92.5v126h184v-93h-92v-554h92v-93h-184v126q-52 -59 -123.5 -92.5t-154.5 -33.5zM469 647q-115 0 -196 -81t-81 -196t81 -196t196 -81t196.5 81t81.5 196t-81.5 196
t-196.5 81zM475 931v78h79v-78h-79z" />
    <glyph glyph-name="uni0228" unicode="&#x228;" horiz-adv-x="1216" 
d="M1116 0h-1016v93h92v1294h-92v92h1016v-185h-92v93h-739v-647h739v-93h-739v-554h739v92h92v-185zM654 -41v93h93v-93l-2 -19q-2 -19 -10.5 -46t-28 -54.5t-54.5 -46.5t-90 -19h-93v93h93l9 1q10 0 23.5 4.5t27 14t23 27t9.5 45.5z" />
    <glyph glyph-name="uni0229" unicode="&#x229;" horiz-adv-x="847" 
d="M470 0q-103 0 -186.5 50t-133.5 134t-50 186t41.5 186t116.5 134t177 50q82 0 141 -30t97 -74.5t56 -91.5t18 -82v-92h-555q0 -115 81.5 -196t196.5 -81q114 0 196 81l65 -65q-51 -51 -118 -80t-143 -29zM435 647q-90 0 -149.5 -51t-81.5 -134h450q0 47 -28 89t-77.5 69
t-113.5 27zM470 -41v93h93v-93l-2 -19q-2 -19 -10.5 -46t-28 -54.5t-54.5 -46.5t-90 -19h-93v93h93l9 1q10 0 23.5 4.5t27 14t23 27t9.5 45.5z" />
    <glyph glyph-name="uni022B" unicode="&#x22b;" horiz-adv-x="939" 
d="M470 0q-102 0 -186 50t-134 134t-50 186t50 186t134 133.5t186 49.5t186 -49.5t133.5 -133.5t49.5 -186t-49.5 -186t-133.5 -134t-186 -50zM470 647q-115 0 -196.5 -81t-81.5 -196t81.5 -196.5t196.5 -81.5t196 81.5t81 196.5t-81 196t-196 81zM563 984v92h93v-92h-93z
M283 983v92h93v-92h-93zM285 1168v92h369v-92h-369z" />
    <glyph glyph-name="uni022D" unicode="&#x22d;" horiz-adv-x="939" 
d="M470 0q-102 0 -186 50t-134 134t-50 186t50 186t134 133.5t186 49.5t186 -49.5t133.5 -133.5t49.5 -186t-49.5 -186t-133.5 -134t-186 -50zM470 647q-115 0 -196.5 -81t-81.5 -196t81.5 -196.5t196.5 -81.5t196 81.5t81 196.5t-81 196t-196 81zM606 1076l76 -39
q-24 -45 -54 -67t-61 -26q-16 -2 -31 -2h-10q-37 3 -59 12l-16 7l-8 3q-9 4 -23 6l-8 1q-10 0 -20 -2q-15 -2 -30 -13t-28 -33l-76 39q24 45 53.5 67t61.5 26q17 2 31 2h10l16 -2q27 -3 48.5 -11t38.5 -9q32 0 52 8q24 10 37 33zM285 1168v92h369v-92h-369z" />
    <glyph glyph-name="uni022E" unicode="&#x22e;" horiz-adv-x="1217" 
d="M609 1479q140 0 255.5 -100t184 -267.5t68.5 -372.5q0 -204 -68.5 -371.5t-184 -267.5t-255.5 -100q-141 0 -256 100t-184 267.5t-69 371.5q0 205 69 372.5t184 267.5t256 100zM609 92q115 0 209 87.5t150.5 234.5t56.5 325q0 179 -56.5 326t-150.5 234t-209 87
t-209.5 -87t-150.5 -234t-56 -326q0 -178 56 -325t150.5 -234.5t209.5 -87.5zM568 1670v78h79v-78h-79z" />
    <glyph glyph-name="uni022F" unicode="&#x22f;" horiz-adv-x="939" 
d="M470 0q-102 0 -186 50t-134 134t-50 186t50 186t134 133.5t186 49.5t186 -49.5t133.5 -133.5t49.5 -186t-49.5 -186t-133.5 -134t-186 -50zM470 647q-115 0 -196.5 -81t-81.5 -196t81.5 -196.5t196.5 -81.5t196 81.5t81 196.5t-81 196t-196 81zM429 931v78h79v-78h-79z
" />
    <glyph glyph-name="uni0231" unicode="&#x231;" horiz-adv-x="939" 
d="M470 0q-102 0 -186 50t-134 134t-50 186t50 186t134 133.5t186 49.5t186 -49.5t133.5 -133.5t49.5 -186t-49.5 -186t-133.5 -134t-186 -50zM470 647q-115 0 -196.5 -81t-81.5 -196t81.5 -196.5t196.5 -81.5t196 81.5t81 196.5t-81 196t-196 81zM429 931v78h79v-78h-79z
M285 1101v92h369v-92h-369z" />
    <glyph glyph-name="uni0232" unicode="&#x232;" horiz-adv-x="1186" 
d="M809 1386v93h277v-93h-82l-365 -647v-647h93v-92h-278v92h93v647l-366 647h-81v93h277v-93h-83l299 -544l298 544h-82zM409 1723v92h369v-92h-369z" />
    <glyph glyph-name="uni0233" unicode="&#x233;" horiz-adv-x="950" 
d="M572 648v92h278v-92h-83l-339 -1017h-184v93h122l82 253l-261 671h-87v92h277v-92h-87l206 -524l170 524h-94zM291 984v92h369v-92h-369z" />
    <glyph glyph-name="uni0234" unicode="&#x234;" horiz-adv-x="477" 
d="M284 1479v-1387h93v-92h-185v1386h-92v93h184z" />
    <glyph glyph-name="uni0235" unicode="&#x235;" 
d="M377 92v-92h-277v92h92v555h-92v92h185v-114q40 49 107 81.5t170 32.5q111 0 181 -37.5t109 -92t56 -109.5t20 -93l4 -37v-278h92v-92h-277v92h92v278l-2 28q-3 28 -15.5 69t-42 82t-82 69.5t-135.5 28.5t-135.5 -28.5t-82 -69.5t-42 -82t-15.5 -69l-2 -28v-278h92z" />
    <glyph glyph-name="uni0236" unicode="&#x236;" horiz-adv-x="570" 
d="M100 1479h93v-740h277v-92h-277v-370q0 -55 19 -90t46 -54.5t54.5 -28t46.5 -10.5l19 -2h92v-92h-92q-83 0 -135.5 28.5t-82 69.5t-42.5 82t-15 69l-3 28v1202z" />
    <glyph glyph-name="uni0237" unicode="&#x237;" horiz-adv-x="462" 
d="M177 740h185v-93h-93v-739l-1 -19q-2 -19 -10.5 -46.5t-28 -54.5t-54.5 -46t-90 -19q-56 0 -91 19t-54.5 46t-28 54.5t-10.5 46.5l-1 19h92l1 -10q1 -9 5 -22.5t14 -27.5t27.5 -23.5t45.5 -9.5q27 0 44.5 9.5t27.5 23.5t14 27.5t5 22.5l1 10v832zM269 1017v-92h-92v92h92
z" />
    <glyph glyph-name="uni0238" unicode="&#x238;" horiz-adv-x="1531" 
d="M470 0q-102 0 -186 50t-134 134t-50 186t50 186t134 134t186 50q83 0 154.5 -33.5t122.5 -92.5v865h185v-92h-93v-1294h93v-93h-185v126q-51 -59 -122.5 -92.5t-154.5 -33.5zM470 647q-115 0 -196.5 -81t-81.5 -196t81.5 -196t196.5 -81t196 81t81 196t-81 196t-196 81z
M784 126v-126h-185v93h92v1294h-92v92h185v-865q38 44 88 74h1q7 5 15 9q1 0 2 1h1q7 4 14 7q1 1 3 1l1 1q7 3 13 6q3 1 5 2q6 2 13 4l24 8q6 1 12 3h1q3 1 6 1q6 2 12 3h2q3 0 5 1l12 2h3q2 0 5 1q6 0 13 1h6q10 1 20 1q102 0 186 -50t134 -134t50 -186t-50 -186t-134 -134
t-186 -50q-10 0 -20 1h-6q-7 1 -13 1q-3 1 -5 1h-3l-12 2q-2 0 -5 1h-2q-6 1 -12 3q-3 0 -6 1h-1q-6 2 -12 3l-24 8q-7 2 -13 4q-2 1 -5 2q-6 3 -13 6h-1q-2 1 -3 2q-7 3 -14 7h-1q-1 1 -2 1q-8 4 -15 9h-1q-50 30 -88 74zM1061 647q-115 0 -196 -81t-81 -196t81 -196
t196 -81t196 81t81 196t-81 196t-196 81z" />
    <glyph glyph-name="uni0239" unicode="&#x239;" horiz-adv-x="1531" 
d="M932 647h-92v-739h92v-93h-92v-277h-93v277h-92v93h92v217q-51 -58 -122.5 -91.5t-154.5 -33.5q-102 0 -186 50t-134 134t-50 186t50 186t134 133.5t186 49.5q83 0 154.5 -33.5t122.5 -91.5v125h185v-92zM470 92q115 0 196 81.5t81 196.5t-81 196t-196 81t-196 -81
t-81 -196t81 -196.5t196 -81.5zM1061 740q102 0 186 -50t134 -134t50 -186t-50 -186t-134 -134t-186 -50q-83 0 -154.5 33.5t-122.5 92.5v-588h-185v93h92v1016h-92v93h185v-126q51 59 122.5 92.5t154.5 33.5zM1061 93q115 0 196 81t81 196t-81 196t-196 81t-196 -81
t-81 -196t81 -196t196 -81z" />
    <glyph glyph-name="uni023A" unicode="&#x23a;" horiz-adv-x="1248" 
d="M377 93v-93h-277v93h85l323 1294h-69v92h277l347 -1386h85v-93h-278v93h100l-115 462h-462l-116 -462h100zM601 1387l-185 -740h416l-185 740h-46zM255 0l626 1479h113l-626 -1479h-113z" />
    <glyph glyph-name="uni023B" unicode="&#x23b;" 
d="M839 0q-204 0 -372 100t-267.5 267.5t-99.5 372.5q0 204 99.5 371.5t267.5 267.5t372 100h185v-185h-92v93h-93q-178 0 -325 -87.5t-234.5 -234.5t-87.5 -325q0 -179 87.5 -326t234.5 -234t325 -87h93v92h92v-185h-185zM193 0l626 1479h113l-626 -1479h-113z" />
    <glyph glyph-name="uni023C" unicode="&#x23c;" horiz-adv-x="755" 
d="M470 0q-102 0 -186 50t-134 134t-50 186t50 186t134 134t186 50h185v-185h-93v92h-92q-115 0 -196 -81t-81 -196t81 -196t196 -81h185v-93h-185zM8 -368l626 1479h113l-626 -1479h-113z" />
    <glyph glyph-name="uni023D" unicode="&#x23d;" 
d="M100 92h92v1294h-92v93h277v-93h-92v-1294h647v93h92v-185h-924v92zM100 703v74h387v-74h-387z" />
    <glyph glyph-name="uni023E" unicode="&#x23e;" horiz-adv-x="1032" 
d="M100 1294v185h832v-185h-92v92h-277v-1294h92v-92h-277v92h92v1294h-277v-92h-93zM147 0l626 1479h113l-626 -1479h-113z" />
    <glyph glyph-name="uni023F" unicode="&#x23f;" horiz-adv-x="819" 
d="M331 739q68 0 119 -25.5t80 -66.5h32v-92h-92q0 27 -14.5 44.5t-35 27.5t-41 14t-34.5 5l-14 1l-14 -1q-14 -1 -34.5 -5t-41 -14t-35 -27.5t-14.5 -44.5q0 -42 22.5 -67.5t58 -42t76.5 -30.5q52 -18 100.5 -42.5t80.5 -68t32 -119.5q0 -46 -29 -88.5t-81 -69.5t-121 -27
q-68 0 -119 26t-80 66h-32v93h92q0 -28 14.5 -45.5t35 -27t41 -14t34.5 -5.5l14 -1l14 1q14 1 34.5 5.5t41 14t35 27t14.5 45.5q0 41 -22 66.5t-57.5 42t-77.5 31.5q-52 17 -100.5 41.5t-80.5 68t-32 120.5q0 46 29 88t81 69t121 27z" />
    <glyph glyph-name="uni0240" unicode="&#x240;" horiz-adv-x="819" 
d="M747 185v-185h-647v92l524 555h-431v-93h-93v185h647v-92l-523 -555h431v93h92z" />
    <glyph glyph-name="uni0241" unicode="&#x241;" horiz-adv-x="754" 
d="M377 1479q93 0 154.5 -54t92 -139t30.5 -177q0 -111 -28 -181t-69 -109t-82 -56t-70 -20l-28 -4v-462h-92v555h92l19 2q19 3 46.5 15.5t54.5 42t46 82t19 135.5q0 92 -27 154t-69.5 92.5t-88.5 30.5q-55 0 -90 -19t-54.5 -46t-28 -54.5t-10.5 -46.5l-2 -19h-92l2 29
q3 28 15.5 69t42 82t82 69.5t135.5 28.5zM285 0v92h92v-92h-92zM193 1v92h369v-92h-369z" />
    <glyph glyph-name="uni0242" unicode="&#x242;" horiz-adv-x="587" 
d="M293 1035q66 0 109 -38t64 -97.5t21 -123.5q0 -78 -19.5 -127t-48 -76t-57.5 -39t-49 -14l-20 -3v-324h-64v389h64l14 1q13 2 32.5 11t38 29.5t32 57.5t13.5 95q0 64 -19 107.5t-48.5 65t-62.5 21.5q-38 0 -62.5 -13.5t-38 -32.5t-19.5 -38t-8 -32l-1 -14h-64l1 21
q2 19 11 48t29.5 57.5t57 48.5t94.5 20zM229 0v64h64v-64h-64zM165 0v64h258v-64h-258z" />
    <glyph glyph-name="uni0243" unicode="&#x243;" horiz-adv-x="1216" 
d="M1116 416q0 -125 -37.5 -203.5t-92 -122.5t-109.5 -63t-93 -23l-37 -4h-647v93h92v1294h-92v92h554l38 -3q38 -4 92.5 -21t109.5 -56t92.5 -109t37.5 -181q0 -80 -21 -138.5t-54.5 -98.5t-73.5 -66q55 -19 110 -63t93 -122.5t38 -204.5zM285 1387v-555h369l29 3
q28 2 69 15t82 42t69.5 81.5t28.5 135.5q0 84 -28.5 136t-69.5 81.5t-82 42.5t-69 15l-29 3h-369zM285 728v-624h462l28 3q28 3 69 17.5t82 47.5t69.5 92t28.5 152q0 94 -28.5 153t-69.5 92t-82 47t-69 17l-28 3h-462zM239 0l626 1479h113l-626 -1479h-113z" />
    <glyph glyph-name="uni0244" unicode="&#x244;" 
d="M746 1386v93h278v-93h-93v-1016l-3 -38q-3 -38 -20 -92.5t-56.5 -109.5t-109 -92.5t-180.5 -37.5t-181 37.5t-109 92.5t-56 109.5t-21 92.5l-3 38v1016h-92v93h277v-93h-93v-1016l3 -29q2 -28 15 -69t42.5 -82t81.5 -69.5t136 -28.5q83 0 135.5 28.5t81.5 69.5t42 82
t15 69l3 29v1016h-93zM174 1191v74h775v-74h-775z" />
    <glyph glyph-name="uni0245" unicode="&#x245;" horiz-adv-x="1248" 
d="M378.053 93.085v-92.9951h-277.982v92.9951h84.9941l346.979 1385.92h184.988l345.979 -1385.92h84.9941v-92.9951h-276.982v92.9951h99.9932l-323.979 1293.92h-45.998l-322.979 -1293.92h99.9932z" />
    <glyph glyph-name="uni0246" unicode="&#x246;" horiz-adv-x="1216" 
d="M1116 0h-1016v93h92v1294h-92v92h1016v-185h-92v93h-739v-647h739v-93h-739v-554h739v92h92v-185zM239 0l626 1479h113l-626 -1479h-113z" />
    <glyph glyph-name="uni0247" unicode="&#x247;" horiz-adv-x="847" 
d="M470 0q-103 0 -186.5 50t-133.5 134t-50 186t41.5 186t116.5 134t177 50q82 0 141 -30t97 -74.5t56 -91.5t18 -82v-92h-555q0 -115 81.5 -196t196.5 -81q114 0 196 81l65 -65q-51 -51 -118 -80t-143 -29zM435 647q-90 0 -149.5 -51t-81.5 -134h450q0 47 -28 89t-77.5 69
t-113.5 27zM54 -368l626 1479h113l-626 -1479h-113z" />
    <glyph glyph-name="uni0248" unicode="&#x248;" horiz-adv-x="1309" 
d="M1117 462l-3 -33q-2 -34 -14.5 -86.5t-40.5 -111.5t-79 -111t-130.5 -86t-194.5 -34q-116 0 -195.5 34t-130 86t-79 111t-41 111.5t-14.5 86.5l-2 33h-93v93h277v-93h-92l3 -37q4 -38 21 -92.5t56 -109.5t109 -92.5t181 -37.5t180.5 37.5t109 92.5t56.5 109.5t20 92.5
l3 37v925h-92v92h277v-92h-92v-925zM285 0l626 1479h113l-626 -1479h-113z" />
    <glyph glyph-name="uni0249" unicode="&#x249;" horiz-adv-x="462" 
d="M177 740h185v-93h-93v-739l-1 -19q-2 -19 -10.5 -46.5t-28 -54.5t-54.5 -46t-90 -19q-56 0 -91 19t-54.5 46t-28 54.5t-10.5 46.5l-1 19h92l1 -10q1 -9 5 -22.5t14 -27.5t27.5 -23.5t45.5 -9.5q27 0 44.5 9.5t27.5 23.5t14 27.5t5 22.5l1 10v832zM269 1017v-92h-92v92h92
zM-237 -276l626 1479h113l-626 -1479h-113z" />
    <glyph glyph-name="uni024C" unicode="&#x24c;" horiz-adv-x="1175" 
d="M775 580l210 -488h90v-92h-277v92h84l-199 465l-29 -2h-369v-463h92v-92h-277v92h92v1294h-92v93h462l34 -3q33 -2 85.5 -14.5t111.5 -40.5t111.5 -79t86 -130.5t33.5 -194.5q0 -107 -23.5 -183t-60.5 -126.5t-80 -81t-85 -46.5zM654 647l29 3q28 4 69 21t82 56t69.5 109
t28.5 181t-38 180.5t-92.5 109t-109.5 56.5t-92 20l-38 3h-277v-739h369zM100 703v74h387v-74h-387z" />
    <glyph glyph-name="uni024D" unicode="&#x24d;" horiz-adv-x="847" 
d="M469 647q-55 0 -90 -19t-54.5 -46t-28 -54.5t-10.5 -46.5l-1 -19v-370h92v-92h-277v92h92v555h-92v92h185v-62q30 28 75.5 45t108.5 17q84 0 136 -28t81.5 -69t42.5 -82t15 -70l3 -28h-93l-1 19q-2 19 -10.5 46.5t-28 54.5t-54.5 46t-91 19zM100 333v74h387v-74h-387z
" />
    <glyph glyph-name="uni024E" unicode="&#x24e;" horiz-adv-x="1186" 
d="M809 1386v93h277v-93h-82l-365 -647v-647h93v-92h-278v92h93v647l-366 647h-81v93h277v-93h-83l299 -544l298 544h-82zM399 703v74h387v-74h-387z" />
    <glyph glyph-name="uni024F" unicode="&#x24f;" horiz-adv-x="950" 
d="M572 648v92h278v-92h-83l-339 -1017h-184v93h122l82 253l-261 671h-87v92h277v-92h-87l206 -524l170 524h-94zM100 333v74h387v-74h-387z" />
    <glyph glyph-name="uni0258" unicode="&#x258;" horiz-adv-x="847" 
d="M377.028 0q102.994 0 186.489 50q83.4941 50 133.491 134t49.9971 186t-41.4971 186q-41.498 84 -116.493 134t-176.989 50q-81.9951 0 -140.991 -30t-96.9941 -74.5t-55.9961 -91.5q-17.999 -47 -17.999 -82v-92h554.966q0 -115 -81.4951 -196t-196.488 -81
q-113.993 0 -195.987 81l-64.9961 -65q50.9961 -51 117.992 -80t142.991 -29zM412.026 647q89.9951 0 149.491 -51t81.4951 -134h-449.973q0 47 27.998 89t77.4951 69t113.493 27z" />
    <glyph glyph-name="uni0259" unicode="&#x259;" horiz-adv-x="847" 
d="M377 755q103 0 186.5 -50t133.5 -134t50 -186t-41.5 -186t-116.5 -134t-177 -50q-82 0 -141 30t-97 74.5t-56 91.5t-18 82v92h555q0 115 -81.5 196t-196.5 81q-114 0 -196 -81l-65 65q51 51 118 80t143 29zM412 108q90 0 149.5 51t81.5 134h-450q0 -47 28 -89t77.5 -69
t113.5 -27z" />
    <glyph glyph-name="uni0268" unicode="&#x268;" horiz-adv-x="477" 
d="M377 93v-93h-277v93h92v554h-92v93h185v-647h92zM285 1017v-93h-93v93h93zM45 268v74h387v-74h-387z" />
    <glyph glyph-name="uni0274" unicode="&#x274;" horiz-adv-x="1057" 
d="M957 647h-93v-555h93v-92h-185l-487 594v-502h93v-92h-278v92h93v555h-93v93h185l487 -595v595h185v-93z" />
    <glyph glyph-name="uni02A9" unicode="&#x2a9;" horiz-adv-x="1803" 
d="M562 1479l33 -3q33 -2 82.5 -16t101.5 -45.5t92 -88.5l-70 -70q-18 33 -48.5 63t-77 49t-113.5 19q-83 0 -135.5 -28.5t-82 -69.5t-42 -82t-15.5 -69l-2 -29v-369h277v-93h-277v-554h92v-93h-277v93h92v1016l4 38q3 38 20 92.5t56 109.5t109 92.5t181 37.5zM1703 -401
h-185v92h92v679l-2 28q-3 28 -15.5 69t-42 82t-82 69.5t-135.5 28.5t-135.5 -28.5t-82 -69.5t-42 -82t-15.5 -69l-2 -28v-278h92v-92h-277v92h92v555h-92v92h185v-114q40 49 107 81.5t170 32.5q111 0 181 -37.5t109 -92t56 -109.5t20 -93l4 -37v-771z" />
    <glyph glyph-name="uni02AA" unicode="&#x2aa;" horiz-adv-x="939" 
d="M284 1479v-1387h93v-92h-185v1386h-92v93h184zM608 739q68 0 119 -25.5t80 -66.5h32v-92h-92q0 27 -14.5 44.5t-35 27.5t-41 14t-34.5 5l-14 1l-14 -1q-14 -1 -34.5 -5t-41 -14t-35 -27.5t-14.5 -44.5q0 -42 22.5 -67.5t58 -42t76.5 -30.5q52 -18 100.5 -42.5t80.5 -68
t32 -119.5q0 -46 -29 -88.5t-81 -69.5t-121 -27q-68 0 -119 26t-80 66h-32v93h92q0 -28 14.5 -45.5t35 -27t41 -14t34.5 -5.5l14 -1l14 1q14 1 34.5 5.5t41 14t35 27t14.5 45.5q0 41 -22 66.5t-57.5 42t-77.5 31.5q-52 17 -100.5 41.5t-80.5 68t-32 120.5q0 46 29 88t81 69
t121 27z" />
    <glyph glyph-name="uni02AB" unicode="&#x2ab;" 
d="M284 1479v-1387h93v-92h-185v1386h-92v93h184zM1024 185v-185h-647v92l524 555h-431v-93h-93v185h647v-92l-523 -555h431v93h92z" />
    <glyph glyph-name="uni02AC" unicode="&#x2ac;" horiz-adv-x="1453" 
d="M378 1479v-92h-89l186 -497l186 497h-71v92h277v-92h-75l186 -497l187 497h-89v92h277v-92h-86l-242 -647h-93l-205 548l-206 -548h-92l-243 647h-86v92h278zM378 739v-92h-89l186 -497l186 497h-71v92h277v-92h-75l186 -497l187 497h-89v92h277v-92h-86l-242 -647h-93
l-205 548l-206 -548h-92l-243 647h-86v92h278z" />
    <glyph glyph-name="uni02BA" unicode="&#x2ba;" horiz-adv-x="350" 
d="M208 1102v377h93v-377h-93zM50 1102v377h93v-377h-93z" />
    <glyph glyph-name="uni02BB" unicode="&#x2bb;" horiz-adv-x="165" 
d="M48.3008 901.017l17.5 69.3018h47.6006l-16.7998 -69.3018h16.7998v-64.4014h-65.1006v64.4014z" />
    <glyph glyph-name="uni02BC" unicode="&#x2bc;" horiz-adv-x="165" 
d="M115.102 905.917l-17.5 -69.3018h-47.6006l16.7998 69.3018h-16.7998v64.4014h65.1006v-64.4014z" />
    <glyph glyph-name="uni02BD" unicode="&#x2bd;" horiz-adv-x="165" 
d="M49.9072 905.917l17.499 -69.3018h47.5957l-16.7988 69.3018h16.7988v64.4014h-65.0947v-64.4014z" />
    <glyph glyph-name="circumflex" unicode="&#x2c6;" horiz-adv-x="477" 
d="M193 1076h92l93 -185h-93l-46 93l-46 -93h-92z" />
    <glyph glyph-name="caron" unicode="&#x2c7;" horiz-adv-x="477" 
d="M193 891l-92 185h92l46 -93l46 93h93l-93 -185h-92z" />
    <glyph glyph-name="uni02C8" unicode="&#x2c8;" horiz-adv-x="446" 
d="M246.5 1478.86v-374.472h-46.5v374.472h46.5z" />
    <glyph glyph-name="uni02C9" unicode="&#x2c9;" horiz-adv-x="569" 
d="M100 984v92h369v-92h-369z" />
    <glyph glyph-name="uni02CC" unicode="&#x2cc;" horiz-adv-x="192" 
d="M50 -275v377h92v-377h-92z" />
    <glyph glyph-name="uni02CD" unicode="&#x2cd;" horiz-adv-x="755" 
d="M100 -320v92h555v-92h-555z" />
    <glyph glyph-name="uni02CE" unicode="&#x2ce;" horiz-adv-x="385" 
d="M286 -409h-92l-93 185h93z" />
    <glyph glyph-name="uni02CF" unicode="&#x2cf;" horiz-adv-x="385" 
d="M101 -409l92 185h93l-93 -185h-92z" />
    <glyph glyph-name="uni02D7" unicode="&#x2d7;" horiz-adv-x="587" 
d="M100.001 335.905v65.1006h387.807v-65.1006h-387.807z" />
    <glyph glyph-name="breve" unicode="&#x2d8;" horiz-adv-x="583" 
d="M191 1076q0 -41 29.5 -70.5t70.5 -29.5q42 0 71 29.5t29 70.5h92q0 -53 -26 -96.5t-69.5 -69t-96.5 -25.5q-52 0 -95.5 25.5t-69.5 69t-26 96.5h91z" />
    <glyph glyph-name="dotaccent" unicode="&#x2d9;" horiz-adv-x="279" 
d="M99 931v78h79v-78h-79z" />
    <glyph glyph-name="ring" unicode="&#x2da;" horiz-adv-x="583" 
d="M291 693q-52 0 -95.5 25.5t-69.5 69t-26 96.5t26 96.5t69.5 69.5t95.5 26q53 0 96.5 -26t69.5 -69.5t26 -96.5t-26 -96.5t-69.5 -69t-96.5 -25.5zM291 984q-41 0 -70.5 -29t-29.5 -71q0 -41 29.5 -70.5t70.5 -29.5q42 0 71 29.5t29 70.5q0 42 -29 71t-71 29z" />
    <glyph glyph-name="ogonek" unicode="&#x2db;" horiz-adv-x="388" 
d="M288 -217q-29 -45 -104 -45q-133 1 -134 118q0 135 121 196h70q-100 -27 -100 -144q0 -77 64 -77q44 0 65 24z" />
    <glyph glyph-name="tilde" unicode="&#x2dc;" horiz-adv-x="624" 
d="M448 1076l76 -39q-24 -45 -54 -67t-61 -26q-16 -2 -31 -2h-10q-37 3 -59 12l-16 7l-8 3q-9 4 -23 6l-8 1q-10 0 -20 -2q-15 -2 -30 -13t-28 -33l-76 39q24 45 53.5 67t61.5 26q17 2 31 2h10l16 -2q27 -3 48.5 -11t38.5 -9q32 0 52 8q24 10 37 33z" />
    <glyph glyph-name="hungarumlaut" unicode="&#x2dd;" horiz-adv-x="1024" 
d="M9 891l92 185h93l-93 -185h-92zM194 891l92 185h93l-93 -185h-92z" />
    <glyph glyph-name="uni02DF" unicode="&#x2df;" horiz-adv-x="421" 
d="M164.803 1273.1l-114.802 114.102l46.2002 46.2012l114.103 -114.102l114.802 114.102l45.501 -45.501l-114.802 -114.102l114.802 -114.103l-46.2012 -46.2002l-114.102 114.102l-114.803 -114.102l-45.5 45.501z" />
    <glyph glyph-name="uni02E1" unicode="&#x2e1;" horiz-adv-x="394" 
d="M228.804 1775.32v-970.917h65.1006v-64.4014h-129.502v970.217h-64.4014v65.1016h128.803z" />
    <glyph glyph-name="uni02EA" unicode="&#x2ea;" horiz-adv-x="493" 
d="M101 1479.2v-1583.54h-93v1583.54h93zM100 -103v92h369v-92h-369z" />
    <glyph glyph-name="uni02EB" unicode="&#x2eb;" horiz-adv-x="493" 
d="M101 1479.2v-1583.54h-93v1583.54h93zM100 643v92h369v-92h-369z" />
    <glyph glyph-name="uni02EC" unicode="&#x2ec;" horiz-adv-x="477" 
d="M193 -184l-92 185h92l46 -93l46 93h93l-93 -185h-92z" />
    <glyph glyph-name="uni02ED" unicode="&#x2ed;" horiz-adv-x="588" 
d="M100.001 1341v93h387.807v-93h-387.807zM100.001 1062v93h387.807v-93h-387.807z" />
    <glyph glyph-name="uni02EE" unicode="&#x2ee;" horiz-adv-x="324" 
d="M143 1387l-25 -99h-68l24 99h-24v92h93v-92zM273 1387l-25 -99h-68l24 99h-24v92h93v-92z" />
    <glyph glyph-name="uni02F3" unicode="&#x2f3;" horiz-adv-x="583" 
d="M291 -739q-52 0 -95.5 25.5t-69.5 69t-26 96.5t26 96.5t69.5 69.5t95.5 26q53 0 96.5 -26t69.5 -69.5t26 -96.5t-26 -96.5t-69.5 -69t-96.5 -25.5zM291 -448q-41 0 -70.5 -29t-29.5 -71q0 -41 29.5 -70.5t70.5 -29.5q42 0 71 29.5t29 70.5q0 42 -29 71t-71 29z" />
    <glyph glyph-name="uni02F4" unicode="&#x2f4;" horiz-adv-x="385" 
d="M286 648h-92l-93 185h93z" />
    <glyph glyph-name="uni02F5" unicode="&#x2f5;" horiz-adv-x="570" 
d="M286 647h-92l-93 185h93zM471 647h-92l-93 185h93z" />
    <glyph glyph-name="uni02F6" unicode="&#x2f6;" horiz-adv-x="1024" 
d="M8 647l92 185h93l-93 -185h-92zM194 647l92 185h93l-93 -185h-92z" />
    <glyph glyph-name="uni02F7" unicode="&#x2f7;" horiz-adv-x="624" 
d="M448 -197l76 -39q-24 -45 -54 -67t-61 -26q-16 -2 -31 -2h-10q-37 3 -59 12l-16 7l-8 3q-9 4 -23 6l-8 1q-10 0 -20 -2q-15 -2 -30 -13t-28 -33l-76 39q24 45 53.5 67t61.5 26q17 2 31 2h10l16 -2q27 -3 48.5 -11t38.5 -9q32 0 52 8q24 10 37 33z" />
    <glyph glyph-name="uni02F8" unicode="&#x2f8;" horiz-adv-x="193" 
d="M50 694v92h93v-92h-93zM51 1341v92h93v-92h-93z" />
    <glyph glyph-name="gravecomb" unicode="&#x300;" horiz-adv-x="0" 
d="M-514 891h-92l-93 185h93z" />
    <glyph glyph-name="acutecomb" unicode="&#x301;" horiz-adv-x="0" 
d="M-669 891l92 185h93l-93 -185h-92z" />
    <glyph glyph-name="uni0302" unicode="&#x302;" horiz-adv-x="0" 
d="M-697 1076h92l93 -185h-93l-46 93l-46 -93h-92z" />
    <glyph glyph-name="tildecomb" unicode="&#x303;" horiz-adv-x="0" 
d="M-411 1076l76 -39q-24 -45 -54 -67t-61 -26q-16 -2 -31 -2h-10q-37 3 -59 12l-16 7l-8 3q-9 4 -23 6l-8 1q-10 0 -20 -2q-15 -2 -30 -13t-28 -33l-76 39q24 45 53.5 67t61.5 26q17 2 31 2h10l16 -2q27 -3 48.5 -11t38.5 -9q32 0 52 8q24 10 37 33z" />
    <glyph glyph-name="uni0304" unicode="&#x304;" horiz-adv-x="0" 
d="M-739 984v92h369v-92h-369z" />
    <glyph glyph-name="uni0305" unicode="&#x305;" horiz-adv-x="0" 
d="M755 1527v93h554v-93h-554z" />
    <glyph glyph-name="uni0306" unicode="&#x306;" horiz-adv-x="0" 
d="M-668 1076q0 -41 29.5 -70.5t70.5 -29.5q42 0 71 29.5t29 70.5h92q0 -53 -26 -96.5t-69.5 -69t-96.5 -25.5q-52 0 -95.5 25.5t-69.5 69t-26 96.5h91z" />
    <glyph glyph-name="uni0307" unicode="&#x307;" horiz-adv-x="0" 
d="M-610 931v78h79v-78h-79z" />
    <glyph glyph-name="uni0308" unicode="&#x308;" horiz-adv-x="0" 
d="M-489 984v92h93v-92h-93zM-769 983v92h93v-92h-93z" />
    <glyph glyph-name="hookabovecomb" unicode="&#x309;" horiz-adv-x="0" 
d="M-487 1200q50 0 84 -19t51 -49t17 -62q0 -39 -15.5 -63.5t-38 -38t-45 -19.5t-38.5 -7l-15 -1v-162h-51v194h51l10 1q10 1 25 5.5t30 14.5t25.5 28.5t10.5 47.5q0 32 -14.5 54t-38 32.5t-48.5 10.5q-31 0 -50 -6.5t-30 -16t-15.5 -19t-5.5 -16.5l-1 -7h-51l1 10
q2 10 9 24.5t23 29t45 24.5t75 10z" />
    <glyph glyph-name="uni030A" unicode="&#x30a;" horiz-adv-x="0" 
d="M-488 693q-52 0 -95.5 25.5t-69.5 69t-26 96.5t26 96.5t69.5 69.5t95.5 26q53 0 96.5 -26t69.5 -69.5t26 -96.5t-26 -96.5t-69.5 -69t-96.5 -25.5zM-488 984q-41 0 -70.5 -29t-29.5 -71q0 -41 29.5 -70.5t70.5 -29.5q42 0 71 29.5t29 70.5q0 42 -29 71t-71 29z" />
    <glyph glyph-name="uni030B" unicode="&#x30b;" horiz-adv-x="0" 
d="M-760 891l92 185h93l-93 -185h-92zM-574 891l92 185h93l-93 -185h-92z" />
    <glyph glyph-name="uni030C" unicode="&#x30c;" horiz-adv-x="0" 
d="M-697 891l-92 185h92l46 -93l46 93h93l-93 -185h-92z" />
    <glyph glyph-name="uni030D" unicode="&#x30d;" horiz-adv-x="0" 
d="M-484 1478v-374h-46v374h46z" />
    <glyph glyph-name="uni030E" unicode="&#x30e;" horiz-adv-x="0" 
d="M-554 1478v-374h-46v374h46zM-354 1478v-374h-46v374h46z" />
    <glyph glyph-name="uni030F" unicode="&#x30f;" horiz-adv-x="0" 
d="M-604 891h-92l-93 185h93zM-419 891h-92l-93 185h93z" />
    <glyph glyph-name="uni0310" unicode="&#x310;" horiz-adv-x="0" 
d="M-975 1076q0 -41 29.5 -70.5t70.5 -29.5q42 0 71 29.5t29 70.5h92q0 -53 -26 -96.5t-69.5 -69t-96.5 -25.5q-52 0 -95.5 25.5t-69.5 69t-26 96.5h91zM-915 1077v78h79v-78h-79z" />
    <glyph glyph-name="uni0311" unicode="&#x311;" horiz-adv-x="0" 
d="M-190.988 885.065q0 40.998 -29.498 70.4961t-70.4961 29.498q-41.9971 0 -70.9951 -29.498q-28.999 -29.498 -28.999 -70.4961h-91.9941q0 52.9971 25.999 96.4941q25.998 43.4971 69.4951 68.9961q43.498 25.498 96.4941 25.498q51.9971 0 95.4941 -25.498
q43.498 -25.499 69.4961 -68.9961t25.998 -96.4941h-90.9941z" />
    <glyph glyph-name="uni0312" unicode="&#x312;" horiz-adv-x="194" 
d="M49 977l25 99h68l-24 -99h24v-92h-93v92z" />
    <glyph glyph-name="uni0313" unicode="&#x313;" horiz-adv-x="193" 
d="M143 984l-25 -99h-68l24 99h-24v92h93v-92z" />
    <glyph glyph-name="uni0314" unicode="&#x314;" horiz-adv-x="193" 
d="M49 1387v92h93v-92h-24l24 -99h-68z" />
    <glyph glyph-name="uni0315" unicode="&#x315;" horiz-adv-x="193" 
d="M143 984l-25 -99h-68l24 99h-24v92h93v-92z" />
    <glyph glyph-name="uni0316" unicode="&#x316;" horiz-adv-x="0" 
d="M-515 -285h-92l-93 185h93z" />
    <glyph glyph-name="uni0317" unicode="&#x317;" horiz-adv-x="0" 
d="M-670 -285l92 185h93l-93 -185h-92z" />
    <glyph glyph-name="uni031B" unicode="&#x31b;" horiz-adv-x="0" 
d="M-117 744l-139 -244h-79l138 244h-84v137h164v-137z" />
    <glyph glyph-name="uni031C" unicode="&#x31c;" horiz-adv-x="391" 
d="M292 -309v-91q-53 0 -96.5 26t-69 69.5t-25.5 95.5q0 53 25.5 96.5t69 69.5t96.5 26v-92q-41 0 -70.5 -29t-29.5 -71q0 -41 29.5 -70.5t70.5 -29.5z" />
    <glyph glyph-name="uni0320" unicode="&#x320;" horiz-adv-x="0" 
d="M-598.998 -409.19v37.2021h221.614v-37.2021h-221.614z" />
    <glyph glyph-name="dotbelowcomb" unicode="&#x323;" horiz-adv-x="0" 
d="M-561 -313v78h79v-78h-79z" />
    <glyph glyph-name="uni0324" unicode="&#x324;" horiz-adv-x="0" 
d="M-419 -199v92h93v-92h-93zM-699 -200v92h93v-92h-93z" />
    <glyph glyph-name="uni0325" unicode="&#x325;" horiz-adv-x="0" 
d="M-408 -739q-52 0 -95.5 25.5t-69.5 69t-26 96.5t26 96.5t69.5 69.5t95.5 26q53 0 96.5 -26t69.5 -69.5t26 -96.5t-26 -96.5t-69.5 -69t-96.5 -25.5zM-408 -448q-41 0 -70.5 -29t-29.5 -71q0 -41 29.5 -70.5t70.5 -29.5q42 0 71 29.5t29 70.5q0 42 -29 71t-71 29z" />
    <glyph glyph-name="uni0326" unicode="&#x326;" horiz-adv-x="0" 
d="M-454.602 -153.6l-20 -59.3984h-54.3994l19.2002 59.3984h-19.2002v55.1973h74.3994v-55.1973z" />
    <glyph glyph-name="uni0327" unicode="&#x327;" horiz-adv-x="0" 
d="M-414 -41v93h93v-93l-2 -19q-2 -19 -10.5 -46t-28 -54.5t-54.5 -46.5t-90 -19h-93v93h93l9 1q10 0 23.5 4.5t27 14t23 27t9.5 45.5z" />
    <glyph glyph-name="uni0328" unicode="&#x328;" horiz-adv-x="0" 
d="M-81 -217q-29 -45 -104 -45q-133 1 -134 118q0 135 121 196h70q-100 -27 -100 -144q0 -77 64 -77q44 0 65 24z" />
    <glyph glyph-name="uni0329" unicode="&#x329;" horiz-adv-x="192" 
d="M50 -275v377h92v-377h-92z" />
    <glyph glyph-name="uni032C" unicode="&#x32c;" horiz-adv-x="0" 
d="M-667 -409l-92 185h92l46 -93l46 93h93l-93 -185h-92z" />
    <glyph glyph-name="uni032D" unicode="&#x32d;" horiz-adv-x="0" 
d="M-667 -224h92l93 -185h-93l-46 93l-46 -93h-92z" />
    <glyph glyph-name="uni032E" unicode="&#x32e;" horiz-adv-x="0" 
d="M-668 -178q0 -41 29.5 -70.5t70.5 -29.5q42 0 71 29.5t29 70.5h92q0 -53 -26 -96.5t-69.5 -69t-96.5 -25.5q-52 0 -95.5 25.5t-69.5 69t-26 96.5h91z" />
    <glyph glyph-name="uni032F" unicode="&#x32f;" horiz-adv-x="0" 
d="M-466.988 -369.935q0 40.998 -29.498 70.4961t-70.4961 29.498q-41.9971 0 -70.9951 -29.498q-28.999 -29.498 -28.999 -70.4961h-91.9941q0 52.9971 25.999 96.4941q25.998 43.4971 69.4951 68.9961q43.498 25.498 96.4941 25.498q51.9971 0 95.4941 -25.498
q43.498 -25.499 69.4961 -68.9961t25.998 -96.4941h-90.9941z" />
    <glyph glyph-name="uni0330" unicode="&#x330;" horiz-adv-x="0" 
d="M-411 -197l76 -39q-24 -45 -54 -67t-61 -26q-16 -2 -31 -2h-10q-37 3 -59 12l-16 7l-8 3q-9 4 -23 6l-8 1q-10 0 -20 -2q-15 -2 -30 -13t-28 -33l-76 39q24 45 53.5 67t61.5 26q17 2 31 2h10l16 -2q27 -3 48.5 -11t38.5 -9q32 0 52 8q24 10 37 33z" />
    <glyph glyph-name="uni0331" unicode="&#x331;" horiz-adv-x="0" 
d="M-739 -320v92h369v-92h-369z" />
    <glyph glyph-name="uni0332" unicode="&#x332;" horiz-adv-x="0" 
d="M-1023 -43v93h554v-93h-554z" />
    <glyph glyph-name="uni0333" unicode="&#x333;" horiz-adv-x="0" 
d="M-1023 -274v93h554v-93h-554zM-1023 -43v93h554v-93h-554z" />
    <glyph glyph-name="uni0334" unicode="&#x334;" horiz-adv-x="0" 
d="M-525 817l76 -39q-24 -45 -54 -67t-61 -26q-16 -2 -31 -2h-10q-37 3 -59 12l-16 7l-8 3q-9 4 -23 6l-8 1q-10 0 -20 -2q-15 -2 -30 -13t-28 -33l-76 39q24 45 53.5 67t61.5 26q17 2 31 2h10l16 -2q27 -3 48.5 -11t38.5 -9q32 0 52 8q24 10 37 33z" />
    <glyph glyph-name="uni0335" unicode="&#x335;" horiz-adv-x="0" 
d="M-715.999 702.601v74.3984h387.807v-74.3984h-387.807z" />
    <glyph glyph-name="uni0336" unicode="&#x336;" horiz-adv-x="0" 
d="M-1433 702.601v74.3984h775.614v-74.3984h-775.614z" />
    <glyph glyph-name="uni0337" unicode="&#x337;" horiz-adv-x="0" 
d="M-699 0l438.208 1035.32h79.1006l-438.207 -1035.32h-79.1016z" />
    <glyph glyph-name="uni0338" unicode="&#x338;" horiz-adv-x="0" 
d="M-1023 0l626 1479h113l-626 -1479h-113z" />
    <glyph glyph-name="uni0339" unicode="&#x339;" horiz-adv-x="391" 
d="M100 -309q41 0 70.5 29.5t29.5 70.5q0 42 -29.5 71t-70.5 29v92q53 0 96.5 -26t69 -69.5t25.5 -96.5q0 -52 -25.5 -95.5t-69 -69.5t-96.5 -26v91z" />
    <glyph glyph-name="uni0340" unicode="&#x340;" horiz-adv-x="0" 
d="M-714 891h-92l-93 185h93z" />
    <glyph glyph-name="uni0341" unicode="&#x341;" horiz-adv-x="0" 
d="M-469 891l92 185h93l-93 -185h-92z" />
    <glyph glyph-name="uni0342" unicode="&#x342;" horiz-adv-x="0" 
d="M-351 1076l76 -39q-24 -45 -54 -67t-61 -26q-16 -2 -31 -2h-10q-37 3 -59 12l-16 7l-8 3q-9 4 -23 6l-8 1q-10 0 -20 -2q-15 -2 -30 -13t-28 -33l-76 39q24 45 53.5 67t61.5 26q17 2 31 2h10l16 -2q27 -3 48.5 -11t38.5 -9q32 0 52 8q24 10 37 33z" />
    <glyph glyph-name="uni0343" unicode="&#x343;" horiz-adv-x="0" 
d="M-406 1387l-25 -99h-68l24 99h-24v92h93v-92z" />
    <glyph glyph-name="uni0344" unicode="&#x344;" horiz-adv-x="0" 
d="M-420 984v92h93v-92h-93zM-700 983v92h93v-92h-93zM-600 941l92 185h93l-93 -185h-92z" />
    <glyph glyph-name="uni0345" unicode="&#x345;" horiz-adv-x="478" 
d="M285 -41v93h93v-93l-2 -19q-2 -19 -10 -46q-9 -27 -28 -55q-20 -27 -55 -46t-90 -19h-93v93h93l9 1q10 0 23 5q14 4 28 14q13 9 23 27q9 17 9 45z" />
    <glyph glyph-name="uni0347" unicode="&#x347;" horiz-adv-x="0" 
d="M-1023 -409v92h555v-92h-555zM-1023 -224v92h555v-92h-555z" />
    <glyph glyph-name="uni034B" unicode="&#x34b;" horiz-adv-x="0" 
d="M-152 1210l76 -39q-24 -45 -54 -67t-61 -26q-16 -2 -31 -2h-10q-37 3 -59 12l-16 7l-8 3q-9 4 -23 6l-8 1q-10 0 -20 -2q-15 -2 -30 -13t-28 -33l-76 39q24 45 53.5 67t61.5 26q17 2 31 2h10l16 -2q27 -3 48.5 -11t38.5 -9q32 0 52 8q24 10 37 33zM-240 1255h-75v72h75
v-72zM-241 942h-75v72h75v-72z" />
    <glyph glyph-name="uni034C" unicode="&#x34c;" horiz-adv-x="624" 
d="M448 1362l76 -39q-24 -45 -54 -67t-61 -26q-17 -3 -32 -3l-9 1q-37 3 -59 12l-16 7l-8 3q-9 4 -23 6l-8 1q-10 0 -20 -2q-15 -2 -30 -13t-28 -33l-76 39q24 45 53.5 67t61.5 26q16 2 31 2h10l16 -2q27 -3 48.5 -11t38.5 -10q32 0 52 9q24 10 37 33zM448 1185l76 -39
q-24 -45 -54 -67t-61 -26q-17 -2 -32 -2h-9q-37 3 -59 12l-16 7l-8 3q-9 4 -23 6l-8 1q-10 0 -20 -2q-15 -2 -30 -13t-28 -33l-76 39q24 45 53.5 67t61.5 26q16 3 31 3l10 -1l16 -2q27 -3 48.5 -11t38.5 -9q32 0 52 8q24 10 37 33z" />
    <glyph glyph-name="uni0352" unicode="&#x352;" horiz-adv-x="0" 
d="M-609 931v78h79v-78h-79zM-468 1009q0 41 -29.5 70.5t-70.5 29.5q-42 0 -71 -29.5t-29 -70.5h-92q0 53 26 96.5t69.5 69t96.5 25.5q52 0 95.5 -25.5t69.5 -69t26 -96.5h-91z" />
    <glyph glyph-name="uni035D" unicode="&#x35d;" horiz-adv-x="0" 
d="M-1338 1076q0 -41 59 -70.5t141 -29.5q84 0 142 29.5t58 70.5h184q0 -53 -52 -96.5t-139 -69t-193 -25.5q-104 0 -191 25.5t-139 69t-52 96.5h182z" />
    <glyph glyph-name="uni035E" unicode="&#x35e;" horiz-adv-x="0" 
d="M-1480 984v92h738v-92h-738z" />
    <glyph glyph-name="uni035F" unicode="&#x35f;" horiz-adv-x="0" 
d="M-1480 -321v92h738v-92h-738z" />
    <glyph glyph-name="uni0376" unicode="&#x376;" horiz-adv-x="1217" 
d="M100 1386v93h185v-1274l647 1274h185v-93h-93v-1294h93v-92h-278v92h93v1181l-647 -1273h-185v92h92v1294h-92z" />
    <glyph glyph-name="uni037A" unicode="&#x37a;" horiz-adv-x="477" 
d="M226 -364v-46h-167v46h56v277h-56v47h111v-324h56z" />
    <glyph glyph-name="uni037B" unicode="&#x37b;" horiz-adv-x="755" 
d="M285.028 0q101.994 0 185.989 50q83.9941 50 133.991 134t49.9971 186t-49.9971 186t-133.991 134q-83.9951 50 -185.989 50h-184.988v-185h92.9941v92h91.9941q114.993 0 195.988 -81t80.9951 -196t-80.9951 -196t-195.988 -81h-184.988v-93h184.988z" />
    <glyph glyph-name="uni037C" unicode="&#x37c;" horiz-adv-x="755" 
d="M470 0q-102 0 -186 50t-134 134t-50 186t50 186t134 134t186 50h185v-185h-93v92h-92q-115 0 -196 -81t-81 -196t81 -196t196 -81h185v-93h-185zM337 333v78h79v-78h-79z" />
    <glyph glyph-name="uni037D" unicode="&#x37d;" horiz-adv-x="755" 
d="M100 0v93h185q115 0 196 81t81 196t-81 196t-196 81h-92v-92h-93v185h185q102 0 186 -50t134 -134t50 -186t-50 -186t-134 -134t-186 -50h-185zM339 332v78h79v-78h-79z" />
    <glyph glyph-name="tonos" unicode="&#x384;" horiz-adv-x="385" 
d="M101 891l92 185h93l-93 -185h-92z" />
    <glyph glyph-name="dieresistonos" unicode="&#x385;" horiz-adv-x="573" 
d="M380 984v92h93v-92h-93zM100 983v92h93v-92h-93zM200 941l92 185h93l-93 -185h-92z" />
    <glyph glyph-name="Alphatonos" unicode="&#x386;" horiz-adv-x="1248" 
d="M101 891l92 185h93l-93 -185h-92zM377 93v-93h-277v93h85l323 1294h-69v92h277l347 -1386h85v-93h-278v93h100l-115 462h-462l-116 -462h100zM601 1387l-185 -740h416l-185 740h-46z" />
    <glyph glyph-name="anoteleia" unicode="&#x387;" horiz-adv-x="279" 
d="M99 741v78h79v-78h-79z" />
    <glyph glyph-name="Epsilontonos" unicode="&#x388;" horiz-adv-x="1600" 
d="M101 891l92 185h93l-93 -185h-92zM1501 0h-1016v93h92v1294h-92v92h1016v-185h-92v93h-739v-647h739v-93h-739v-554h739v92h92v-185z" />
    <glyph glyph-name="Etatonos" unicode="&#x389;" horiz-adv-x="1694" 
d="M101 891l92 185h93l-93 -185h-92zM1594 93v-93h-277v93h93v554h-740v-554h93v-93h-278v93h93v1294h-93v92h278v-92h-93v-647h740v647h-93v92h277v-92h-92v-1294h92z" />
    <glyph glyph-name="Iotatonos" unicode="&#x38a;" horiz-adv-x="862" 
d="M101 891l92 185h93l-93 -185h-92zM762 93v-93h-277v93h92v1294h-92v92h277v-92h-92v-1294h92z" />
    <glyph glyph-name="Omicrontonos" unicode="&#x38c;" horiz-adv-x="1602" 
d="M101 891l92 185h93l-93 -185h-92zM994 1479q140 0 255.5 -100t184 -267.5t68.5 -372.5q0 -204 -68.5 -371.5t-184 -267.5t-255.5 -100q-141 0 -256 100t-184 267.5t-69 371.5q0 205 69 372.5t184 267.5t256 100zM994 92q115 0 209 87.5t150.5 234.5t56.5 325
q0 179 -56.5 326t-150.5 234t-209 87t-209.5 -87t-150.5 -234t-56 -326q0 -178 56 -325t150.5 -234.5t209.5 -87.5z" />
    <glyph glyph-name="Upsilontonos" unicode="&#x38e;" horiz-adv-x="1571" 
d="M101 891l92 185h93l-93 -185h-92zM1194 1386v93h277v-93h-82l-365 -647v-647h93v-92h-278v92h93v647l-366 647h-81v93h277v-93h-83l299 -544l298 544h-82z" />
    <glyph glyph-name="Omegatonos" unicode="&#x38f;" horiz-adv-x="1602" 
d="M101 891l92 185h93l-93 -185h-92zM887 0h-396v114h231q-104 97 -168 254q-69 167 -69 371q0 205 69 372.5t184 267.5t256 100q140 0 255.5 -100t184 -267.5t68.5 -372.5q0 -204 -68 -371q-64 -157 -168 -254h219v-114h-400v114q71 22 118 66q94 87 150.5 234t56.5 325
q0 179 -56.5 326t-150.5 234t-209 87t-209.5 -87t-150.5 -234t-56 -326q0 -178 56 -325t151 -234q47 -44 100 -66h2v-114z" />
    <glyph glyph-name="iotadieresistonos" unicode="&#x390;" horiz-adv-x="477" 
d="M377 93v-93h-277v93h92v554h-92v93h185v-647h92zM332 984v92h93v-92h-93zM52 983v92h93v-92h-93zM152 941l92 185h93l-93 -185h-92z" />
    <glyph glyph-name="Alpha" unicode="&#x391;" horiz-adv-x="1248" 
d="M377 93v-93h-277v93h85l323 1294h-69v92h277l347 -1386h85v-93h-278v93h100l-115 462h-462l-116 -462h100zM601 1387l-185 -740h416l-185 740h-46z" />
    <glyph glyph-name="Beta" unicode="&#x392;" horiz-adv-x="1216" 
d="M1116 416q0 -125 -37.5 -203.5t-92 -122.5t-109.5 -63t-93 -23l-37 -4h-647v93h92v1294h-92v92h554l38 -3q38 -4 92.5 -21t109.5 -56t92.5 -109t37.5 -181q0 -80 -21 -138.5t-54.5 -98.5t-73.5 -66q55 -19 110 -63t93 -122.5t38 -204.5zM285 1387v-555h369l29 3
q28 2 69 15t82 42t69.5 81.5t28.5 135.5q0 84 -28.5 136t-69.5 81.5t-82 42.5t-69 15l-29 3h-369zM285 728v-624h462l28 3q28 3 69 17.5t82 47.5t69.5 92t28.5 152q0 94 -28.5 153t-69.5 92t-82 47t-69 17l-28 3h-462z" />
    <glyph glyph-name="Gamma" unicode="&#x393;" horiz-adv-x="1216" 
d="M285 1387v-1294h92v-93h-277v93h92v1294h-92v92h1016v-92h-831z" />
    <glyph glyph-name="Epsilon" unicode="&#x395;" horiz-adv-x="1216" 
d="M1116 0h-1016v93h92v1294h-92v92h1016v-185h-92v93h-739v-647h739v-93h-739v-554h739v92h92v-185z" />
    <glyph glyph-name="Zeta" unicode="&#x396;" horiz-adv-x="1125" 
d="M100 1479h925v-93l-812 -1294h719v93h93v-185h-925v92l812 1294h-719v-92h-93v185z" />
    <glyph glyph-name="Eta" unicode="&#x397;" horiz-adv-x="1309" 
d="M1209 93v-93h-277v93h93v554h-740v-554h93v-93h-278v93h93v1294h-93v92h278v-92h-93v-647h740v647h-93v92h277v-92h-92v-1294h92z" />
    <glyph glyph-name="Theta" unicode="&#x398;" horiz-adv-x="1217" 
d="M609 1479q140 0 255.5 -100t184 -267.5t68.5 -372.5q0 -204 -68.5 -371.5t-184 -267.5t-255.5 -100q-141 0 -256 100t-184 267.5t-69 371.5q0 205 69 372.5t184 267.5t256 100zM609 92q115 0 209 87.5t150.5 234.5t56.5 325q0 179 -56.5 326t-150.5 234t-209 87
t-209.5 -87t-150.5 -234t-56 -326q0 -178 56 -325t150.5 -234.5t209.5 -87.5zM890 701h-554v64h554v-64z" />
    <glyph glyph-name="Iota" unicode="&#x399;" horiz-adv-x="477" 
d="M377 93v-93h-277v93h92v1294h-92v92h277v-92h-92v-1294h92z" />
    <glyph glyph-name="Kappa" unicode="&#x39a;" horiz-adv-x="1145" 
d="M436 841l524 -748h85v-93h-277v93h89l-477 677l-95 -123v-554h93v-93h-278v93h93v1294h-93v92h278v-92h-93v-601l472 601h-102v92h277v-92h-72z" />
    <glyph glyph-name="Lambda" unicode="&#x39b;" horiz-adv-x="1248" 
d="M533 1479h183l347 -1386h85v-93h-278v93h100l-323 1294h-46l-324 -1294h100v-93h-277v93h85z" />
    <glyph glyph-name="Mu" unicode="&#x39c;" horiz-adv-x="1216" 
d="M377 92v-92h-277v92h92v1294h-92v93h185l323 -647l324 647h184v-93h-92v-1294h92v-92h-277v92h93v1202l-278 -555h-92l-277 555v-1202h92z" />
    <glyph glyph-name="Nu" unicode="&#x39d;" horiz-adv-x="1217" 
d="M1117 1386h-92v-1294h92v-92h-185l-647 1273v-1181h93v-92h-278v92h93v1294h-93v93h185l647 -1274v1274h185v-93z" />
    <glyph glyph-name="Omicron" unicode="&#x39f;" horiz-adv-x="1217" 
d="M609 1479q140 0 255.5 -100t184 -267.5t68.5 -372.5q0 -204 -68.5 -371.5t-184 -267.5t-255.5 -100q-141 0 -256 100t-184 267.5t-69 371.5q0 205 69 372.5t184 267.5t256 100zM609 92q115 0 209 87.5t150.5 234.5t56.5 325q0 179 -56.5 326t-150.5 234t-209 87
t-209.5 -87t-150.5 -234t-56 -326q0 -178 56 -325t150.5 -234.5t209.5 -87.5z" />
    <glyph glyph-name="Rho" unicode="&#x3a1;" horiz-adv-x="1217" 
d="M377 92v-92h-277v92h93v1294h-93v93h647l38 -4q37 -3 92 -20t109.5 -56t92.5 -109t38 -181t-38 -181t-92.5 -109t-109.5 -56t-92 -20l-38 -4h-462v-647h92zM285 1386v-554h462l28 2q29 3 70 15.5t82 42t69 82t28 135.5t-28 135.5t-69 82t-82 42t-70 15.5l-28 2h-462z" />
    <glyph glyph-name="Tau" unicode="&#x3a4;" horiz-adv-x="1032" 
d="M100 1294v185h832v-185h-92v92h-277v-1294h92v-92h-277v92h92v1294h-277v-92h-93z" />
    <glyph glyph-name="Upsilon" unicode="&#x3a5;" horiz-adv-x="1186" 
d="M809 1386v93h277v-93h-82l-365 -647v-647h93v-92h-278v92h93v647l-366 647h-81v93h277v-93h-83l299 -544l298 544h-82z" />
    <glyph glyph-name="Chi" unicode="&#x3a7;" horiz-adv-x="1186" 
d="M809 1386v93h277v-93h-82l-355 -647l355 -647h82v-92h-277v92h82l-298 544l-299 -544h83v-92h-277v92h82l354 647l-354 647h-82v93h277v-93h-83l299 -544l298 544h-82z" />
    <glyph glyph-name="uni03A9" unicode="&#x3a9;" horiz-adv-x="1217" 
d="M502 0h-396v114h231q-104 97 -168 254q-69 167 -69 371q0 205 69 372.5t184 267.5t256 100q140 0 255.5 -100t184 -267.5t68.5 -372.5q0 -204 -68 -371q-64 -157 -168 -254h219v-114h-400v114q71 22 118 66q94 87 150.5 234t56.5 325q0 179 -56.5 326t-150.5 234t-209 87
t-209.5 -87t-150.5 -234t-56 -326q0 -178 56 -325t151 -234q47 -44 100 -66h2v-114z" />
    <glyph glyph-name="Iotadieresis" unicode="&#x3aa;" horiz-adv-x="477" 
d="M377 93v-93h-277v93h92v1294h-92v92h277v-92h-92v-1294h92zM332 1723v92h93v-92h-93zM52 1722v92h93v-92h-93z" />
    <glyph glyph-name="Upsilondieresis" unicode="&#x3ab;" horiz-adv-x="1186" 
d="M809 1386v93h277v-93h-82l-365 -647v-647h93v-92h-278v92h93v647l-366 647h-81v93h277v-93h-83l299 -544l298 544h-82zM687 1723v92h93v-92h-93zM407 1722v92h93v-92h-93z" />
    <glyph glyph-name="iota" unicode="&#x3b9;" horiz-adv-x="477" 
d="M377 93v-93h-277v93h92v554h-92v93h185v-647h92z" />
    <glyph glyph-name="iotadieresis" unicode="&#x3ca;" horiz-adv-x="477" 
d="M377 93v-93h-277v93h92v554h-92v93h185v-647h92zM332 984v92h93v-92h-93zM52 983v92h93v-92h-93z" />
    <glyph glyph-name="uni03F2" unicode="&#x3f2;" horiz-adv-x="755" 
d="M470 0q-102 0 -186 50t-134 134t-50 186t50 186t134 134t186 50h185v-185h-93v92h-92q-115 0 -196 -81t-81 -196t81 -196t196 -81h185v-93h-185z" />
    <glyph glyph-name="uni03F3" unicode="&#x3f3;" horiz-adv-x="462" 
d="M177 740h185v-93h-93v-739l-1 -19q-2 -19 -10.5 -46.5t-28 -54.5t-54.5 -46t-90 -19q-56 0 -91 19t-54.5 46t-28 54.5t-10.5 46.5l-1 19h92l1 -10q1 -9 5 -22.5t14 -27.5t27.5 -23.5t45.5 -9.5q27 0 44.5 9.5t27.5 23.5t14 27.5t5 22.5l1 10v832zM269 1017v-92h-92v92h92
z" />
    <glyph glyph-name="uni03F4" unicode="&#x3f4;" horiz-adv-x="1217" 
d="M195 681q7 -144 54 -267q56 -147 150.5 -234.5t209.5 -87.5t209 87.5t151 234.5q47 123 54 267h-828zM1024 785q-6 152 -55 280q-57 147 -151 234t-209 87t-209.5 -87t-150.5 -234q-49 -128 -55 -280h830zM609 1479q140 0 255.5 -100t184 -267.5t68.5 -372.5
q0 -204 -68.5 -371.5t-184 -267.5t-255.5 -100q-141 0 -256 100t-184 267.5t-69 371.5q0 205 69 372.5t184 267.5t256 100z" />
    <glyph glyph-name="uni03F8" unicode="&#x3f8;" horiz-adv-x="1033" 
d="M563 93q115 0 196 81t81 196t-81 196t-196 81t-196 -81t-81 -196t81 -196t196 -81zM286 614q51 59 122.5 92.5t154.5 33.5q102 0 186 -50t134 -134t50 -186t-50 -186t-134 -134t-186 -50q-83 0 -154.5 33.5t-122.5 92.5v-588h-185v93h92v1755h-91v93h184v-865z" />
    <glyph glyph-name="uni03F9" unicode="&#x3f9;" 
d="M839 0q-204 0 -372 100t-267.5 267.5t-99.5 372.5q0 204 99.5 371.5t267.5 267.5t372 100h185v-185h-92v93h-93q-178 0 -325 -87.5t-234.5 -234.5t-87.5 -325q0 -179 87.5 -326t234.5 -234t325 -87h93v92h92v-185h-185z" />
    <glyph glyph-name="uni03FA" unicode="&#x3fa;" horiz-adv-x="1216" 
d="M377 92v-92h-277v92h92v1294h-92v93h185l323 -647l324 647h184v-93h-92v-1294h92v-92h-277v92h93v1202l-278 -555h-92l-277 555v-1202h92z" />
    <glyph glyph-name="uni03FD" unicode="&#x3fd;" 
d="M285.051 0q203.988 0 371.978 100q167.99 100 267.483 267.5q99.4941 167.5 99.4941 372.5q0 204 -99.4941 371.5q-99.4932 167.5 -267.483 267.5q-167.989 100 -371.978 100h-184.988v-185h91.9941v93h92.9941q177.989 0 324.98 -87.5t234.485 -234.5
q87.4951 -147 87.4951 -325q0 -179 -87.4951 -326q-87.4941 -147 -234.485 -234t-324.98 -87h-92.9941v92h-91.9941v-185h184.988z" />
    <glyph glyph-name="uni03FE" unicode="&#x3fe;" 
d="M839 0q-204 0 -372 100t-267.5 267.5t-99.5 372.5q0 204 99.5 371.5t267.5 267.5t372 100h185v-185h-92v93h-93q-178 0 -325 -87.5t-234.5 -234.5t-87.5 -325q0 -179 87.5 -326t234.5 -234t325 -87h93v92h92v-185h-185zM522 702v78h79v-78h-79z" />
    <glyph glyph-name="uni03FF" unicode="&#x3ff;" horiz-adv-x="819" 
d="M-1024 0v185h92v-92h93q178 0 325 87t234.5 234t87.5 326q0 178 -87.5 325t-234.5 234.5t-325 87.5h-93v-93h-92v185h185q204 0 372 -100t267.5 -267.5t99.5 -371.5q0 -205 -99.5 -372.5t-267.5 -267.5t-372 -100h-185zM-601 701v78h79v-78h-79z" />
    <glyph glyph-name="uni0400" unicode="&#x400;" horiz-adv-x="1216" 
d="M1116 0h-1016v93h92v1294h-92v92h1016v-185h-92v93h-739v-647h739v-93h-739v-554h739v92h92v-185zM670 1630h-92l-93 185h93z" />
    <glyph glyph-name="uni0401" unicode="&#x401;" horiz-adv-x="1216" 
d="M1116 0h-1016v93h92v1294h-92v92h1016v-185h-92v93h-739v-647h739v-93h-739v-554h739v92h92v-185zM702 1723v92h93v-92h-93zM422 1722v92h93v-92h-93z" />
    <glyph glyph-name="uni0403" unicode="&#x403;" 
d="M100 1387v92h924v-185h-92v93h-647v-1294h92v-93h-277v93h92v1294h-92zM500 1630l92 185h93l-93 -185h-92z" />
    <glyph glyph-name="uni0405" unicode="&#x405;" horiz-adv-x="1032" 
d="M562 1386q-114 0 -195.5 -81t-81.5 -196q0 -64 41 -117t106.5 -100.5t141.5 -95.5q65 -41 128.5 -85t115 -95t83 -111.5t31.5 -134.5q0 -102 -50 -186t-133.5 -134t-186.5 -50q-102 0 -186 50t-133.5 134t-49.5 186h-93v92h278v-92h-93q0 -115 81.5 -196.5t195.5 -81.5
q115 0 196.5 81.5t81.5 196.5q0 64 -41 117t-106.5 100.5t-141.5 95.5q-65 40 -128.5 84.5t-115.5 95.5t-83 111.5t-31 134.5q0 102 49.5 186t133.5 134t186 50q103 0 186.5 -50t133.5 -134t50 -186h-92q0 115 -81.5 196t-196.5 81z" />
    <glyph glyph-name="uni0406" unicode="&#x406;" horiz-adv-x="477" 
d="M377 93v-93h-277v93h92v1294h-92v92h277v-92h-92v-1294h92z" />
    <glyph glyph-name="uni0407" unicode="&#x407;" horiz-adv-x="477" 
d="M377 93v-93h-277v93h92v1294h-92v92h277v-92h-92v-1294h92zM333 1723v92h93v-92h-93zM53 1722v92h93v-92h-93z" />
    <glyph glyph-name="uni0408" unicode="&#x408;" horiz-adv-x="1309" 
d="M1117 462l-3 -33q-2 -34 -14.5 -86.5t-40.5 -111.5t-79 -111t-130.5 -86t-194.5 -34q-116 0 -195.5 34t-130 86t-79 111t-41 111.5t-14.5 86.5l-2 33h-93v93h277v-93h-92l3 -37q4 -38 21 -92.5t56 -109.5t109 -92.5t181 -37.5t180.5 37.5t109 92.5t56.5 109.5t20 92.5
l3 37v925h-92v92h277v-92h-92v-925z" />
    <glyph glyph-name="uni040D" unicode="&#x40d;" horiz-adv-x="1217" 
d="M100 1386v93h185v-1274l647 1274h185v-93h-93v-1294h93v-92h-278v92h93v1181l-647 -1273h-185v92h92v1294h-92zM670 1630h-92l-93 185h93z" />
    <glyph glyph-name="uni0410" unicode="&#x410;" horiz-adv-x="1248" 
d="M377 93v-93h-277v93h85l323 1294h-69v92h277l347 -1386h85v-93h-278v93h100l-115 462h-462l-116 -462h100zM601 1387l-185 -740h416l-185 740h-46z" />
    <glyph glyph-name="uni0412" unicode="&#x412;" horiz-adv-x="1216" 
d="M1116 416q0 -125 -37.5 -203.5t-92 -122.5t-109.5 -63t-93 -23l-37 -4h-647v93h92v1294h-92v92h554l38 -3q38 -4 92.5 -21t109.5 -56t92.5 -109t37.5 -181q0 -80 -21 -138.5t-54.5 -98.5t-73.5 -66q55 -19 110 -63t93 -122.5t38 -204.5zM285 1387v-555h369l29 3
q28 2 69 15t82 42t69.5 81.5t28.5 135.5q0 84 -28.5 136t-69.5 81.5t-82 42.5t-69 15l-29 3h-369zM285 728v-624h462l28 3q28 3 69 17.5t82 47.5t69.5 92t28.5 152q0 94 -28.5 153t-69.5 92t-82 47t-69 17l-28 3h-462z" />
    <glyph glyph-name="uni0413" unicode="&#x413;" 
d="M100 1387v92h924v-185h-92v93h-647v-1294h92v-93h-277v93h92v1294h-92z" />
    <glyph glyph-name="uni0417" unicode="&#x417;" horiz-adv-x="1032" 
d="M741 783q48 -25 91.5 -70.5t71.5 -118t28 -178.5q0 -52 -19 -122.5t-62 -137.5t-114 -111.5t-175 -44.5q-102 0 -186 50t-134 134t-50 186h-92v92h277v-92h-92q0 -115 81 -196.5t196 -81.5q70 0 121.5 31t86.5 79.5t52 105t17 108.5q0 97 -28 158t-69 95.5t-82 49.5
t-70 18l-28 2h-185v93h185q83 0 135.5 28t82 69.5t42 82.5t15.5 69l2 28q0 115 -81 196.5t-196 81.5t-196 -81.5t-81 -196.5h-93q0 102 50 186t134 134t186 50t186 -50t134 -134t50 -186q0 -94 -28 -158.5t-71.5 -105t-91.5 -62.5z" />
    <glyph glyph-name="uni0418" unicode="&#x418;" horiz-adv-x="1217" 
d="M100 1386v93h185v-1274l647 1274h185v-93h-93v-1294h93v-92h-278v92h93v1181l-647 -1273h-185v92h92v1294h-92z" />
    <glyph glyph-name="uni0419" unicode="&#x419;" horiz-adv-x="1217" 
d="M100 1386v93h185v-1274l647 1274h185v-93h-93v-1294h93v-92h-278v92h93v1181l-647 -1273h-185v92h92v1294h-92zM508 1815q0 -41 29.5 -70.5t70.5 -29.5q42 0 71 29.5t29 70.5h92q0 -53 -26 -96.5t-69.5 -69t-96.5 -25.5q-52 0 -95.5 25.5t-69.5 69t-26 96.5h91z" />
    <glyph glyph-name="uni041C" unicode="&#x41c;" horiz-adv-x="1216" 
d="M377 92v-92h-277v92h92v1294h-92v93h185l323 -647l324 647h184v-93h-92v-1294h92v-92h-277v92h93v1202l-278 -555h-92l-277 555v-1202h92z" />
    <glyph glyph-name="uni041D" unicode="&#x41d;" horiz-adv-x="1309" 
d="M1209 93v-93h-277v93h93v554h-740v-554h93v-93h-278v93h93v1294h-93v92h278v-92h-93v-647h740v647h-93v92h277v-92h-92v-1294h92z" />
    <glyph glyph-name="uni041E" unicode="&#x41e;" horiz-adv-x="1217" 
d="M609 1479q140 0 255.5 -100t184 -267.5t68.5 -372.5q0 -204 -68.5 -371.5t-184 -267.5t-255.5 -100q-141 0 -256 100t-184 267.5t-69 371.5q0 205 69 372.5t184 267.5t256 100zM609 92q115 0 209 87.5t150.5 234.5t56.5 325q0 179 -56.5 326t-150.5 234t-209 87
t-209.5 -87t-150.5 -234t-56 -326q0 -178 56 -325t150.5 -234.5t209.5 -87.5z" />
    <glyph glyph-name="uni0420" unicode="&#x420;" horiz-adv-x="1217" 
d="M377 92v-92h-277v92h93v1294h-93v93h647l38 -4q37 -3 92 -20t109.5 -56t92.5 -109t38 -181t-38 -181t-92.5 -109t-109.5 -56t-92 -20l-38 -4h-462v-647h92zM285 1386v-554h462l28 2q29 3 70 15.5t82 42t69 82t28 135.5t-28 135.5t-69 82t-82 42t-70 15.5l-28 2h-462z" />
    <glyph glyph-name="uni0421" unicode="&#x421;" 
d="M839 0q-204 0 -372 100t-267.5 267.5t-99.5 372.5q0 204 99.5 371.5t267.5 267.5t372 100h185v-185h-92v93h-93q-178 0 -325 -87.5t-234.5 -234.5t-87.5 -325q0 -179 87.5 -326t234.5 -234t325 -87h93v92h92v-185h-185z" />
    <glyph glyph-name="uni0422" unicode="&#x422;" horiz-adv-x="1032" 
d="M100 1294v185h832v-185h-92v92h-277v-1294h92v-92h-277v92h92v1294h-277v-92h-93z" />
    <glyph glyph-name="uni042F" unicode="&#x42f;" horiz-adv-x="1175" 
d="M400 580q-42 16 -85 46.5t-80 81t-60.5 126.5t-23.5 183q0 115 33.5 194.5t86 130.5t111.5 79t111.5 40.5t85.5 14.5l34 3h462v-93h-92v-1294h92v-92h-277v92h92v463h-369l-29 2l-199 -465h84v-92h-277v92h90zM521 647h369v739h-277l-38 -3q-37 -3 -92 -20t-109.5 -56.5
t-92.5 -109t-38 -180.5t28.5 -181t69.5 -109t82 -56t69 -21z" />
    <glyph glyph-name="uni0430" unicode="&#x430;" horiz-adv-x="1031" 
d="M469 0q-102 0 -186 50t-133.5 134t-49.5 186t49.5 186t133.5 134t186 50q83 0 154.5 -33.5t123.5 -92.5v126h184v-93h-92v-554h92v-93h-184v126q-52 -59 -123.5 -92.5t-154.5 -33.5zM469 647q-115 0 -196 -81t-81 -196t81 -196t196 -81t196.5 81t81.5 196t-81.5 196
t-196.5 81z" />
    <glyph glyph-name="uni0433" unicode="&#x433;" horiz-adv-x="746" 
d="M100 649v92l546 -1v-184h-92v93h-269v-556h92v-93h-277v93h93v556h-93z" />
    <glyph glyph-name="uni0435" unicode="&#x435;" horiz-adv-x="847" 
d="M470 0q-103 0 -186.5 50t-133.5 134t-50 186t41.5 186t116.5 134t177 50q82 0 141 -30t97 -74.5t56 -91.5t18 -82v-92h-555q0 -115 81.5 -196t196.5 -81q114 0 196 81l65 -65q-51 -51 -118 -80t-143 -29zM435 647q-90 0 -149.5 -51t-81.5 -134h450q0 47 -28 89t-77.5 69
t-113.5 27z" />
    <glyph glyph-name="uni0438" unicode="&#x438;" horiz-adv-x="1057" 
d="M100 647v93h185v-595l487 595h185v-93h-93v-555h93v-92h-278v92h93v502l-487 -594h-185v92h93v555h-93z" />
    <glyph glyph-name="uni0439" unicode="&#x439;" horiz-adv-x="1057" 
d="M100 647v93h185v-595l487 595h185v-93h-93v-555h93v-92h-278v92h93v502l-487 -594h-185v92h93v555h-93zM428 1076q0 -41 29.5 -70.5t70.5 -29.5q42 0 71 29.5t29 70.5h92q0 -53 -26 -96.5t-69.5 -69t-96.5 -25.5q-52 0 -95.5 25.5t-69.5 69t-26 96.5h91z" />
    <glyph glyph-name="uni043E" unicode="&#x43e;" horiz-adv-x="939" 
d="M470 0q-102 0 -186 50t-134 134t-50 186t50 186t134 133.5t186 49.5t186 -49.5t133.5 -133.5t49.5 -186t-49.5 -186t-133.5 -134t-186 -50zM470 647q-115 0 -196.5 -81t-81.5 -196t81.5 -196.5t196.5 -81.5t196 81.5t81 196.5t-81 196t-196 81z" />
    <glyph glyph-name="uni0440" unicode="&#x440;" horiz-adv-x="1033" 
d="M563 740q102 0 186 -50t134 -134t50 -186t-50 -186t-134 -134t-186 -50q-83 0 -154.5 33.5t-122.5 92.5v-588h-185v93h92v1016h-92v93h185v-126q51 59 122.5 92.5t154.5 33.5zM563 93q115 0 196 81t81 196t-81 196t-196 81t-196 -81t-81 -196t81 -196t196 -81z" />
    <glyph glyph-name="uni0441" unicode="&#x441;" horiz-adv-x="755" 
d="M470 0q-102 0 -186 50t-134 134t-50 186t50 186t134 134t186 50h185v-185h-93v92h-92q-115 0 -196 -81t-81 -196t81 -196t196 -81h185v-93h-185z" />
    <glyph glyph-name="uni0443" unicode="&#x443;" horiz-adv-x="950" 
d="M572 648v92h278v-92h-83l-339 -1017h-184v93h122l82 253l-261 671h-87v92h277v-92h-87l206 -524l170 524h-94z" />
    <glyph glyph-name="uni0450" unicode="&#x450;" horiz-adv-x="847" 
d="M470 0q-103 0 -186.5 50t-133.5 134t-50 186t41.5 186t116.5 134t177 50q82 0 141 -30t97 -74.5t56 -91.5t18 -82v-92h-555q0 -115 81.5 -196t196.5 -81q114 0 196 81l65 -65q-51 -51 -118 -80t-143 -29zM435 647q-90 0 -149.5 -51t-81.5 -134h450q0 47 -28 89t-77.5 69
t-113.5 27zM485 891h-92l-93 185h93z" />
    <glyph glyph-name="uni0451" unicode="&#x451;" horiz-adv-x="847" 
d="M470 0q-103 0 -186.5 50t-133.5 134t-50 186t41.5 186t116.5 134t177 50q82 0 141 -30t97 -74.5t56 -91.5t18 -82v-92h-555q0 -115 81.5 -196t196.5 -81q114 0 196 81l65 -65q-51 -51 -118 -80t-143 -29zM435 647q-90 0 -149.5 -51t-81.5 -134h450q0 47 -28 89t-77.5 69
t-113.5 27zM517 984v92h93v-92h-93zM237 983v92h93v-92h-93z" />
    <glyph glyph-name="uni0453" unicode="&#x453;" horiz-adv-x="746" 
d="M100 649v92l546 -1v-184h-92v93h-269v-556h92v-93h-277v93h93v556h-93zM311 891l92 185h93l-93 -185h-92z" />
    <glyph glyph-name="uni0455" unicode="&#x455;" horiz-adv-x="662" 
d="M331 739q68 0 119 -25.5t80 -66.5h32v-92h-92q0 27 -14.5 44.5t-35 27.5t-41 14t-34.5 5l-14 1l-14 -1q-14 -1 -34.5 -5t-41 -14t-35 -27.5t-14.5 -44.5q0 -42 22.5 -67.5t58 -42t76.5 -30.5q52 -18 100.5 -42.5t80.5 -68t32 -119.5q0 -46 -29 -88.5t-81 -69.5t-121 -27
q-68 0 -119 26t-80 66h-32v93h92q0 -28 14.5 -45.5t35 -27t41 -14t34.5 -5.5l14 -1l14 1q14 1 34.5 5.5t41 14t35 27t14.5 45.5q0 41 -22 66.5t-57.5 42t-77.5 31.5q-52 17 -100.5 41.5t-80.5 68t-32 120.5q0 46 29 88t81 69t121 27z" />
    <glyph glyph-name="uni0456" unicode="&#x456;" horiz-adv-x="477" 
d="M377 93v-93h-277v93h92v554h-92v93h185v-647h92zM285 1017v-93h-93v93h93z" />
    <glyph glyph-name="uni0457" unicode="&#x457;" horiz-adv-x="477" 
d="M377 93v-93h-277v93h92v554h-92v93h185v-647h92zM332 984v92h93v-92h-93zM52 983v92h93v-92h-93z" />
    <glyph glyph-name="uni0458" unicode="&#x458;" horiz-adv-x="462" 
d="M177 740h185v-93h-93v-739l-1 -19q-2 -19 -10.5 -46.5t-28 -54.5t-54.5 -46t-90 -19q-56 0 -91 19t-54.5 46t-28 54.5t-10.5 46.5l-1 19h92l1 -10q1 -9 5 -22.5t14 -27.5t27.5 -23.5t45.5 -9.5q27 0 44.5 9.5t27.5 23.5t14 27.5t5 22.5l1 10v832zM269 1017v-92h-92v92h92
z" />
    <glyph glyph-name="uni045D" unicode="&#x45d;" horiz-adv-x="1057" 
d="M100 647v93h185v-595l487 595h185v-93h-93v-555h93v-92h-278v92h93v502l-487 -594h-185v92h93v555h-93zM590 891h-92l-93 185h93z" />
    <glyph glyph-name="uni045E" unicode="&#x45e;" horiz-adv-x="950" 
d="M572 648v92h278v-92h-83l-339 -1017h-184v93h122l82 253l-261 671h-87v92h277v-92h-87l206 -524l170 524h-94zM375 1076q0 -41 29.5 -70.5t70.5 -29.5q42 0 71 29.5t29 70.5h92q0 -53 -26 -96.5t-69.5 -69t-96.5 -25.5q-52 0 -95.5 25.5t-69.5 69t-26 96.5h91z" />
    <glyph glyph-name="uni04C0" unicode="&#x4c0;" horiz-adv-x="477" 
d="M377 93v-93h-277v93h92v1294h-92v92h277v-92h-92v-1294h92z" />
    <glyph glyph-name="uni04CF" unicode="&#x4cf;" horiz-adv-x="477" 
d="M284 1479v-1387h93v-92h-185v1386h-92v93h184z" />
    <glyph glyph-name="uni04D2" unicode="&#x4d2;" horiz-adv-x="1248" 
d="M377 93v-93h-277v93h85l323 1294h-69v92h277l347 -1386h85v-93h-278v93h100l-115 462h-462l-116 -462h100zM601 1387l-185 -740h416l-185 740h-46zM718 1723v92h93v-92h-93zM438 1722v92h93v-92h-93z" />
    <glyph glyph-name="uni04D3" unicode="&#x4d3;" horiz-adv-x="1031" 
d="M469 0q-102 0 -186 50t-133.5 134t-49.5 186t49.5 186t133.5 134t186 50q83 0 154.5 -33.5t123.5 -92.5v126h184v-93h-92v-554h92v-93h-184v126q-52 -59 -123.5 -92.5t-154.5 -33.5zM469 647q-115 0 -196 -81t-81 -196t81 -196t196 -81t196.5 81t81.5 196t-81.5 196
t-196.5 81zM609 984v92h93v-92h-93zM329 983v92h93v-92h-93z" />
    <glyph glyph-name="uni04D4" unicode="&#x4d4;" horiz-adv-x="1762" 
d="M738 647v740h-137l-185 -740h322zM831 555v-462h739v92h92v-185h-1016v93h92v462h-345l-116 -462h100v-93h-277v93h85l323 1294h-69v92h1223v-185h-92v93h-739v-740h740v-92h-740z" />
    <glyph glyph-name="uni04D5" unicode="&#x4d5;" horiz-adv-x="1494" 
d="M1083 647q-91 0 -150 -51.5t-81 -133.5h450q0 46 -28.5 88.5t-78 69.5t-112.5 27zM469 647q-115 0 -196 -81t-81 -196t81 -196t196 -81t196.5 81t81.5 196t-81.5 196t-196.5 81zM839 125v-125h-92v126q-52 -59 -123.5 -92.5t-154.5 -33.5q-102 0 -186 50t-133.5 134
t-49.5 186t49.5 186t133.5 134t186 50q83 0 154.5 -33.5t123.5 -92.5v126h92v-109q29 33 67 58q75 50 177 50q82 0 141 -30t96.5 -74t55.5 -91.5t18 -81.5v-93h-554q0 -115 81 -196t196 -81t196 81l65 -65q-50 -51 -117 -79.5t-144 -28.5q-102 0 -186 50q-53 31 -92 75z" />
    <glyph glyph-name="uni04D8" unicode="&#x4d8;" horiz-adv-x="1106" 
d="M488 1057q143 0 260.5 -70t187.5 -187.5t70 -260.5t-58 -260.5t-163.5 -187t-248.5 -69.5q-115 0 -197.5 41.5t-135.5 103.5t-78 128t-25 115v129h776q0 161 -113.5 274.5t-274.5 113.5t-274 -113l-92 91q71 71 165 111.5t201 40.5zM536 151q127 0 210 72t114 187h-631
q0 -65 40 -124.5t109 -97t158 -37.5z" />
    <glyph glyph-name="uni04D9" unicode="&#x4d9;" horiz-adv-x="847" 
d="M377 740q103 0 186.5 -50t133.5 -134t50 -186t-41.5 -186t-116.5 -134t-177 -50q-82 0 -141 30t-97 74.5t-56 91.5t-18 82v92h555q0 115 -81.5 196t-196.5 81q-114 0 -196 -81l-65 65q51 51 118 80t143 29zM412 93q90 0 149.5 51t81.5 134h-450q0 -47 28 -89t77.5 -69
t113.5 -27z" />
    <glyph glyph-name="uni04DA" unicode="&#x4da;" horiz-adv-x="1106" 
d="M487 1057q145 0 261.5 -70t186.5 -188t70 -260q0 -143 -58 -260.5t-163 -187.5t-248 -70q-114 0 -197 42t-136 104t-78 128t-25 115v129h777q0 161 -114.5 274t-275.5 113q-159 0 -274 -113l-91 91q71 71 165 112t200 41zM536 151q126 0 209.5 71.5t114.5 187.5h-630
q0 -66 39 -125t108.5 -96.5t158.5 -37.5zM647 1211v92h93v-92h-93zM367 1210v92h93v-92h-93z" />
    <glyph glyph-name="uni04DB" unicode="&#x4db;" horiz-adv-x="847" 
d="M377 755q103 0 186.5 -50t133.5 -134t50 -186t-41.5 -186t-116.5 -134t-177 -50q-82 0 -141 30t-97 74.5t-56 91.5t-18 82v92h555q0 115 -81.5 196t-196.5 81q-114 0 -196 -81l-65 65q51 51 118 80t143 29zM412 108q90 0 149.5 51t81.5 134h-450q0 -47 28 -89t77.5 -69
t113.5 -27zM505 895v92h93v-92h-93zM225 894v92h93v-92h-93z" />
    <glyph glyph-name="uni04DE" unicode="&#x4de;" horiz-adv-x="1032" 
d="M741 783q48 -25 91.5 -70.5t71.5 -118t28 -178.5q0 -52 -19 -122.5t-62 -137.5t-114 -111.5t-175 -44.5q-102 0 -186 50t-134 134t-50 186h-92v92h277v-92h-92q0 -115 81 -196.5t196 -81.5q70 0 121.5 31t86.5 79.5t52 105t17 108.5q0 97 -28 158t-69 95.5t-82 49.5
t-70 18l-28 2h-185v93h185q83 0 135.5 28t82 69.5t42 82.5t15.5 69l2 28q0 115 -81 196.5t-196 81.5t-196 -81.5t-81 -196.5h-93q0 102 50 186t134 134t186 50t186 -50t134 -134t50 -186q0 -94 -28 -158.5t-71.5 -105t-91.5 -62.5zM610 1723v92h93v-92h-93zM330 1722v92h93
v-92h-93z" />
    <glyph glyph-name="uni04E0" unicode="&#x4e0;" horiz-adv-x="1032" 
d="M675 814q112 -46 156.5 -96.5t72.5 -123t28 -178.5q0 -52 -19 -122.5t-62 -137.5t-114 -111.5t-175 -44.5q-102 0 -186 50t-134 134t-50 186h-92v92h277v-92h-92q0 -115 81 -196.5t196 -81.5q70 0 121.5 31t86.5 79.5t52 105t17 108.5q0 97 -28 158t-69 95.5t-82 49.5
t-70 18l-28 2h-62l32 93h51l248 555h-573v92h674v-92z" />
    <glyph glyph-name="uni04E1" unicode="&#x4e1;" horiz-adv-x="1032" 
d="M675 251q112 -46 156.5 -96.5t72.5 -123t28 -178.5q0 -52 -19 -122.5t-62 -137.5t-114 -111.5t-175 -44.5q-102 0 -186 50t-134 134t-50 186h-92v92h277v-92h-92q0 -115 81 -196.5t196 -81.5q70 0 121.5 31t86.5 79.5t52 105t17 108.5q0 97 -28 158t-69 95.5t-82 49.5
t-70 18l-28 2h-62l32 93h51l249 379h-574v92h674v-92z" />
    <glyph glyph-name="uni04E4" unicode="&#x4e4;" horiz-adv-x="1217" 
d="M100 1386v93h185v-1274l647 1274h185v-93h-93v-1294h93v-92h-278v92h93v1181l-647 -1273h-185v92h92v1294h-92zM702 1723v92h93v-92h-93zM422 1722v92h93v-92h-93z" />
    <glyph glyph-name="uni04E5" unicode="&#x4e5;" horiz-adv-x="1057" 
d="M100 647v93h185v-595l487 595h185v-93h-93v-555h93v-92h-278v92h93v502l-487 -594h-185v92h93v555h-93zM622 984v92h93v-92h-93zM342 983v92h93v-92h-93z" />
    <glyph glyph-name="uni04E6" unicode="&#x4e6;" horiz-adv-x="1217" 
d="M609 1479q140 0 255.5 -100t184 -267.5t68.5 -372.5q0 -204 -68.5 -371.5t-184 -267.5t-255.5 -100q-141 0 -256 100t-184 267.5t-69 371.5q0 205 69 372.5t184 267.5t256 100zM609 92q115 0 209 87.5t150.5 234.5t56.5 325q0 179 -56.5 326t-150.5 234t-209 87
t-209.5 -87t-150.5 -234t-56 -326q0 -178 56 -325t150.5 -234.5t209.5 -87.5zM702 1723v92h93v-92h-93zM422 1722v92h93v-92h-93z" />
    </font>
</defs>
</svg>
